<mxfile host="app.diagrams.net" modified="2021-03-25T01:17:22.677Z" agent="5.0 (Macintosh; Intel Mac OS X 10_15_7) AppleWebKit/537.36 (KHTML, like Gecko) Chrome/88.0.4324.150 Safari/537.36 Edg/88.0.705.68" etag="fg9Sp46Ap75UJtusJwE-" version="14.4.9" type="github">
  <diagram id="5n1qwYMmy2B0pd3I0OFW" name="Page-1">
    <mxGraphModel dx="1351" dy="657" grid="1" gridSize="10" guides="1" tooltips="1" connect="1" arrows="1" fold="1" page="1" pageScale="1" pageWidth="4681" pageHeight="3300" math="0" shadow="0">
      <root>
        <mxCell id="0" />
        <mxCell id="1" parent="0" />
        <mxCell id="VqiHA8Q5cYp8pTYDiDT9-476" value="" style="rounded=0;whiteSpace=wrap;html=1;strokeWidth=2;fontSize=12;align=center;fontFamily=Lucida Console;dashed=1;fontStyle=1;fillColor=#f5f5f5;strokeColor=#666666;fontColor=#333333;" parent="1" vertex="1">
          <mxGeometry x="850" y="2640" width="280" height="120" as="geometry" />
        </mxCell>
        <mxCell id="VqiHA8Q5cYp8pTYDiDT9-477" value="" style="rounded=0;whiteSpace=wrap;html=1;strokeWidth=2;fontSize=12;align=center;fontFamily=Lucida Console;dashed=1;fontStyle=1;fillColor=#f5f5f5;strokeColor=#666666;fontColor=#333333;" parent="1" vertex="1">
          <mxGeometry x="1130" y="2640" width="350" height="120" as="geometry" />
        </mxCell>
        <mxCell id="VqiHA8Q5cYp8pTYDiDT9-475" value="" style="rounded=0;whiteSpace=wrap;html=1;strokeWidth=2;fontSize=12;align=center;fontFamily=Lucida Console;dashed=1;fontStyle=1;fillColor=#f5f5f5;strokeColor=#666666;fontColor=#333333;" parent="1" vertex="1">
          <mxGeometry x="360" y="2640" width="490" height="120" as="geometry" />
        </mxCell>
        <mxCell id="VqiHA8Q5cYp8pTYDiDT9-470" value="" style="rounded=0;whiteSpace=wrap;html=1;strokeWidth=2;fontSize=12;align=center;fontFamily=Lucida Console;dashed=1;fontStyle=1;fillColor=#f5f5f5;strokeColor=#666666;fontColor=#333333;" parent="1" vertex="1">
          <mxGeometry x="900" y="2760" width="180" height="280" as="geometry" />
        </mxCell>
        <mxCell id="VqiHA8Q5cYp8pTYDiDT9-469" value="" style="rounded=0;whiteSpace=wrap;html=1;strokeWidth=2;fontSize=12;align=center;fontFamily=Lucida Console;dashed=1;fontStyle=1;fillColor=#f5f5f5;strokeColor=#666666;fontColor=#333333;" parent="1" vertex="1">
          <mxGeometry x="1080" y="2760" width="400" height="400" as="geometry" />
        </mxCell>
        <mxCell id="VqiHA8Q5cYp8pTYDiDT9-465" value="" style="rounded=0;whiteSpace=wrap;html=1;strokeWidth=2;fontSize=12;align=center;fontFamily=Lucida Console;dashed=1;fontStyle=1;fillColor=#f5f5f5;strokeColor=#666666;fontColor=#333333;" parent="1" vertex="1">
          <mxGeometry x="360" y="2760" width="540" height="280" as="geometry" />
        </mxCell>
        <mxCell id="VqiHA8Q5cYp8pTYDiDT9-468" value="" style="rounded=0;whiteSpace=wrap;html=1;strokeColor=#666666;strokeWidth=2;fontSize=12;align=center;fontFamily=Lucida Console;dashed=1;fillColor=#f5f5f5;fontColor=#333333;fontStyle=1" parent="1" vertex="1">
          <mxGeometry x="390" y="2820" width="360" height="200" as="geometry" />
        </mxCell>
        <mxCell id="VqiHA8Q5cYp8pTYDiDT9-467" value="" style="rounded=0;whiteSpace=wrap;html=1;strokeColor=#666666;strokeWidth=2;fontSize=12;align=center;fontFamily=Lucida Console;dashed=1;fillColor=#f5f5f5;fontColor=#333333;fontStyle=1" parent="1" vertex="1">
          <mxGeometry x="750" y="2820" width="120" height="200" as="geometry" />
        </mxCell>
        <mxCell id="VqiHA8Q5cYp8pTYDiDT9-466" value="" style="rounded=0;whiteSpace=wrap;html=1;strokeColor=#666666;strokeWidth=2;fontSize=12;align=center;fontFamily=Lucida Console;dashed=1;fillColor=#f5f5f5;fontColor=#333333;fontStyle=1" parent="1" vertex="1">
          <mxGeometry x="1110" y="2820" width="240" height="320" as="geometry" />
        </mxCell>
        <mxCell id="VqiHA8Q5cYp8pTYDiDT9-463" value="" style="rounded=0;whiteSpace=wrap;html=1;strokeColor=#666666;strokeWidth=2;fontSize=12;align=center;fontFamily=Lucida Console;dashed=1;fillColor=#f5f5f5;fontColor=#333333;fontStyle=1" parent="1" vertex="1">
          <mxGeometry x="930" y="2820" width="120" height="200" as="geometry" />
        </mxCell>
        <mxCell id="VqiHA8Q5cYp8pTYDiDT9-377" value="&lt;b&gt;POD-Manager&amp;nbsp;&lt;/b&gt;" style="rounded=0;whiteSpace=wrap;html=1;strokeColor=#666666;strokeWidth=3;fontSize=14;align=right;fontColor=#333333;fontFamily=Lucida Console;fillColor=#f5f5f5;verticalAlign=top;" parent="1" vertex="1">
          <mxGeometry x="2420" y="2530" width="330" height="170" as="geometry" />
        </mxCell>
        <mxCell id="VqiHA8Q5cYp8pTYDiDT9-378" value="&lt;b&gt;POD-Compute&amp;nbsp;&lt;/b&gt;" style="rounded=0;whiteSpace=wrap;html=1;strokeColor=#666666;strokeWidth=3;fontSize=14;align=right;fontColor=#333333;fontFamily=Lucida Console;fillColor=#f5f5f5;verticalAlign=top;" parent="1" vertex="1">
          <mxGeometry x="2760" y="2530" width="330" height="170" as="geometry" />
        </mxCell>
        <mxCell id="VqiHA8Q5cYp8pTYDiDT9-379" value="&lt;b&gt;POD-Storage&amp;nbsp;&lt;/b&gt;" style="rounded=0;whiteSpace=wrap;html=1;strokeColor=#666666;strokeWidth=3;fontSize=14;align=right;fontColor=#333333;fontFamily=Lucida Console;fillColor=#f5f5f5;verticalAlign=top;" parent="1" vertex="1">
          <mxGeometry x="3100" y="2530" width="330" height="170" as="geometry" />
        </mxCell>
        <mxCell id="VqiHA8Q5cYp8pTYDiDT9-221" value="" style="rounded=0;whiteSpace=wrap;html=1;fillColor=#FFFFFF;gradientColor=none;" parent="1" vertex="1">
          <mxGeometry x="1040" y="1680" width="680" height="320" as="geometry" />
        </mxCell>
        <mxCell id="VqiHA8Q5cYp8pTYDiDT9-63" value="&lt;b&gt;紫鸾研发账号权限申请流程&lt;/b&gt;" style="shape=umlFrame;whiteSpace=wrap;html=1;width=180;height=40;fillColor=#FFFFFF;swimlaneFillColor=#ffffff;" parent="1" vertex="1">
          <mxGeometry x="2280" y="200" width="860" height="270" as="geometry" />
        </mxCell>
        <mxCell id="0XY4--5X_oFbcHnSFoPR-78" value="" style="rounded=0;whiteSpace=wrap;html=1;strokeColor=#000000;strokeWidth=3;fillColor=#ffffff;fontSize=16;fontColor=#0000FF;align=center;" parent="1" vertex="1">
          <mxGeometry x="1040" y="960" width="920" height="360" as="geometry" />
        </mxCell>
        <mxCell id="0XY4--5X_oFbcHnSFoPR-147" value="" style="rounded=0;whiteSpace=wrap;html=1;dashed=1;strokeColor=#6c8ebf;strokeWidth=3;fillColor=#dae8fc;fontSize=14;align=center;" parent="1" vertex="1">
          <mxGeometry x="1830" y="990" width="100" height="60" as="geometry" />
        </mxCell>
        <mxCell id="0XY4--5X_oFbcHnSFoPR-146" value="" style="rounded=0;whiteSpace=wrap;html=1;dashed=1;strokeColor=#6c8ebf;strokeWidth=3;fillColor=#dae8fc;fontSize=14;align=center;" parent="1" vertex="1">
          <mxGeometry x="1350" y="990" width="100" height="60" as="geometry" />
        </mxCell>
        <mxCell id="0XY4--5X_oFbcHnSFoPR-115" value="" style="rounded=0;whiteSpace=wrap;html=1;dashed=1;strokeColor=#b85450;strokeWidth=3;fillColor=#f8cecc;fontSize=14;align=center;" parent="1" vertex="1">
          <mxGeometry x="1070" y="1150" width="180" height="60" as="geometry" />
        </mxCell>
        <mxCell id="0XY4--5X_oFbcHnSFoPR-114" value="" style="rounded=0;whiteSpace=wrap;html=1;dashed=1;strokeColor=#b85450;strokeWidth=3;fillColor=#f8cecc;fontSize=14;align=center;" parent="1" vertex="1">
          <mxGeometry x="1350" y="1150" width="100" height="60" as="geometry" />
        </mxCell>
        <mxCell id="0XY4--5X_oFbcHnSFoPR-116" value="" style="rounded=0;whiteSpace=wrap;html=1;dashed=1;strokeColor=#6c8ebf;strokeWidth=3;fillColor=#dae8fc;fontSize=14;align=center;" parent="1" vertex="1">
          <mxGeometry x="1550" y="1150" width="180" height="60" as="geometry" />
        </mxCell>
        <mxCell id="0XY4--5X_oFbcHnSFoPR-117" value="" style="rounded=0;whiteSpace=wrap;html=1;dashed=1;strokeColor=#6c8ebf;strokeWidth=3;fillColor=#dae8fc;fontSize=14;align=center;" parent="1" vertex="1">
          <mxGeometry x="1350" y="1150" width="100" height="60" as="geometry" />
        </mxCell>
        <mxCell id="0XY4--5X_oFbcHnSFoPR-118" value="" style="rounded=0;whiteSpace=wrap;html=1;dashed=1;strokeColor=#6c8ebf;strokeWidth=3;fillColor=#dae8fc;fontSize=14;align=center;" parent="1" vertex="1">
          <mxGeometry x="1070" y="1150" width="180" height="60" as="geometry" />
        </mxCell>
        <mxCell id="0XY4--5X_oFbcHnSFoPR-58" value="" style="rounded=0;whiteSpace=wrap;html=1;strokeColor=#000000;strokeWidth=3;fillColor=#ffffff;fontSize=16;fontColor=#0000FF;align=center;" parent="1" vertex="1">
          <mxGeometry x="360" y="1680" width="480" height="320" as="geometry" />
        </mxCell>
        <mxCell id="0XY4--5X_oFbcHnSFoPR-70" value="" style="rounded=0;whiteSpace=wrap;html=1;strokeColor=#d6b656;strokeWidth=3;fillColor=#fff2cc;fontSize=16;align=center;dashed=1;" parent="1" vertex="1">
          <mxGeometry x="380" y="1700" width="290" height="260" as="geometry" />
        </mxCell>
        <mxCell id="0XY4--5X_oFbcHnSFoPR-46" value="" style="rounded=0;whiteSpace=wrap;html=1;strokeColor=#000000;strokeWidth=3;fillColor=#ffffff;fontSize=16;fontColor=#0000FF;align=center;" parent="1" vertex="1">
          <mxGeometry x="360" y="1320" width="480" height="320" as="geometry" />
        </mxCell>
        <mxCell id="0XY4--5X_oFbcHnSFoPR-57" value="" style="rounded=0;whiteSpace=wrap;html=1;strokeColor=#b85450;strokeWidth=3;fillColor=#f8cecc;fontSize=16;align=center;dashed=1;" parent="1" vertex="1">
          <mxGeometry x="700" y="1420" width="120" height="160" as="geometry" />
        </mxCell>
        <mxCell id="0XY4--5X_oFbcHnSFoPR-45" value="" style="rounded=0;whiteSpace=wrap;html=1;strokeColor=#000000;strokeWidth=3;fillColor=#ffffff;fontSize=16;fontColor=#0000FF;align=center;" parent="1" vertex="1">
          <mxGeometry x="360" y="960" width="480" height="320" as="geometry" />
        </mxCell>
        <mxCell id="0XY4--5X_oFbcHnSFoPR-23" value="" style="rounded=0;whiteSpace=wrap;html=1;strokeWidth=3;fontSize=16;" parent="1" vertex="1">
          <mxGeometry x="120" y="120" width="860" height="610" as="geometry" />
        </mxCell>
        <mxCell id="0XY4--5X_oFbcHnSFoPR-12" value="&lt;b&gt;&lt;font color=&quot;#0000ff&quot;&gt;数据中心 1&lt;/font&gt;&lt;/b&gt;" style="rounded=0;whiteSpace=wrap;html=1;verticalAlign=top;strokeColor=#d6b656;fillColor=#fff2cc;strokeWidth=2;" parent="1" vertex="1">
          <mxGeometry x="220" y="420" width="300" height="285" as="geometry" />
        </mxCell>
        <mxCell id="0XY4--5X_oFbcHnSFoPR-11" value="&lt;b&gt;&lt;font color=&quot;#0000ff&quot;&gt;数据中心 2&lt;/font&gt;&lt;/b&gt;" style="rounded=0;whiteSpace=wrap;html=1;verticalAlign=top;strokeColor=#d6b656;fillColor=#fff2cc;strokeWidth=2;" parent="1" vertex="1">
          <mxGeometry x="620" y="420" width="300" height="285" as="geometry" />
        </mxCell>
        <mxCell id="0XY4--5X_oFbcHnSFoPR-10" value="&lt;b&gt;可用区 1&amp;nbsp; &amp;nbsp; &amp;nbsp; &amp;nbsp; &amp;nbsp; &amp;nbsp; &amp;nbsp; &amp;nbsp; &amp;nbsp; &amp;nbsp; &amp;nbsp; &amp;nbsp; &amp;nbsp; &amp;nbsp; &amp;nbsp; &amp;nbsp; &amp;nbsp; &amp;nbsp;Region 1&amp;nbsp; &amp;nbsp; &amp;nbsp; &amp;nbsp; &amp;nbsp; &amp;nbsp; &amp;nbsp; &amp;nbsp; &amp;nbsp; &amp;nbsp; &amp;nbsp; &amp;nbsp; &amp;nbsp; &amp;nbsp; &amp;nbsp; &amp;nbsp; &amp;nbsp; &amp;nbsp;可用区 2&lt;/b&gt;" style="rounded=0;whiteSpace=wrap;html=1;verticalAlign=top;dashed=1;strokeWidth=3;dashPattern=1 1;strokeColor=#b85450;fillColor=none;" parent="1" vertex="1">
          <mxGeometry x="240" y="460" width="660" height="230" as="geometry" />
        </mxCell>
        <mxCell id="0XY4--5X_oFbcHnSFoPR-4" value="&lt;b&gt;&lt;font color=&quot;#0000ff&quot;&gt;数据中心 3&lt;/font&gt;&lt;/b&gt;" style="rounded=0;whiteSpace=wrap;html=1;verticalAlign=top;strokeColor=#d6b656;fillColor=#fff2cc;strokeWidth=2;" parent="1" vertex="1">
          <mxGeometry x="420" y="155" width="300" height="190" as="geometry" />
        </mxCell>
        <mxCell id="0XY4--5X_oFbcHnSFoPR-3" value="&lt;b&gt;Region 2（仅一个可用区）&lt;/b&gt;" style="rounded=0;whiteSpace=wrap;html=1;verticalAlign=top;dashed=1;strokeWidth=3;strokeColor=#b85450;fillColor=none;dashPattern=1 1;" parent="1" vertex="1">
          <mxGeometry x="440" y="200" width="260" height="130" as="geometry" />
        </mxCell>
        <mxCell id="0XY4--5X_oFbcHnSFoPR-1" value="专有云平台" style="rounded=0;whiteSpace=wrap;html=1;fillColor=#e1d5e7;strokeColor=#9673a6;" parent="1" vertex="1">
          <mxGeometry x="450" y="280" width="240" height="40" as="geometry" />
        </mxCell>
        <mxCell id="0XY4--5X_oFbcHnSFoPR-2" value="业务1-VPC 2" style="rounded=0;whiteSpace=wrap;html=1;fillColor=#f8cecc;strokeColor=#b85450;" parent="1" vertex="1">
          <mxGeometry x="570" y="230" width="120" height="40" as="geometry" />
        </mxCell>
        <mxCell id="0XY4--5X_oFbcHnSFoPR-5" value="专有云平台" style="rounded=0;whiteSpace=wrap;html=1;fillColor=#e1d5e7;strokeColor=#9673a6;" parent="1" vertex="1">
          <mxGeometry x="250" y="640" width="240" height="40" as="geometry" />
        </mxCell>
        <mxCell id="0XY4--5X_oFbcHnSFoPR-6" value="应用3-VPC&amp;nbsp;&amp;nbsp;" style="rounded=0;whiteSpace=wrap;html=1;fillColor=#fff2cc;strokeColor=#d6b656;" parent="1" vertex="1">
          <mxGeometry x="250" y="590" width="640" height="40" as="geometry" />
        </mxCell>
        <mxCell id="0XY4--5X_oFbcHnSFoPR-7" value="客户2-VPC&amp;nbsp;&amp;nbsp;" style="rounded=0;whiteSpace=wrap;html=1;fillColor=#fff2cc;strokeColor=#d6b656;" parent="1" vertex="1">
          <mxGeometry x="250" y="540" width="640" height="40" as="geometry" />
        </mxCell>
        <mxCell id="0XY4--5X_oFbcHnSFoPR-8" value="业务1-VPC 1" style="rounded=0;whiteSpace=wrap;html=1;fillColor=#f8cecc;strokeColor=#b85450;" parent="1" vertex="1">
          <mxGeometry x="250" y="490" width="640" height="40" as="geometry" />
        </mxCell>
        <mxCell id="0XY4--5X_oFbcHnSFoPR-9" value="专有云平台" style="rounded=0;whiteSpace=wrap;html=1;fillColor=#e1d5e7;strokeColor=#9673a6;" parent="1" vertex="1">
          <mxGeometry x="650" y="640" width="240" height="40" as="geometry" />
        </mxCell>
        <mxCell id="0XY4--5X_oFbcHnSFoPR-13" value="" style="endArrow=none;dashed=1;html=1;fillColor=#f8cecc;strokeColor=#b85450;strokeWidth=3;" parent="1" edge="1">
          <mxGeometry width="50" height="50" relative="1" as="geometry">
            <mxPoint x="122" y="380" as="sourcePoint" />
            <mxPoint x="980" y="380" as="targetPoint" />
          </mxGeometry>
        </mxCell>
        <mxCell id="0XY4--5X_oFbcHnSFoPR-14" value="" style="endArrow=oval;startArrow=oval;html=1;strokeWidth=4;entryX=0.75;entryY=1;entryDx=0;entryDy=0;fillColor=#f8cecc;strokeColor=#b85450;startFill=1;endFill=1;exitX=0.641;exitY=0.038;exitDx=0;exitDy=0;exitPerimeter=0;" parent="1" source="0XY4--5X_oFbcHnSFoPR-8" target="0XY4--5X_oFbcHnSFoPR-2" edge="1">
          <mxGeometry width="50" height="50" relative="1" as="geometry">
            <mxPoint x="660" y="419" as="sourcePoint" />
            <mxPoint x="860" y="270" as="targetPoint" />
          </mxGeometry>
        </mxCell>
        <mxCell id="0XY4--5X_oFbcHnSFoPR-15" value="城市 2" style="text;html=1;strokeColor=none;fillColor=none;align=center;verticalAlign=middle;whiteSpace=wrap;rounded=0;dashed=1;dashPattern=1 1;opacity=0;fontStyle=1;fontSize=16;" parent="1" vertex="1">
          <mxGeometry x="130" y="420" width="50" height="20" as="geometry" />
        </mxCell>
        <mxCell id="0XY4--5X_oFbcHnSFoPR-16" value="城市 1" style="text;html=1;strokeColor=none;fillColor=none;align=center;verticalAlign=middle;whiteSpace=wrap;rounded=0;dashed=1;dashPattern=1 1;opacity=0;fontStyle=1;fontSize=16;" parent="1" vertex="1">
          <mxGeometry x="130" y="320" width="50" height="20" as="geometry" />
        </mxCell>
        <mxCell id="0XY4--5X_oFbcHnSFoPR-17" value="" style="endArrow=oval;startArrow=oval;html=1;strokeWidth=4;entryX=0.5;entryY=1;entryDx=0;entryDy=0;fillColor=#f8cecc;strokeColor=#b85450;startFill=1;endFill=1;exitX=1;exitY=0;exitDx=0;exitDy=0;" parent="1" source="0XY4--5X_oFbcHnSFoPR-12" target="0XY4--5X_oFbcHnSFoPR-4" edge="1">
          <mxGeometry width="50" height="50" relative="1" as="geometry">
            <mxPoint x="670.2400000000002" y="501.52" as="sourcePoint" />
            <mxPoint x="670" y="280" as="targetPoint" />
          </mxGeometry>
        </mxCell>
        <mxCell id="0XY4--5X_oFbcHnSFoPR-18" value="" style="endArrow=oval;startArrow=oval;html=1;strokeWidth=4;entryX=0.5;entryY=1;entryDx=0;entryDy=0;fillColor=#f8cecc;strokeColor=#b85450;startFill=1;endFill=1;exitX=0;exitY=0;exitDx=0;exitDy=0;" parent="1" source="0XY4--5X_oFbcHnSFoPR-11" target="0XY4--5X_oFbcHnSFoPR-4" edge="1">
          <mxGeometry width="50" height="50" relative="1" as="geometry">
            <mxPoint x="680.2400000000002" y="511.52" as="sourcePoint" />
            <mxPoint x="680" y="290" as="targetPoint" />
          </mxGeometry>
        </mxCell>
        <mxCell id="0XY4--5X_oFbcHnSFoPR-19" value="" style="endArrow=oval;startArrow=oval;html=1;strokeWidth=4;entryX=1;entryY=0;entryDx=0;entryDy=0;fillColor=#f8cecc;strokeColor=#b85450;startFill=1;endFill=1;exitX=0;exitY=0;exitDx=0;exitDy=0;" parent="1" source="0XY4--5X_oFbcHnSFoPR-11" target="0XY4--5X_oFbcHnSFoPR-12" edge="1">
          <mxGeometry width="50" height="50" relative="1" as="geometry">
            <mxPoint x="690.2400000000002" y="521.52" as="sourcePoint" />
            <mxPoint x="690" y="300" as="targetPoint" />
          </mxGeometry>
        </mxCell>
        <mxCell id="0XY4--5X_oFbcHnSFoPR-20" value="&lt;font color=&quot;#ff0000&quot;&gt;专线骨干网络&lt;/font&gt;" style="text;html=1;strokeColor=none;fillColor=none;align=center;verticalAlign=middle;whiteSpace=wrap;rounded=0;dashed=1;dashPattern=1 1;opacity=0;fontStyle=1;fontSize=16;" parent="1" vertex="1">
          <mxGeometry x="517.5" y="380" width="102.5" height="20" as="geometry" />
        </mxCell>
        <mxCell id="0XY4--5X_oFbcHnSFoPR-21" value="&lt;font color=&quot;#ff8000&quot;&gt;对等连接&lt;/font&gt;" style="text;html=1;strokeColor=none;fillColor=none;align=center;verticalAlign=middle;whiteSpace=wrap;rounded=0;dashed=1;dashPattern=1 1;opacity=0;fontStyle=1;fontSize=16;" parent="1" vertex="1">
          <mxGeometry x="660" y="380" width="70" height="20" as="geometry" />
        </mxCell>
        <mxCell id="0XY4--5X_oFbcHnSFoPR-36" value="CTO" style="rounded=0;whiteSpace=wrap;html=1;strokeColor=#9673a6;strokeWidth=3;fillColor=#e1d5e7;fontSize=16;align=center;" parent="1" vertex="1">
          <mxGeometry x="480" y="1000" width="80" height="40" as="geometry" />
        </mxCell>
        <mxCell id="0XY4--5X_oFbcHnSFoPR-37" value="YFB-UCO" style="rounded=0;whiteSpace=wrap;html=1;strokeColor=#d79b00;strokeWidth=3;fillColor=#ffe6cc;fontSize=16;align=center;" parent="1" vertex="1">
          <mxGeometry x="480" y="1080" width="80" height="40" as="geometry" />
        </mxCell>
        <mxCell id="0XY4--5X_oFbcHnSFoPR-38" value="DEV-UCO" style="rounded=0;whiteSpace=wrap;html=1;strokeColor=#b85450;strokeWidth=3;fillColor=#f8cecc;fontSize=16;align=center;" parent="1" vertex="1">
          <mxGeometry x="720" y="1080" width="80" height="40" as="geometry" />
        </mxCell>
        <mxCell id="0XY4--5X_oFbcHnSFoPR-39" value="YFB-TJ" style="rounded=0;whiteSpace=wrap;html=1;strokeColor=#d6b656;strokeWidth=3;fillColor=#fff2cc;fontSize=16;align=center;" parent="1" vertex="1">
          <mxGeometry x="560" y="1160" width="80" height="40" as="geometry" />
        </mxCell>
        <mxCell id="0XY4--5X_oFbcHnSFoPR-40" value="YFB-BJ" style="rounded=0;whiteSpace=wrap;html=1;strokeColor=#9673a6;strokeWidth=3;fillColor=#e1d5e7;fontSize=16;align=center;" parent="1" vertex="1">
          <mxGeometry x="400" y="1160" width="80" height="40" as="geometry" />
        </mxCell>
        <mxCell id="0XY4--5X_oFbcHnSFoPR-41" value="DEV" style="rounded=0;whiteSpace=wrap;html=1;strokeColor=#9673a6;strokeWidth=3;fillColor=#e1d5e7;fontSize=16;align=center;" parent="1" vertex="1">
          <mxGeometry x="720" y="1160" width="80" height="40" as="geometry" />
        </mxCell>
        <mxCell id="0XY4--5X_oFbcHnSFoPR-42" value="" style="endArrow=diamondThin;startArrow=diamondThin;html=1;strokeWidth=2;fontSize=16;fontColor=#0000FF;exitX=0.5;exitY=0;exitDx=0;exitDy=0;entryX=0.5;entryY=1;entryDx=0;entryDy=0;startFill=1;endFill=1;fillColor=#e1d5e7;strokeColor=#9673a6;" parent="1" source="0XY4--5X_oFbcHnSFoPR-40" target="0XY4--5X_oFbcHnSFoPR-36" edge="1">
          <mxGeometry width="50" height="50" relative="1" as="geometry">
            <mxPoint x="790" y="980" as="sourcePoint" />
            <mxPoint x="840" y="930" as="targetPoint" />
            <Array as="points">
              <mxPoint x="470" y="1060" />
            </Array>
          </mxGeometry>
        </mxCell>
        <mxCell id="0XY4--5X_oFbcHnSFoPR-43" value="" style="endArrow=diamondThin;startArrow=diamondThin;html=1;strokeWidth=2;fontSize=16;fontColor=#0000FF;exitX=0.5;exitY=1;exitDx=0;exitDy=0;entryX=0;entryY=1;entryDx=0;entryDy=0;startFill=1;endFill=1;fillColor=#e1d5e7;strokeColor=#9673a6;" parent="1" source="0XY4--5X_oFbcHnSFoPR-40" target="0XY4--5X_oFbcHnSFoPR-41" edge="1">
          <mxGeometry width="50" height="50" relative="1" as="geometry">
            <mxPoint x="450" y="1170" as="sourcePoint" />
            <mxPoint x="530" y="1050" as="targetPoint" />
            <Array as="points">
              <mxPoint x="530" y="1230" />
            </Array>
          </mxGeometry>
        </mxCell>
        <mxCell id="0XY4--5X_oFbcHnSFoPR-44" value="" style="endArrow=diamondThin;startArrow=diamondThin;html=1;strokeWidth=2;fontSize=16;fontColor=#0000FF;exitX=0.75;exitY=1;exitDx=0;exitDy=0;entryX=0;entryY=0;entryDx=0;entryDy=0;startFill=1;endFill=1;fillColor=#e1d5e7;strokeColor=#9673a6;" parent="1" source="0XY4--5X_oFbcHnSFoPR-36" target="0XY4--5X_oFbcHnSFoPR-41" edge="1">
          <mxGeometry width="50" height="50" relative="1" as="geometry">
            <mxPoint x="450" y="1210" as="sourcePoint" />
            <mxPoint x="770" y="1210" as="targetPoint" />
            <Array as="points">
              <mxPoint x="590" y="1060" />
            </Array>
          </mxGeometry>
        </mxCell>
        <mxCell id="0XY4--5X_oFbcHnSFoPR-47" value="CTO" style="rounded=0;whiteSpace=wrap;html=1;strokeColor=#9673a6;strokeWidth=3;fillColor=#e1d5e7;fontSize=16;align=center;" parent="1" vertex="1">
          <mxGeometry x="480" y="1360" width="80" height="40" as="geometry" />
        </mxCell>
        <mxCell id="0XY4--5X_oFbcHnSFoPR-48" value="YFB-UCO" style="rounded=0;whiteSpace=wrap;html=1;strokeColor=#d79b00;strokeWidth=3;fillColor=#ffe6cc;fontSize=16;align=center;" parent="1" vertex="1">
          <mxGeometry x="480" y="1440" width="80" height="40" as="geometry" />
        </mxCell>
        <mxCell id="0XY4--5X_oFbcHnSFoPR-49" value="DEV-UCO" style="rounded=0;whiteSpace=wrap;html=1;strokeColor=#9673a6;strokeWidth=3;fillColor=#e1d5e7;fontSize=16;align=center;" parent="1" vertex="1">
          <mxGeometry x="720" y="1440" width="80" height="40" as="geometry" />
        </mxCell>
        <mxCell id="0XY4--5X_oFbcHnSFoPR-50" value="YFB-TJ" style="rounded=0;whiteSpace=wrap;html=1;strokeColor=#d6b656;strokeWidth=3;fillColor=#fff2cc;fontSize=16;align=center;" parent="1" vertex="1">
          <mxGeometry x="560" y="1520" width="80" height="40" as="geometry" />
        </mxCell>
        <mxCell id="0XY4--5X_oFbcHnSFoPR-51" value="YFB-BJ" style="rounded=0;whiteSpace=wrap;html=1;strokeColor=#9673a6;strokeWidth=3;fillColor=#e1d5e7;fontSize=16;align=center;" parent="1" vertex="1">
          <mxGeometry x="400" y="1520" width="80" height="40" as="geometry" />
        </mxCell>
        <mxCell id="0XY4--5X_oFbcHnSFoPR-52" value="DEV" style="rounded=0;whiteSpace=wrap;html=1;strokeColor=#9673a6;strokeWidth=3;fillColor=#e1d5e7;fontSize=16;align=center;" parent="1" vertex="1">
          <mxGeometry x="720" y="1520" width="80" height="40" as="geometry" />
        </mxCell>
        <mxCell id="0XY4--5X_oFbcHnSFoPR-53" value="" style="endArrow=diamondThin;startArrow=diamondThin;html=1;strokeWidth=2;fontSize=16;fontColor=#0000FF;exitX=0.5;exitY=0;exitDx=0;exitDy=0;entryX=0.5;entryY=1;entryDx=0;entryDy=0;startFill=1;endFill=1;fillColor=#e1d5e7;strokeColor=#9673a6;" parent="1" source="0XY4--5X_oFbcHnSFoPR-51" target="0XY4--5X_oFbcHnSFoPR-47" edge="1">
          <mxGeometry width="50" height="50" relative="1" as="geometry">
            <mxPoint x="790" y="1340" as="sourcePoint" />
            <mxPoint x="840" y="1290" as="targetPoint" />
            <Array as="points">
              <mxPoint x="470" y="1420" />
            </Array>
          </mxGeometry>
        </mxCell>
        <mxCell id="0XY4--5X_oFbcHnSFoPR-54" value="" style="endArrow=diamondThin;startArrow=diamondThin;html=1;strokeWidth=2;fontSize=16;fontColor=#0000FF;exitX=0.5;exitY=1;exitDx=0;exitDy=0;entryX=0;entryY=1;entryDx=0;entryDy=0;startFill=1;endFill=1;fillColor=#e1d5e7;strokeColor=#9673a6;" parent="1" source="0XY4--5X_oFbcHnSFoPR-51" target="0XY4--5X_oFbcHnSFoPR-52" edge="1">
          <mxGeometry width="50" height="50" relative="1" as="geometry">
            <mxPoint x="450" y="1530" as="sourcePoint" />
            <mxPoint x="530" y="1410" as="targetPoint" />
            <Array as="points">
              <mxPoint x="530" y="1590" />
            </Array>
          </mxGeometry>
        </mxCell>
        <mxCell id="0XY4--5X_oFbcHnSFoPR-55" value="" style="endArrow=diamondThin;startArrow=diamondThin;html=1;strokeWidth=2;fontSize=16;fontColor=#0000FF;exitX=0.75;exitY=1;exitDx=0;exitDy=0;entryX=0;entryY=0;entryDx=0;entryDy=0;startFill=1;endFill=1;fillColor=#e1d5e7;strokeColor=#9673a6;" parent="1" source="0XY4--5X_oFbcHnSFoPR-47" target="0XY4--5X_oFbcHnSFoPR-52" edge="1">
          <mxGeometry width="50" height="50" relative="1" as="geometry">
            <mxPoint x="450" y="1570" as="sourcePoint" />
            <mxPoint x="770" y="1570" as="targetPoint" />
            <Array as="points">
              <mxPoint x="590" y="1420" />
            </Array>
          </mxGeometry>
        </mxCell>
        <mxCell id="0XY4--5X_oFbcHnSFoPR-56" value="" style="endArrow=diamondThin;startArrow=diamondThin;html=1;strokeWidth=2;fontSize=16;fontColor=#0000FF;entryX=0.5;entryY=0;entryDx=0;entryDy=0;startFill=1;endFill=1;fillColor=#e1d5e7;strokeColor=#9673a6;exitX=0.5;exitY=1;exitDx=0;exitDy=0;" parent="1" source="0XY4--5X_oFbcHnSFoPR-49" target="0XY4--5X_oFbcHnSFoPR-52" edge="1">
          <mxGeometry width="50" height="50" relative="1" as="geometry">
            <mxPoint x="550" y="1410" as="sourcePoint" />
            <mxPoint x="730" y="1530" as="targetPoint" />
            <Array as="points">
              <mxPoint x="760" y="1500" />
            </Array>
          </mxGeometry>
        </mxCell>
        <mxCell id="0XY4--5X_oFbcHnSFoPR-59" value="" style="rounded=0;whiteSpace=wrap;html=1;strokeColor=#b85450;strokeWidth=3;fillColor=#f8cecc;fontSize=16;align=center;dashed=1;" parent="1" vertex="1">
          <mxGeometry x="700" y="1780" width="120" height="160" as="geometry" />
        </mxCell>
        <mxCell id="0XY4--5X_oFbcHnSFoPR-60" value="CTO" style="rounded=0;whiteSpace=wrap;html=1;strokeColor=#9673a6;strokeWidth=3;fillColor=#e1d5e7;fontSize=16;align=center;" parent="1" vertex="1">
          <mxGeometry x="480" y="1720" width="80" height="40" as="geometry" />
        </mxCell>
        <mxCell id="0XY4--5X_oFbcHnSFoPR-61" value="YFB-UCO" style="rounded=0;whiteSpace=wrap;html=1;strokeColor=#9673a6;strokeWidth=3;fillColor=#e1d5e7;fontSize=16;align=center;" parent="1" vertex="1">
          <mxGeometry x="480" y="1800" width="80" height="40" as="geometry" />
        </mxCell>
        <mxCell id="0XY4--5X_oFbcHnSFoPR-62" value="DEV-UCO" style="rounded=0;whiteSpace=wrap;html=1;strokeColor=#9673a6;strokeWidth=3;fillColor=#e1d5e7;fontSize=16;align=center;" parent="1" vertex="1">
          <mxGeometry x="720" y="1800" width="80" height="40" as="geometry" />
        </mxCell>
        <mxCell id="0XY4--5X_oFbcHnSFoPR-63" value="YFB-TJ" style="rounded=0;whiteSpace=wrap;html=1;strokeColor=#d6b656;strokeWidth=3;fillColor=#fff2cc;fontSize=16;align=center;" parent="1" vertex="1">
          <mxGeometry x="560" y="1880" width="80" height="40" as="geometry" />
        </mxCell>
        <mxCell id="0XY4--5X_oFbcHnSFoPR-64" value="YFB-BJ" style="rounded=0;whiteSpace=wrap;html=1;strokeColor=#9673a6;strokeWidth=3;fillColor=#e1d5e7;fontSize=16;align=center;" parent="1" vertex="1">
          <mxGeometry x="400" y="1880" width="80" height="40" as="geometry" />
        </mxCell>
        <mxCell id="0XY4--5X_oFbcHnSFoPR-65" value="DEV" style="rounded=0;whiteSpace=wrap;html=1;strokeColor=#9673a6;strokeWidth=3;fillColor=#e1d5e7;fontSize=16;align=center;" parent="1" vertex="1">
          <mxGeometry x="720" y="1880" width="80" height="40" as="geometry" />
        </mxCell>
        <mxCell id="0XY4--5X_oFbcHnSFoPR-66" value="" style="endArrow=diamondThin;startArrow=diamondThin;html=1;strokeWidth=2;fontSize=16;fontColor=#0000FF;exitX=0.5;exitY=0;exitDx=0;exitDy=0;entryX=0.5;entryY=1;entryDx=0;entryDy=0;startFill=1;endFill=1;fillColor=#e1d5e7;strokeColor=#9673a6;" parent="1" source="0XY4--5X_oFbcHnSFoPR-64" target="0XY4--5X_oFbcHnSFoPR-60" edge="1">
          <mxGeometry width="50" height="50" relative="1" as="geometry">
            <mxPoint x="790" y="1700" as="sourcePoint" />
            <mxPoint x="840" y="1650" as="targetPoint" />
            <Array as="points">
              <mxPoint x="470" y="1780" />
            </Array>
          </mxGeometry>
        </mxCell>
        <mxCell id="0XY4--5X_oFbcHnSFoPR-67" value="" style="endArrow=diamondThin;startArrow=diamondThin;html=1;strokeWidth=2;fontSize=16;fontColor=#0000FF;exitX=0.5;exitY=1;exitDx=0;exitDy=0;entryX=0.5;entryY=1;entryDx=0;entryDy=0;startFill=1;endFill=1;fillColor=#e1d5e7;strokeColor=#9673a6;" parent="1" source="0XY4--5X_oFbcHnSFoPR-64" target="0XY4--5X_oFbcHnSFoPR-63" edge="1">
          <mxGeometry width="50" height="50" relative="1" as="geometry">
            <mxPoint x="450" y="1890" as="sourcePoint" />
            <mxPoint x="530" y="1770" as="targetPoint" />
            <Array as="points">
              <mxPoint x="530" y="1950" />
            </Array>
          </mxGeometry>
        </mxCell>
        <mxCell id="0XY4--5X_oFbcHnSFoPR-68" value="" style="endArrow=diamondThin;startArrow=diamondThin;html=1;strokeWidth=2;fontSize=16;fontColor=#0000FF;exitX=0.75;exitY=1;exitDx=0;exitDy=0;entryX=0.5;entryY=0;entryDx=0;entryDy=0;startFill=1;endFill=1;fillColor=#e1d5e7;strokeColor=#9673a6;" parent="1" source="0XY4--5X_oFbcHnSFoPR-60" target="0XY4--5X_oFbcHnSFoPR-63" edge="1">
          <mxGeometry width="50" height="50" relative="1" as="geometry">
            <mxPoint x="450" y="1930" as="sourcePoint" />
            <mxPoint x="770" y="1930" as="targetPoint" />
            <Array as="points">
              <mxPoint x="590" y="1780" />
            </Array>
          </mxGeometry>
        </mxCell>
        <mxCell id="0XY4--5X_oFbcHnSFoPR-69" value="" style="endArrow=diamondThin;startArrow=diamondThin;html=1;strokeWidth=2;fontSize=16;fontColor=#0000FF;entryX=0.5;entryY=0;entryDx=0;entryDy=0;startFill=1;endFill=1;fillColor=#e1d5e7;strokeColor=#9673a6;exitX=0.5;exitY=1;exitDx=0;exitDy=0;" parent="1" source="0XY4--5X_oFbcHnSFoPR-62" target="0XY4--5X_oFbcHnSFoPR-65" edge="1">
          <mxGeometry width="50" height="50" relative="1" as="geometry">
            <mxPoint x="550" y="1770" as="sourcePoint" />
            <mxPoint x="730" y="1890" as="targetPoint" />
            <Array as="points">
              <mxPoint x="760" y="1860" />
            </Array>
          </mxGeometry>
        </mxCell>
        <mxCell id="0XY4--5X_oFbcHnSFoPR-71" value="&lt;b&gt;&lt;font color=&quot;#ff0000&quot;&gt;1、A层节点升级Region-AZ架构&lt;/font&gt;&lt;/b&gt;" style="text;html=1;strokeColor=none;fillColor=none;align=center;verticalAlign=middle;whiteSpace=wrap;rounded=0;dashed=1;fontSize=16;" parent="1" vertex="1">
          <mxGeometry x="474.5" y="1250" width="251" height="20" as="geometry" />
        </mxCell>
        <mxCell id="0XY4--5X_oFbcHnSFoPR-72" value="&lt;b&gt;&lt;font color=&quot;#ff0000&quot;&gt;2、开发环境O层升级Region-AZ架构&lt;/font&gt;&lt;/b&gt;" style="text;html=1;strokeColor=none;fillColor=none;align=center;verticalAlign=middle;whiteSpace=wrap;rounded=0;dashed=1;fontSize=16;" parent="1" vertex="1">
          <mxGeometry x="465" y="1610" width="270" height="20" as="geometry" />
        </mxCell>
        <mxCell id="0XY4--5X_oFbcHnSFoPR-73" value="&lt;b&gt;&lt;font color=&quot;#ff0000&quot;&gt;3、预发环境O层升级Region-AZ架构&lt;/font&gt;&lt;/b&gt;" style="text;html=1;strokeColor=none;fillColor=none;align=center;verticalAlign=middle;whiteSpace=wrap;rounded=0;dashed=1;fontSize=16;" parent="1" vertex="1">
          <mxGeometry x="465" y="1970" width="270" height="20" as="geometry" />
        </mxCell>
        <mxCell id="0XY4--5X_oFbcHnSFoPR-76" value="应用3-VPC&amp;nbsp;&amp;nbsp;" style="rounded=0;whiteSpace=wrap;html=1;fillColor=#f8cecc;strokeColor=#b85450;" parent="1" vertex="1">
          <mxGeometry x="250" y="590" width="640" height="40" as="geometry" />
        </mxCell>
        <mxCell id="0XY4--5X_oFbcHnSFoPR-77" value="客户2-VPC&amp;nbsp;&amp;nbsp;" style="rounded=0;whiteSpace=wrap;html=1;fillColor=#f8cecc;strokeColor=#b85450;" parent="1" vertex="1">
          <mxGeometry x="250" y="540" width="640" height="40" as="geometry" />
        </mxCell>
        <mxCell id="0XY4--5X_oFbcHnSFoPR-79" value="TMP-UCO" style="rounded=0;whiteSpace=wrap;html=1;strokeColor=#d79b00;strokeWidth=3;fillColor=#ffe6cc;fontSize=14;align=center;" parent="1" vertex="1">
          <mxGeometry x="1120" y="1000" width="80" height="40" as="geometry" />
        </mxCell>
        <mxCell id="0XY4--5X_oFbcHnSFoPR-80" value="UCA-Center" style="rounded=0;whiteSpace=wrap;html=1;strokeColor=#d79b00;strokeWidth=3;fillColor=#ffe6cc;fontSize=14;align=center;" parent="1" vertex="1">
          <mxGeometry x="1120" y="1080" width="80" height="40" as="geometry" />
        </mxCell>
        <mxCell id="0XY4--5X_oFbcHnSFoPR-81" value="DEV-UCO" style="rounded=0;whiteSpace=wrap;html=1;strokeColor=#b85450;strokeWidth=3;fillColor=#f8cecc;fontSize=14;align=center;" parent="1" vertex="1">
          <mxGeometry x="1360" y="1000" width="80" height="40" as="geometry" />
        </mxCell>
        <mxCell id="0XY4--5X_oFbcHnSFoPR-82" value="DEV" style="rounded=0;whiteSpace=wrap;html=1;strokeColor=#b85450;strokeWidth=3;fillColor=#f8cecc;fontSize=14;align=center;" parent="1" vertex="1">
          <mxGeometry x="1360" y="1160" width="80" height="40" as="geometry" />
        </mxCell>
        <mxCell id="0XY4--5X_oFbcHnSFoPR-83" value="YFB-BJ" style="rounded=0;whiteSpace=wrap;html=1;strokeColor=#d79b00;strokeWidth=3;fillColor=#ffe6cc;fontSize=14;align=center;" parent="1" vertex="1">
          <mxGeometry x="1080" y="1160" width="80" height="40" as="geometry" />
        </mxCell>
        <mxCell id="0XY4--5X_oFbcHnSFoPR-84" value="UCA-Center" style="rounded=0;whiteSpace=wrap;html=1;strokeColor=#b85450;strokeWidth=3;fillColor=#f8cecc;fontSize=14;align=center;" parent="1" vertex="1">
          <mxGeometry x="1360" y="1080" width="80" height="40" as="geometry" />
        </mxCell>
        <mxCell id="0XY4--5X_oFbcHnSFoPR-89" value="1、升级后的A层下新建AZ做多AZ测试" style="text;html=1;strokeColor=none;fillColor=none;align=center;verticalAlign=middle;whiteSpace=wrap;rounded=0;dashed=1;fontSize=12;fontStyle=1;fontColor=#FF0000;" parent="1" vertex="1">
          <mxGeometry x="1520" y="1240" width="110" height="20" as="geometry" />
        </mxCell>
        <mxCell id="0XY4--5X_oFbcHnSFoPR-90" value="2、保留老Region并验证升级到Region-AZ后的业务逻辑" style="text;html=1;strokeColor=none;fillColor=none;align=center;verticalAlign=middle;whiteSpace=wrap;rounded=0;dashed=1;fontSize=12;fontStyle=1;fontColor=#FF0000;" parent="1" vertex="1">
          <mxGeometry x="1640" y="1240" width="160" height="20" as="geometry" />
        </mxCell>
        <mxCell id="0XY4--5X_oFbcHnSFoPR-91" value="DEV-BJ" style="rounded=0;whiteSpace=wrap;html=1;strokeColor=#b85450;strokeWidth=3;fillColor=#f8cecc;fontSize=14;align=center;" parent="1" vertex="1">
          <mxGeometry x="1160" y="1160" width="80" height="40" as="geometry" />
        </mxCell>
        <mxCell id="0XY4--5X_oFbcHnSFoPR-92" value="YFB-UCO" style="rounded=0;whiteSpace=wrap;html=1;strokeColor=#666666;strokeWidth=3;fillColor=#f5f5f5;fontSize=14;align=center;fontColor=#333333;" parent="1" vertex="1">
          <mxGeometry x="1840" y="1000" width="80" height="40" as="geometry" />
        </mxCell>
        <mxCell id="0XY4--5X_oFbcHnSFoPR-93" value="UCA-Center" style="rounded=0;whiteSpace=wrap;html=1;strokeColor=#d6b656;strokeWidth=3;fillColor=#fff2cc;fontSize=14;align=center;" parent="1" vertex="1">
          <mxGeometry x="1600" y="1080" width="80" height="40" as="geometry" />
        </mxCell>
        <mxCell id="0XY4--5X_oFbcHnSFoPR-94" value="UCA-Center" style="rounded=0;whiteSpace=wrap;html=1;strokeColor=#9673a6;strokeWidth=3;fillColor=#e1d5e7;fontSize=14;align=center;" parent="1" vertex="1">
          <mxGeometry x="1840" y="1080" width="80" height="40" as="geometry" />
        </mxCell>
        <mxCell id="0XY4--5X_oFbcHnSFoPR-95" value="YFB" style="rounded=0;whiteSpace=wrap;html=1;strokeColor=#9673a6;strokeWidth=3;fillColor=#e1d5e7;fontSize=14;align=center;" parent="1" vertex="1">
          <mxGeometry x="1840" y="1160" width="80" height="40" as="geometry" />
        </mxCell>
        <mxCell id="0XY4--5X_oFbcHnSFoPR-96" value="CTO" style="rounded=0;whiteSpace=wrap;html=1;strokeColor=#d6b656;strokeWidth=3;fillColor=#fff2cc;fontSize=14;align=center;" parent="1" vertex="1">
          <mxGeometry x="1640" y="1160" width="80" height="40" as="geometry" />
        </mxCell>
        <mxCell id="0XY4--5X_oFbcHnSFoPR-97" value="DEV-CTO" style="rounded=0;whiteSpace=wrap;html=1;strokeColor=#b85450;strokeWidth=3;fillColor=#f8cecc;fontSize=14;align=center;" parent="1" vertex="1">
          <mxGeometry x="1560" y="1160" width="80" height="40" as="geometry" />
        </mxCell>
        <mxCell id="0XY4--5X_oFbcHnSFoPR-98" value="YFB-UCO" style="rounded=0;whiteSpace=wrap;html=1;strokeColor=#9673a6;strokeWidth=3;fillColor=#e1d5e7;fontSize=14;align=center;" parent="1" vertex="1">
          <mxGeometry x="1840" y="1000" width="80" height="40" as="geometry" />
        </mxCell>
        <mxCell id="0XY4--5X_oFbcHnSFoPR-99" value="" style="endArrow=oval;startArrow=oval;html=1;strokeWidth=2;fontSize=14;fontColor=#000000;startFill=1;endFill=1;entryX=0.5;entryY=1;entryDx=0;entryDy=0;exitX=0.5;exitY=0;exitDx=0;exitDy=0;fillColor=#ffe6cc;strokeColor=#d79b00;" parent="1" source="0XY4--5X_oFbcHnSFoPR-80" target="0XY4--5X_oFbcHnSFoPR-79" edge="1">
          <mxGeometry width="50" height="50" relative="1" as="geometry">
            <mxPoint x="1030" y="1100" as="sourcePoint" />
            <mxPoint x="1080" y="1050" as="targetPoint" />
          </mxGeometry>
        </mxCell>
        <mxCell id="0XY4--5X_oFbcHnSFoPR-100" value="" style="endArrow=oval;startArrow=oval;html=1;strokeWidth=2;fontSize=14;fontColor=#000000;startFill=1;endFill=1;entryX=0.5;entryY=1;entryDx=0;entryDy=0;exitX=0.5;exitY=0;exitDx=0;exitDy=0;fillColor=#f8cecc;strokeColor=#b85450;" parent="1" source="0XY4--5X_oFbcHnSFoPR-84" target="0XY4--5X_oFbcHnSFoPR-81" edge="1">
          <mxGeometry width="50" height="50" relative="1" as="geometry">
            <mxPoint x="1170" y="1090.0000000000002" as="sourcePoint" />
            <mxPoint x="1170" y="1050.0000000000002" as="targetPoint" />
          </mxGeometry>
        </mxCell>
        <mxCell id="0XY4--5X_oFbcHnSFoPR-101" value="" style="endArrow=oval;startArrow=oval;html=1;strokeWidth=2;fontSize=14;fontColor=#000000;startFill=1;endFill=1;entryX=0.5;entryY=1;entryDx=0;entryDy=0;exitX=0.5;exitY=0;exitDx=0;exitDy=0;" parent="1" source="0XY4--5X_oFbcHnSFoPR-94" target="0XY4--5X_oFbcHnSFoPR-98" edge="1">
          <mxGeometry width="50" height="50" relative="1" as="geometry">
            <mxPoint x="1410" y="1090.0000000000002" as="sourcePoint" />
            <mxPoint x="1410" y="1050.0000000000002" as="targetPoint" />
          </mxGeometry>
        </mxCell>
        <mxCell id="0XY4--5X_oFbcHnSFoPR-102" value="" style="endArrow=oval;startArrow=oval;html=1;strokeWidth=2;fontSize=14;fontColor=#000000;startFill=1;endFill=1;entryX=0.5;entryY=1;entryDx=0;entryDy=0;exitX=0.5;exitY=0;exitDx=0;exitDy=0;fillColor=#e1d5e7;strokeColor=#9673a6;" parent="1" source="0XY4--5X_oFbcHnSFoPR-93" target="0XY4--5X_oFbcHnSFoPR-98" edge="1">
          <mxGeometry width="50" height="50" relative="1" as="geometry">
            <mxPoint x="1420" y="1100.0000000000002" as="sourcePoint" />
            <mxPoint x="1420" y="1060.0000000000002" as="targetPoint" />
          </mxGeometry>
        </mxCell>
        <mxCell id="0XY4--5X_oFbcHnSFoPR-103" value="" style="endArrow=oval;startArrow=oval;html=1;strokeWidth=2;fontSize=14;fontColor=#000000;startFill=1;endFill=1;entryX=0.5;entryY=0;entryDx=0;entryDy=0;exitX=0.5;exitY=1;exitDx=0;exitDy=0;" parent="1" source="0XY4--5X_oFbcHnSFoPR-84" target="0XY4--5X_oFbcHnSFoPR-82" edge="1">
          <mxGeometry width="50" height="50" relative="1" as="geometry">
            <mxPoint x="1410" y="1090.0000000000002" as="sourcePoint" />
            <mxPoint x="1410" y="1050.0000000000002" as="targetPoint" />
          </mxGeometry>
        </mxCell>
        <mxCell id="0XY4--5X_oFbcHnSFoPR-104" value="" style="endArrow=oval;startArrow=oval;html=1;strokeWidth=2;fontSize=14;fontColor=#000000;startFill=1;endFill=1;entryX=0.5;entryY=1;entryDx=0;entryDy=0;exitX=0.5;exitY=0;exitDx=0;exitDy=0;fillColor=#ffe6cc;strokeColor=#d79b00;" parent="1" source="0XY4--5X_oFbcHnSFoPR-83" target="0XY4--5X_oFbcHnSFoPR-80" edge="1">
          <mxGeometry width="50" height="50" relative="1" as="geometry">
            <mxPoint x="1420" y="1100.0000000000002" as="sourcePoint" />
            <mxPoint x="1420" y="1060.0000000000002" as="targetPoint" />
          </mxGeometry>
        </mxCell>
        <mxCell id="0XY4--5X_oFbcHnSFoPR-105" value="" style="endArrow=oval;startArrow=oval;html=1;strokeWidth=2;fontSize=14;fontColor=#000000;startFill=1;endFill=1;entryX=0.5;entryY=0;entryDx=0;entryDy=0;exitX=0.5;exitY=1;exitDx=0;exitDy=0;" parent="1" source="0XY4--5X_oFbcHnSFoPR-84" target="0XY4--5X_oFbcHnSFoPR-91" edge="1">
          <mxGeometry width="50" height="50" relative="1" as="geometry">
            <mxPoint x="1370" y="1140" as="sourcePoint" />
            <mxPoint x="1430" y="1070.0000000000002" as="targetPoint" />
          </mxGeometry>
        </mxCell>
        <mxCell id="0XY4--5X_oFbcHnSFoPR-106" value="" style="endArrow=oval;startArrow=oval;html=1;strokeWidth=2;fontSize=14;fontColor=#000000;startFill=1;endFill=1;entryX=0.5;entryY=0;entryDx=0;entryDy=0;exitX=0.5;exitY=1;exitDx=0;exitDy=0;" parent="1" source="0XY4--5X_oFbcHnSFoPR-84" target="0XY4--5X_oFbcHnSFoPR-97" edge="1">
          <mxGeometry width="50" height="50" relative="1" as="geometry">
            <mxPoint x="1410" y="1130.0000000000002" as="sourcePoint" />
            <mxPoint x="1210" y="1170.0000000000002" as="targetPoint" />
          </mxGeometry>
        </mxCell>
        <mxCell id="0XY4--5X_oFbcHnSFoPR-107" value="" style="endArrow=oval;startArrow=oval;html=1;strokeWidth=2;fontSize=14;fontColor=#000000;startFill=1;endFill=1;entryX=0.5;entryY=0;entryDx=0;entryDy=0;exitX=0.5;exitY=1;exitDx=0;exitDy=0;fillColor=#fff2cc;strokeColor=#d6b656;" parent="1" source="0XY4--5X_oFbcHnSFoPR-93" target="0XY4--5X_oFbcHnSFoPR-96" edge="1">
          <mxGeometry width="50" height="50" relative="1" as="geometry">
            <mxPoint x="1410" y="1130.0000000000002" as="sourcePoint" />
            <mxPoint x="1610" y="1170.0000000000002" as="targetPoint" />
          </mxGeometry>
        </mxCell>
        <mxCell id="0XY4--5X_oFbcHnSFoPR-108" value="" style="endArrow=oval;startArrow=oval;html=1;strokeWidth=2;fontSize=14;fontColor=#000000;startFill=1;endFill=1;exitX=0.5;exitY=1;exitDx=0;exitDy=0;" parent="1" source="0XY4--5X_oFbcHnSFoPR-94" target="0XY4--5X_oFbcHnSFoPR-95" edge="1">
          <mxGeometry width="50" height="50" relative="1" as="geometry">
            <mxPoint x="1420" y="1140.0000000000002" as="sourcePoint" />
            <mxPoint x="1620" y="1180.0000000000002" as="targetPoint" />
          </mxGeometry>
        </mxCell>
        <mxCell id="0XY4--5X_oFbcHnSFoPR-109" value="" style="endArrow=oval;startArrow=oval;html=1;strokeWidth=2;fontSize=14;fontColor=#000000;startFill=1;endFill=1;exitX=0.5;exitY=1;exitDx=0;exitDy=0;fillColor=#e1d5e7;strokeColor=#9673a6;" parent="1" edge="1">
          <mxGeometry width="50" height="50" relative="1" as="geometry">
            <mxPoint x="1879.58" y="1120.0000000000002" as="sourcePoint" />
            <mxPoint x="1879.58" y="1160.0000000000002" as="targetPoint" />
          </mxGeometry>
        </mxCell>
        <mxCell id="0XY4--5X_oFbcHnSFoPR-110" value="" style="endArrow=oval;startArrow=oval;html=1;strokeWidth=2;fontSize=14;fontColor=#000000;startFill=1;endFill=1;entryX=0.5;entryY=1;entryDx=0;entryDy=0;exitX=0.5;exitY=0;exitDx=0;exitDy=0;fillColor=#e1d5e7;strokeColor=#9673a6;" parent="1" edge="1">
          <mxGeometry width="50" height="50" relative="1" as="geometry">
            <mxPoint x="1879.58" y="1080.0000000000002" as="sourcePoint" />
            <mxPoint x="1879.58" y="1040.0000000000002" as="targetPoint" />
          </mxGeometry>
        </mxCell>
        <mxCell id="0XY4--5X_oFbcHnSFoPR-111" value="" style="endArrow=oval;startArrow=oval;html=1;strokeWidth=2;fontSize=14;fontColor=#000000;startFill=1;endFill=1;entryX=0.5;entryY=0;entryDx=0;entryDy=0;exitX=0.5;exitY=1;exitDx=0;exitDy=0;fillColor=#f8cecc;strokeColor=#b85450;" parent="1" edge="1">
          <mxGeometry width="50" height="50" relative="1" as="geometry">
            <mxPoint x="1400" y="1120.0000000000002" as="sourcePoint" />
            <mxPoint x="1600" y="1160.0000000000002" as="targetPoint" />
          </mxGeometry>
        </mxCell>
        <mxCell id="0XY4--5X_oFbcHnSFoPR-112" value="" style="endArrow=oval;startArrow=oval;html=1;strokeWidth=2;fontSize=14;fontColor=#000000;startFill=1;endFill=1;entryX=0.5;entryY=0;entryDx=0;entryDy=0;exitX=0.5;exitY=1;exitDx=0;exitDy=0;fillColor=#f8cecc;strokeColor=#b85450;" parent="1" edge="1">
          <mxGeometry width="50" height="50" relative="1" as="geometry">
            <mxPoint x="1400" y="1120.0000000000002" as="sourcePoint" />
            <mxPoint x="1400" y="1160.0000000000002" as="targetPoint" />
          </mxGeometry>
        </mxCell>
        <mxCell id="0XY4--5X_oFbcHnSFoPR-113" value="" style="endArrow=oval;startArrow=oval;html=1;strokeWidth=2;fontSize=14;fontColor=#000000;startFill=1;endFill=1;entryX=0.5;entryY=0;entryDx=0;entryDy=0;exitX=0.5;exitY=1;exitDx=0;exitDy=0;fillColor=#f8cecc;strokeColor=#b85450;" parent="1" edge="1">
          <mxGeometry width="50" height="50" relative="1" as="geometry">
            <mxPoint x="1400" y="1120.0000000000002" as="sourcePoint" />
            <mxPoint x="1200" y="1160.0000000000002" as="targetPoint" />
          </mxGeometry>
        </mxCell>
        <mxCell id="0XY4--5X_oFbcHnSFoPR-119" value="代表升级到Region-AZ架构" style="rounded=0;whiteSpace=wrap;html=1;dashed=1;strokeColor=#6c8ebf;strokeWidth=3;fillColor=#dae8fc;fontSize=14;align=center;fontStyle=1" parent="1" vertex="1">
          <mxGeometry x="1070" y="1240" width="180" height="40" as="geometry" />
        </mxCell>
        <mxCell id="VqiHA8Q5cYp8pTYDiDT9-27" style="edgeStyle=orthogonalEdgeStyle;rounded=0;orthogonalLoop=1;jettySize=auto;html=1;exitX=1;exitY=0.5;exitDx=0;exitDy=0;entryX=0;entryY=0.5;entryDx=0;entryDy=0;fontStyle=1;fillColor=#dae8fc;strokeColor=#6c8ebf;strokeWidth=2;" parent="1" source="VqiHA8Q5cYp8pTYDiDT9-6" target="VqiHA8Q5cYp8pTYDiDT9-20" edge="1">
          <mxGeometry relative="1" as="geometry" />
        </mxCell>
        <mxCell id="VqiHA8Q5cYp8pTYDiDT9-6" value="申请/批量申请Unicloud邮箱" style="rounded=0;whiteSpace=wrap;html=1;fontStyle=1;fillColor=#d5e8d4;strokeColor=#82b366;" parent="1" vertex="1">
          <mxGeometry x="2480" y="270" width="80" height="40" as="geometry" />
        </mxCell>
        <mxCell id="VqiHA8Q5cYp8pTYDiDT9-32" value="反馈开通结果" style="edgeStyle=orthogonalEdgeStyle;rounded=0;orthogonalLoop=1;jettySize=auto;html=1;entryX=1;entryY=0.5;entryDx=0;entryDy=0;fontStyle=1;fillColor=#d5e8d4;strokeColor=#82b366;strokeWidth=2;" parent="1" source="VqiHA8Q5cYp8pTYDiDT9-7" target="VqiHA8Q5cYp8pTYDiDT9-25" edge="1">
          <mxGeometry relative="1" as="geometry" />
        </mxCell>
        <mxCell id="VqiHA8Q5cYp8pTYDiDT9-7" value="1、开通邮箱账号&lt;br&gt;2、添加默认群组" style="rounded=0;whiteSpace=wrap;html=1;fontStyle=1;fillColor=#d5e8d4;strokeColor=#82b366;" parent="1" vertex="1">
          <mxGeometry x="2980" y="390" width="120" height="40" as="geometry" />
        </mxCell>
        <mxCell id="VqiHA8Q5cYp8pTYDiDT9-29" style="edgeStyle=orthogonalEdgeStyle;rounded=0;orthogonalLoop=1;jettySize=auto;html=1;entryX=0;entryY=0.5;entryDx=0;entryDy=0;fontStyle=1;fillColor=#dae8fc;strokeColor=#6c8ebf;strokeWidth=2;" parent="1" source="VqiHA8Q5cYp8pTYDiDT9-15" target="VqiHA8Q5cYp8pTYDiDT9-22" edge="1">
          <mxGeometry relative="1" as="geometry" />
        </mxCell>
        <mxCell id="VqiHA8Q5cYp8pTYDiDT9-35" value="反馈审核结果" style="edgeStyle=orthogonalEdgeStyle;rounded=0;orthogonalLoop=1;jettySize=auto;html=1;fontStyle=1;fillColor=#f8cecc;strokeColor=#b85450;entryX=0.5;entryY=1;entryDx=0;entryDy=0;strokeWidth=2;" parent="1" source="VqiHA8Q5cYp8pTYDiDT9-15" target="VqiHA8Q5cYp8pTYDiDT9-21" edge="1">
          <mxGeometry relative="1" as="geometry">
            <mxPoint x="2360" y="320" as="targetPoint" />
            <Array as="points">
              <mxPoint x="2860" y="350" />
              <mxPoint x="2360" y="350" />
            </Array>
          </mxGeometry>
        </mxCell>
        <mxCell id="VqiHA8Q5cYp8pTYDiDT9-15" value="审核申请信息" style="rhombus;whiteSpace=wrap;html=1;fontStyle=1;fillColor=#dae8fc;strokeColor=#6c8ebf;" parent="1" vertex="1">
          <mxGeometry x="2800" y="270" width="120" height="40" as="geometry" />
        </mxCell>
        <mxCell id="VqiHA8Q5cYp8pTYDiDT9-34" value="反馈开通结果" style="edgeStyle=orthogonalEdgeStyle;rounded=0;orthogonalLoop=1;jettySize=auto;html=1;entryX=0.5;entryY=1;entryDx=0;entryDy=0;fontStyle=1;strokeWidth=2;fillColor=#d5e8d4;strokeColor=#82b366;" parent="1" source="VqiHA8Q5cYp8pTYDiDT9-19" target="VqiHA8Q5cYp8pTYDiDT9-21" edge="1">
          <mxGeometry relative="1" as="geometry" />
        </mxCell>
        <mxCell id="VqiHA8Q5cYp8pTYDiDT9-19" value="1、开通禅道账号&lt;br&gt;2、开通Wiki权限" style="rounded=0;whiteSpace=wrap;html=1;fontStyle=1;fillColor=#d5e8d4;strokeColor=#82b366;" parent="1" vertex="1">
          <mxGeometry x="2460" y="390" width="120" height="40" as="geometry" />
        </mxCell>
        <mxCell id="VqiHA8Q5cYp8pTYDiDT9-28" style="edgeStyle=orthogonalEdgeStyle;rounded=0;orthogonalLoop=1;jettySize=auto;html=1;entryX=0;entryY=0.5;entryDx=0;entryDy=0;fontStyle=1;fillColor=#dae8fc;strokeColor=#6c8ebf;strokeWidth=2;" parent="1" source="VqiHA8Q5cYp8pTYDiDT9-20" target="VqiHA8Q5cYp8pTYDiDT9-15" edge="1">
          <mxGeometry relative="1" as="geometry" />
        </mxCell>
        <mxCell id="VqiHA8Q5cYp8pTYDiDT9-20" value="质量与运作组" style="ellipse;whiteSpace=wrap;html=1;fontStyle=1;fillColor=#e1d5e7;strokeColor=#9673a6;" parent="1" vertex="1">
          <mxGeometry x="2640" y="270" width="80" height="40" as="geometry" />
        </mxCell>
        <mxCell id="VqiHA8Q5cYp8pTYDiDT9-26" style="edgeStyle=orthogonalEdgeStyle;rounded=0;orthogonalLoop=1;jettySize=auto;html=1;entryX=0;entryY=0.5;entryDx=0;entryDy=0;fontStyle=1" parent="1" source="VqiHA8Q5cYp8pTYDiDT9-21" target="VqiHA8Q5cYp8pTYDiDT9-6" edge="1">
          <mxGeometry relative="1" as="geometry" />
        </mxCell>
        <mxCell id="VqiHA8Q5cYp8pTYDiDT9-21" value="组长/主管" style="ellipse;whiteSpace=wrap;html=1;fontStyle=1;fillColor=#e1d5e7;strokeColor=#9673a6;" parent="1" vertex="1">
          <mxGeometry x="2320" y="270" width="80" height="40" as="geometry" />
        </mxCell>
        <mxCell id="VqiHA8Q5cYp8pTYDiDT9-31" style="edgeStyle=orthogonalEdgeStyle;rounded=0;orthogonalLoop=1;jettySize=auto;html=1;entryX=0.5;entryY=0;entryDx=0;entryDy=0;fontStyle=1;fillColor=#d5e8d4;strokeColor=#82b366;strokeWidth=2;" parent="1" source="VqiHA8Q5cYp8pTYDiDT9-22" target="VqiHA8Q5cYp8pTYDiDT9-7" edge="1">
          <mxGeometry relative="1" as="geometry" />
        </mxCell>
        <mxCell id="VqiHA8Q5cYp8pTYDiDT9-22" value="紫光云IT部" style="ellipse;whiteSpace=wrap;html=1;fontStyle=1;fillColor=#e1d5e7;strokeColor=#9673a6;" parent="1" vertex="1">
          <mxGeometry x="3000" y="270" width="80" height="40" as="geometry" />
        </mxCell>
        <mxCell id="VqiHA8Q5cYp8pTYDiDT9-33" style="edgeStyle=orthogonalEdgeStyle;rounded=0;orthogonalLoop=1;jettySize=auto;html=1;entryX=1;entryY=0.5;entryDx=0;entryDy=0;fontStyle=1;strokeWidth=2;fillColor=#d5e8d4;strokeColor=#82b366;" parent="1" source="VqiHA8Q5cYp8pTYDiDT9-25" target="VqiHA8Q5cYp8pTYDiDT9-19" edge="1">
          <mxGeometry relative="1" as="geometry" />
        </mxCell>
        <mxCell id="VqiHA8Q5cYp8pTYDiDT9-25" value="质量与运作组" style="ellipse;whiteSpace=wrap;html=1;fontStyle=1;fillColor=#e1d5e7;strokeColor=#9673a6;" parent="1" vertex="1">
          <mxGeometry x="2640" y="390" width="80" height="40" as="geometry" />
        </mxCell>
        <mxCell id="VqiHA8Q5cYp8pTYDiDT9-37" style="edgeStyle=orthogonalEdgeStyle;rounded=0;orthogonalLoop=1;jettySize=auto;html=1;exitX=0.5;exitY=1;exitDx=0;exitDy=0;fontStyle=1" parent="1" edge="1">
          <mxGeometry relative="1" as="geometry">
            <mxPoint x="2855" y="410" as="sourcePoint" />
            <mxPoint x="2855" y="410" as="targetPoint" />
          </mxGeometry>
        </mxCell>
        <mxCell id="VqiHA8Q5cYp8pTYDiDT9-38" value="申请/批量申请研发账号权限" style="rounded=0;whiteSpace=wrap;html=1;fontStyle=1;fillColor=#dae8fc;strokeColor=#6c8ebf;" parent="1" vertex="1">
          <mxGeometry x="2480" y="270" width="80" height="40" as="geometry" />
        </mxCell>
        <mxCell id="VqiHA8Q5cYp8pTYDiDT9-39" value="1、开通禅道账号&lt;br&gt;2、开通Wiki权限" style="rounded=0;whiteSpace=wrap;html=1;fontStyle=1;fillColor=#d5e8d4;strokeColor=#82b366;" parent="1" vertex="1">
          <mxGeometry x="2460" y="390" width="120" height="40" as="geometry" />
        </mxCell>
        <mxCell id="VqiHA8Q5cYp8pTYDiDT9-41" style="edgeStyle=orthogonalEdgeStyle;rounded=0;orthogonalLoop=1;jettySize=auto;html=1;entryX=0;entryY=0.5;entryDx=0;entryDy=0;fontStyle=1;fillColor=#dae8fc;strokeColor=#6c8ebf;strokeWidth=2;" parent="1" edge="1">
          <mxGeometry relative="1" as="geometry">
            <mxPoint x="2400" y="290" as="sourcePoint" />
            <mxPoint x="2480" y="290" as="targetPoint" />
          </mxGeometry>
        </mxCell>
        <mxCell id="VqiHA8Q5cYp8pTYDiDT9-65" value="&lt;b&gt;紫鸾代码仓库权限申请流程&lt;/b&gt;" style="shape=umlFrame;whiteSpace=wrap;html=1;width=180;height=40;fillColor=#FFFFFF;swimlaneFillColor=#ffffff;" parent="1" vertex="1">
          <mxGeometry x="2280" y="520" width="590" height="380" as="geometry" />
        </mxCell>
        <mxCell id="VqiHA8Q5cYp8pTYDiDT9-102" style="edgeStyle=orthogonalEdgeStyle;rounded=0;orthogonalLoop=1;jettySize=auto;html=1;strokeWidth=2;fillColor=#d5e8d4;strokeColor=#82b366;fontStyle=1;entryX=0.5;entryY=1;entryDx=0;entryDy=0;" parent="1" source="VqiHA8Q5cYp8pTYDiDT9-88" target="VqiHA8Q5cYp8pTYDiDT9-89" edge="1">
          <mxGeometry relative="1" as="geometry">
            <mxPoint x="2420" y="630" as="targetPoint" />
          </mxGeometry>
        </mxCell>
        <mxCell id="VqiHA8Q5cYp8pTYDiDT9-88" value="开通代码库权限" style="rounded=0;whiteSpace=wrap;html=1;fontStyle=1;fillColor=#d5e8d4;strokeColor=#82b366;" parent="1" vertex="1">
          <mxGeometry x="2520" y="830" width="120" height="40" as="geometry" />
        </mxCell>
        <mxCell id="VqiHA8Q5cYp8pTYDiDT9-103" value="申请代码库权限" style="edgeStyle=orthogonalEdgeStyle;rounded=0;orthogonalLoop=1;jettySize=auto;html=1;entryX=0;entryY=0.5;entryDx=0;entryDy=0;strokeWidth=2;fillColor=#dae8fc;strokeColor=#6c8ebf;fontStyle=1" parent="1" source="VqiHA8Q5cYp8pTYDiDT9-89" target="VqiHA8Q5cYp8pTYDiDT9-90" edge="1">
          <mxGeometry relative="1" as="geometry" />
        </mxCell>
        <mxCell id="VqiHA8Q5cYp8pTYDiDT9-89" value="申请人" style="ellipse;whiteSpace=wrap;html=1;fontStyle=1;fillColor=#e1d5e7;strokeColor=#9673a6;" parent="1" vertex="1">
          <mxGeometry x="2300" y="590" width="80" height="40" as="geometry" />
        </mxCell>
        <mxCell id="VqiHA8Q5cYp8pTYDiDT9-95" value="yes" style="edgeStyle=orthogonalEdgeStyle;rounded=0;orthogonalLoop=1;jettySize=auto;html=1;entryX=0.5;entryY=0;entryDx=0;entryDy=0;strokeWidth=2;fillColor=#dae8fc;strokeColor=#6c8ebf;fontStyle=1" parent="1" source="VqiHA8Q5cYp8pTYDiDT9-90" target="VqiHA8Q5cYp8pTYDiDT9-93" edge="1">
          <mxGeometry relative="1" as="geometry" />
        </mxCell>
        <mxCell id="VqiHA8Q5cYp8pTYDiDT9-97" value="no" style="edgeStyle=orthogonalEdgeStyle;rounded=0;orthogonalLoop=1;jettySize=auto;html=1;entryX=0;entryY=0.5;entryDx=0;entryDy=0;strokeWidth=2;fillColor=#dae8fc;strokeColor=#6c8ebf;fontStyle=1" parent="1" source="VqiHA8Q5cYp8pTYDiDT9-90" target="VqiHA8Q5cYp8pTYDiDT9-91" edge="1">
          <mxGeometry relative="1" as="geometry" />
        </mxCell>
        <mxCell id="VqiHA8Q5cYp8pTYDiDT9-90" value="GitLab账号" style="rhombus;whiteSpace=wrap;html=1;fontStyle=1;fillColor=#dae8fc;strokeColor=#6c8ebf;" parent="1" vertex="1">
          <mxGeometry x="2520" y="590" width="120" height="40" as="geometry" />
        </mxCell>
        <mxCell id="VqiHA8Q5cYp8pTYDiDT9-98" style="edgeStyle=orthogonalEdgeStyle;rounded=0;orthogonalLoop=1;jettySize=auto;html=1;entryX=0.5;entryY=0;entryDx=0;entryDy=0;strokeWidth=2;fillColor=#dae8fc;strokeColor=#6c8ebf;fontStyle=1" parent="1" source="VqiHA8Q5cYp8pTYDiDT9-91" target="VqiHA8Q5cYp8pTYDiDT9-92" edge="1">
          <mxGeometry relative="1" as="geometry" />
        </mxCell>
        <mxCell id="VqiHA8Q5cYp8pTYDiDT9-91" value="质量与运作组" style="ellipse;whiteSpace=wrap;html=1;fontStyle=1;fillColor=#e1d5e7;strokeColor=#9673a6;" parent="1" vertex="1">
          <mxGeometry x="2740" y="590" width="80" height="40" as="geometry" />
        </mxCell>
        <mxCell id="VqiHA8Q5cYp8pTYDiDT9-99" style="edgeStyle=orthogonalEdgeStyle;rounded=0;orthogonalLoop=1;jettySize=auto;html=1;entryX=1;entryY=0.5;entryDx=0;entryDy=0;strokeWidth=2;fillColor=#dae8fc;strokeColor=#6c8ebf;fontStyle=1" parent="1" source="VqiHA8Q5cYp8pTYDiDT9-92" target="VqiHA8Q5cYp8pTYDiDT9-93" edge="1">
          <mxGeometry relative="1" as="geometry" />
        </mxCell>
        <mxCell id="VqiHA8Q5cYp8pTYDiDT9-92" value="开通GitLab账号" style="rounded=0;whiteSpace=wrap;html=1;fontStyle=1;fillColor=#d5e8d4;strokeColor=#82b366;" parent="1" vertex="1">
          <mxGeometry x="2720" y="670" width="120" height="40" as="geometry" />
        </mxCell>
        <mxCell id="VqiHA8Q5cYp8pTYDiDT9-96" style="edgeStyle=orthogonalEdgeStyle;rounded=0;orthogonalLoop=1;jettySize=auto;html=1;entryX=0.5;entryY=0;entryDx=0;entryDy=0;strokeWidth=2;fillColor=#dae8fc;strokeColor=#6c8ebf;fontStyle=1" parent="1" source="VqiHA8Q5cYp8pTYDiDT9-93" target="VqiHA8Q5cYp8pTYDiDT9-94" edge="1">
          <mxGeometry relative="1" as="geometry" />
        </mxCell>
        <mxCell id="VqiHA8Q5cYp8pTYDiDT9-93" value="代码库Owner" style="ellipse;whiteSpace=wrap;html=1;fontStyle=1;fillColor=#e1d5e7;strokeColor=#9673a6;" parent="1" vertex="1">
          <mxGeometry x="2540" y="670" width="80" height="40" as="geometry" />
        </mxCell>
        <mxCell id="VqiHA8Q5cYp8pTYDiDT9-100" value="yes" style="edgeStyle=orthogonalEdgeStyle;rounded=0;orthogonalLoop=1;jettySize=auto;html=1;entryX=0.5;entryY=0;entryDx=0;entryDy=0;strokeWidth=2;fontStyle=1" parent="1" source="VqiHA8Q5cYp8pTYDiDT9-94" target="VqiHA8Q5cYp8pTYDiDT9-88" edge="1">
          <mxGeometry relative="1" as="geometry" />
        </mxCell>
        <mxCell id="VqiHA8Q5cYp8pTYDiDT9-101" value="反馈开通结果" style="edgeStyle=orthogonalEdgeStyle;rounded=0;orthogonalLoop=1;jettySize=auto;html=1;entryX=0.5;entryY=1;entryDx=0;entryDy=0;strokeWidth=2;fillColor=#f8cecc;strokeColor=#b85450;fontStyle=1" parent="1" source="VqiHA8Q5cYp8pTYDiDT9-94" target="VqiHA8Q5cYp8pTYDiDT9-89" edge="1">
          <mxGeometry relative="1" as="geometry" />
        </mxCell>
        <mxCell id="VqiHA8Q5cYp8pTYDiDT9-94" value="审核申请信息" style="rhombus;whiteSpace=wrap;html=1;fontStyle=1;fillColor=#dae8fc;strokeColor=#6c8ebf;" parent="1" vertex="1">
          <mxGeometry x="2520" y="750" width="120" height="40" as="geometry" />
        </mxCell>
        <mxCell id="VqiHA8Q5cYp8pTYDiDT9-128" style="edgeStyle=orthogonalEdgeStyle;rounded=0;orthogonalLoop=1;jettySize=auto;html=1;strokeWidth=2;endArrow=none;endFill=0;" parent="1" source="VqiHA8Q5cYp8pTYDiDT9-104" target="VqiHA8Q5cYp8pTYDiDT9-105" edge="1">
          <mxGeometry relative="1" as="geometry">
            <Array as="points">
              <mxPoint x="2550" y="1680" />
              <mxPoint x="2430" y="1680" />
            </Array>
          </mxGeometry>
        </mxCell>
        <mxCell id="VqiHA8Q5cYp8pTYDiDT9-129" style="edgeStyle=orthogonalEdgeStyle;rounded=0;orthogonalLoop=1;jettySize=auto;html=1;strokeWidth=2;endArrow=none;endFill=0;" parent="1" source="VqiHA8Q5cYp8pTYDiDT9-104" target="VqiHA8Q5cYp8pTYDiDT9-106" edge="1">
          <mxGeometry relative="1" as="geometry">
            <Array as="points">
              <mxPoint x="2550" y="1680" />
              <mxPoint x="2670" y="1680" />
            </Array>
          </mxGeometry>
        </mxCell>
        <mxCell id="VqiHA8Q5cYp8pTYDiDT9-104" value="Spine" style="rounded=0;whiteSpace=wrap;html=1;strokeColor=#666666;strokeWidth=3;fillColor=#f5f5f5;fontSize=14;align=center;fontColor=#333333;" parent="1" vertex="1">
          <mxGeometry x="2510" y="1600" width="80" height="40" as="geometry" />
        </mxCell>
        <mxCell id="VqiHA8Q5cYp8pTYDiDT9-130" style="edgeStyle=orthogonalEdgeStyle;rounded=0;orthogonalLoop=1;jettySize=auto;html=1;entryX=0.5;entryY=0;entryDx=0;entryDy=0;strokeWidth=2;endArrow=none;endFill=0;" parent="1" source="VqiHA8Q5cYp8pTYDiDT9-105" target="VqiHA8Q5cYp8pTYDiDT9-108" edge="1">
          <mxGeometry relative="1" as="geometry" />
        </mxCell>
        <mxCell id="VqiHA8Q5cYp8pTYDiDT9-131" style="edgeStyle=orthogonalEdgeStyle;rounded=0;orthogonalLoop=1;jettySize=auto;html=1;strokeWidth=2;endArrow=none;endFill=0;" parent="1" source="VqiHA8Q5cYp8pTYDiDT9-105" target="VqiHA8Q5cYp8pTYDiDT9-115" edge="1">
          <mxGeometry relative="1" as="geometry">
            <Array as="points">
              <mxPoint x="2430" y="1780" />
              <mxPoint x="2350" y="1780" />
            </Array>
          </mxGeometry>
        </mxCell>
        <mxCell id="VqiHA8Q5cYp8pTYDiDT9-105" value="业务Leaf" style="rounded=0;whiteSpace=wrap;html=1;strokeColor=#6c8ebf;strokeWidth=3;fillColor=#dae8fc;fontSize=14;align=center;" parent="1" vertex="1">
          <mxGeometry x="2390" y="1720" width="80" height="40" as="geometry" />
        </mxCell>
        <mxCell id="VqiHA8Q5cYp8pTYDiDT9-145" style="edgeStyle=orthogonalEdgeStyle;rounded=0;orthogonalLoop=1;jettySize=auto;html=1;strokeWidth=2;endArrow=none;endFill=0;" parent="1" source="VqiHA8Q5cYp8pTYDiDT9-106" target="VqiHA8Q5cYp8pTYDiDT9-107" edge="1">
          <mxGeometry relative="1" as="geometry" />
        </mxCell>
        <mxCell id="VqiHA8Q5cYp8pTYDiDT9-106" value="存储Leaf" style="rounded=0;whiteSpace=wrap;html=1;strokeColor=#d79b00;strokeWidth=3;fillColor=#ffe6cc;fontSize=14;align=center;" parent="1" vertex="1">
          <mxGeometry x="2630" y="1720" width="80" height="40" as="geometry" />
        </mxCell>
        <mxCell id="VqiHA8Q5cYp8pTYDiDT9-134" style="edgeStyle=orthogonalEdgeStyle;rounded=0;orthogonalLoop=1;jettySize=auto;html=1;entryX=0.5;entryY=0;entryDx=0;entryDy=0;strokeWidth=2;endArrow=none;endFill=0;" parent="1" source="VqiHA8Q5cYp8pTYDiDT9-107" target="VqiHA8Q5cYp8pTYDiDT9-114" edge="1">
          <mxGeometry relative="1" as="geometry" />
        </mxCell>
        <mxCell id="VqiHA8Q5cYp8pTYDiDT9-107" value="Docker&lt;br&gt;CVK-1" style="rounded=0;whiteSpace=wrap;html=1;strokeColor=#b85450;strokeWidth=3;fillColor=#f8cecc;fontSize=14;align=center;" parent="1" vertex="1">
          <mxGeometry x="2640" y="1800" width="60" height="60" as="geometry" />
        </mxCell>
        <mxCell id="VqiHA8Q5cYp8pTYDiDT9-133" style="edgeStyle=orthogonalEdgeStyle;rounded=0;orthogonalLoop=1;jettySize=auto;html=1;entryX=0.5;entryY=0;entryDx=0;entryDy=0;strokeWidth=2;endArrow=none;endFill=0;" parent="1" source="VqiHA8Q5cYp8pTYDiDT9-108" target="VqiHA8Q5cYp8pTYDiDT9-114" edge="1">
          <mxGeometry relative="1" as="geometry">
            <Array as="points">
              <mxPoint x="2430" y="1900" />
              <mxPoint x="2670" y="1900" />
            </Array>
          </mxGeometry>
        </mxCell>
        <mxCell id="VqiHA8Q5cYp8pTYDiDT9-108" value="Compute&lt;br&gt;CVK-2" style="rounded=0;whiteSpace=wrap;html=1;strokeColor=#6c8ebf;strokeWidth=3;fillColor=#dae8fc;fontSize=14;align=center;" parent="1" vertex="1">
          <mxGeometry x="2400" y="1800" width="60" height="60" as="geometry" />
        </mxCell>
        <mxCell id="VqiHA8Q5cYp8pTYDiDT9-135" style="edgeStyle=orthogonalEdgeStyle;rounded=0;orthogonalLoop=1;jettySize=auto;html=1;entryX=0.5;entryY=0;entryDx=0;entryDy=0;strokeWidth=2;endArrow=none;endFill=0;" parent="1" source="VqiHA8Q5cYp8pTYDiDT9-109" target="VqiHA8Q5cYp8pTYDiDT9-114" edge="1">
          <mxGeometry relative="1" as="geometry">
            <Array as="points">
              <mxPoint x="2750" y="1900" />
              <mxPoint x="2670" y="1900" />
            </Array>
          </mxGeometry>
        </mxCell>
        <mxCell id="VqiHA8Q5cYp8pTYDiDT9-109" value="OneStor&lt;br&gt;NAS-1" style="rounded=0;whiteSpace=wrap;html=1;strokeColor=#82b366;strokeWidth=3;fillColor=#d5e8d4;fontSize=14;align=center;" parent="1" vertex="1">
          <mxGeometry x="2720" y="1800" width="60" height="60" as="geometry" />
        </mxCell>
        <mxCell id="VqiHA8Q5cYp8pTYDiDT9-136" style="edgeStyle=orthogonalEdgeStyle;rounded=0;orthogonalLoop=1;jettySize=auto;html=1;entryX=0.5;entryY=0;entryDx=0;entryDy=0;strokeWidth=2;endArrow=none;endFill=0;" parent="1" source="VqiHA8Q5cYp8pTYDiDT9-110" target="VqiHA8Q5cYp8pTYDiDT9-114" edge="1">
          <mxGeometry relative="1" as="geometry">
            <Array as="points">
              <mxPoint x="2830" y="1900" />
              <mxPoint x="2670" y="1900" />
            </Array>
          </mxGeometry>
        </mxCell>
        <mxCell id="VqiHA8Q5cYp8pTYDiDT9-110" value="OneStor&lt;br&gt;NAS-2" style="rounded=0;whiteSpace=wrap;html=1;strokeColor=#82b366;strokeWidth=3;fillColor=#d5e8d4;fontSize=14;align=center;" parent="1" vertex="1">
          <mxGeometry x="2800" y="1800" width="60" height="60" as="geometry" />
        </mxCell>
        <mxCell id="VqiHA8Q5cYp8pTYDiDT9-137" style="edgeStyle=orthogonalEdgeStyle;rounded=0;orthogonalLoop=1;jettySize=auto;html=1;entryX=0.5;entryY=0;entryDx=0;entryDy=0;strokeWidth=2;endArrow=none;endFill=0;" parent="1" source="VqiHA8Q5cYp8pTYDiDT9-111" target="VqiHA8Q5cYp8pTYDiDT9-114" edge="1">
          <mxGeometry relative="1" as="geometry">
            <Array as="points">
              <mxPoint x="2910" y="1900" />
              <mxPoint x="2670" y="1900" />
            </Array>
          </mxGeometry>
        </mxCell>
        <mxCell id="VqiHA8Q5cYp8pTYDiDT9-111" value="OneStor&lt;br&gt;NAS-3" style="rounded=0;whiteSpace=wrap;html=1;strokeColor=#82b366;strokeWidth=3;fillColor=#d5e8d4;fontSize=14;align=center;" parent="1" vertex="1">
          <mxGeometry x="2880" y="1800" width="60" height="60" as="geometry" />
        </mxCell>
        <mxCell id="VqiHA8Q5cYp8pTYDiDT9-138" style="edgeStyle=orthogonalEdgeStyle;rounded=0;orthogonalLoop=1;jettySize=auto;html=1;entryX=0.5;entryY=0;entryDx=0;entryDy=0;strokeWidth=2;endArrow=none;endFill=0;" parent="1" source="VqiHA8Q5cYp8pTYDiDT9-112" target="VqiHA8Q5cYp8pTYDiDT9-114" edge="1">
          <mxGeometry relative="1" as="geometry">
            <Array as="points">
              <mxPoint x="2990" y="1900" />
              <mxPoint x="2670" y="1900" />
            </Array>
          </mxGeometry>
        </mxCell>
        <mxCell id="VqiHA8Q5cYp8pTYDiDT9-112" value="OneStor&lt;br&gt;NAS-4" style="rounded=0;whiteSpace=wrap;html=1;strokeColor=#82b366;strokeWidth=3;fillColor=#d5e8d4;fontSize=14;align=center;" parent="1" vertex="1">
          <mxGeometry x="2960" y="1800" width="60" height="60" as="geometry" />
        </mxCell>
        <mxCell id="VqiHA8Q5cYp8pTYDiDT9-139" style="edgeStyle=orthogonalEdgeStyle;rounded=0;orthogonalLoop=1;jettySize=auto;html=1;entryX=0.5;entryY=0;entryDx=0;entryDy=0;strokeWidth=2;endArrow=none;endFill=0;" parent="1" source="VqiHA8Q5cYp8pTYDiDT9-113" target="VqiHA8Q5cYp8pTYDiDT9-114" edge="1">
          <mxGeometry relative="1" as="geometry">
            <Array as="points">
              <mxPoint x="3070" y="1900" />
              <mxPoint x="2670" y="1900" />
            </Array>
          </mxGeometry>
        </mxCell>
        <mxCell id="VqiHA8Q5cYp8pTYDiDT9-113" value="OneStor&lt;br&gt;NAS-5" style="rounded=0;whiteSpace=wrap;html=1;strokeColor=#82b366;strokeWidth=3;fillColor=#d5e8d4;fontSize=14;align=center;" parent="1" vertex="1">
          <mxGeometry x="3040" y="1800" width="60" height="60" as="geometry" />
        </mxCell>
        <mxCell id="VqiHA8Q5cYp8pTYDiDT9-114" value="存储后端&lt;br&gt;存储管理" style="rounded=0;whiteSpace=wrap;html=1;strokeColor=#d79b00;strokeWidth=3;fillColor=#ffe6cc;fontSize=14;align=center;" parent="1" vertex="1">
          <mxGeometry x="2630" y="1920" width="80" height="40" as="geometry" />
        </mxCell>
        <mxCell id="VqiHA8Q5cYp8pTYDiDT9-132" style="edgeStyle=orthogonalEdgeStyle;rounded=0;orthogonalLoop=1;jettySize=auto;html=1;strokeWidth=2;endArrow=none;endFill=0;" parent="1" source="VqiHA8Q5cYp8pTYDiDT9-115" target="VqiHA8Q5cYp8pTYDiDT9-114" edge="1">
          <mxGeometry relative="1" as="geometry">
            <Array as="points">
              <mxPoint x="2350" y="1900" />
              <mxPoint x="2670" y="1900" />
            </Array>
          </mxGeometry>
        </mxCell>
        <mxCell id="VqiHA8Q5cYp8pTYDiDT9-115" value="Compute&lt;br&gt;CVK-1" style="rounded=0;whiteSpace=wrap;html=1;strokeColor=#6c8ebf;strokeWidth=3;fillColor=#dae8fc;fontSize=14;align=center;" parent="1" vertex="1">
          <mxGeometry x="2320" y="1800" width="60" height="60" as="geometry" />
        </mxCell>
        <mxCell id="VqiHA8Q5cYp8pTYDiDT9-140" style="edgeStyle=orthogonalEdgeStyle;rounded=0;orthogonalLoop=1;jettySize=auto;html=1;entryX=0.5;entryY=1;entryDx=0;entryDy=0;strokeWidth=2;endArrow=none;endFill=0;" parent="1" source="VqiHA8Q5cYp8pTYDiDT9-116" target="VqiHA8Q5cYp8pTYDiDT9-114" edge="1">
          <mxGeometry relative="1" as="geometry" />
        </mxCell>
        <mxCell id="VqiHA8Q5cYp8pTYDiDT9-116" value="3PAR" style="rounded=0;whiteSpace=wrap;html=1;strokeColor=#666666;strokeWidth=3;fillColor=#f5f5f5;fontSize=14;align=center;fontColor=#333333;" parent="1" vertex="1">
          <mxGeometry x="2640" y="2000" width="60" height="60" as="geometry" />
        </mxCell>
        <mxCell id="VqiHA8Q5cYp8pTYDiDT9-144" style="edgeStyle=orthogonalEdgeStyle;rounded=0;orthogonalLoop=1;jettySize=auto;html=1;strokeWidth=2;endArrow=none;endFill=0;" parent="1" source="VqiHA8Q5cYp8pTYDiDT9-117" target="VqiHA8Q5cYp8pTYDiDT9-114" edge="1">
          <mxGeometry relative="1" as="geometry">
            <Array as="points">
              <mxPoint x="2350" y="1980" />
              <mxPoint x="2670" y="1980" />
            </Array>
          </mxGeometry>
        </mxCell>
        <mxCell id="VqiHA8Q5cYp8pTYDiDT9-117" value="OneStor&lt;br&gt;RBD-1" style="rounded=0;whiteSpace=wrap;html=1;strokeColor=#666666;strokeWidth=3;fillColor=#f5f5f5;fontSize=14;align=center;fontColor=#333333;" parent="1" vertex="1">
          <mxGeometry x="2320" y="2000" width="60" height="60" as="geometry" />
        </mxCell>
        <mxCell id="VqiHA8Q5cYp8pTYDiDT9-143" style="edgeStyle=orthogonalEdgeStyle;rounded=0;orthogonalLoop=1;jettySize=auto;html=1;entryX=0.5;entryY=1;entryDx=0;entryDy=0;strokeWidth=2;endArrow=none;endFill=0;" parent="1" source="VqiHA8Q5cYp8pTYDiDT9-118" target="VqiHA8Q5cYp8pTYDiDT9-114" edge="1">
          <mxGeometry relative="1" as="geometry">
            <Array as="points">
              <mxPoint x="2430" y="1980" />
              <mxPoint x="2670" y="1980" />
            </Array>
          </mxGeometry>
        </mxCell>
        <mxCell id="VqiHA8Q5cYp8pTYDiDT9-118" value="OneStor&lt;br&gt;RBD-2" style="rounded=0;whiteSpace=wrap;html=1;strokeColor=#666666;strokeWidth=3;fillColor=#f5f5f5;fontSize=14;align=center;fontColor=#333333;" parent="1" vertex="1">
          <mxGeometry x="2400" y="2000" width="60" height="60" as="geometry" />
        </mxCell>
        <mxCell id="VqiHA8Q5cYp8pTYDiDT9-141" style="edgeStyle=orthogonalEdgeStyle;rounded=0;orthogonalLoop=1;jettySize=auto;html=1;entryX=0.5;entryY=1;entryDx=0;entryDy=0;strokeWidth=2;endArrow=none;endFill=0;" parent="1" source="VqiHA8Q5cYp8pTYDiDT9-119" target="VqiHA8Q5cYp8pTYDiDT9-114" edge="1">
          <mxGeometry relative="1" as="geometry">
            <Array as="points">
              <mxPoint x="2590" y="1980" />
              <mxPoint x="2670" y="1980" />
            </Array>
          </mxGeometry>
        </mxCell>
        <mxCell id="VqiHA8Q5cYp8pTYDiDT9-119" value="OneStor&lt;br&gt;RBD-4" style="rounded=0;whiteSpace=wrap;html=1;strokeColor=#666666;strokeWidth=3;fillColor=#f5f5f5;fontSize=14;align=center;fontColor=#333333;" parent="1" vertex="1">
          <mxGeometry x="2560" y="2000" width="60" height="60" as="geometry" />
        </mxCell>
        <mxCell id="VqiHA8Q5cYp8pTYDiDT9-142" style="edgeStyle=orthogonalEdgeStyle;rounded=0;orthogonalLoop=1;jettySize=auto;html=1;entryX=0.5;entryY=1;entryDx=0;entryDy=0;strokeWidth=2;endArrow=none;endFill=0;" parent="1" source="VqiHA8Q5cYp8pTYDiDT9-120" target="VqiHA8Q5cYp8pTYDiDT9-114" edge="1">
          <mxGeometry relative="1" as="geometry">
            <Array as="points">
              <mxPoint x="2510" y="1980" />
              <mxPoint x="2670" y="1980" />
            </Array>
          </mxGeometry>
        </mxCell>
        <mxCell id="VqiHA8Q5cYp8pTYDiDT9-120" value="OneStor&lt;br&gt;RBD-3" style="rounded=0;whiteSpace=wrap;html=1;strokeColor=#666666;strokeWidth=3;fillColor=#f5f5f5;fontSize=14;align=center;fontColor=#333333;" parent="1" vertex="1">
          <mxGeometry x="2480" y="2000" width="60" height="60" as="geometry" />
        </mxCell>
        <mxCell id="VqiHA8Q5cYp8pTYDiDT9-148" value="Spine" style="rounded=0;whiteSpace=wrap;html=1;strokeColor=#666666;strokeWidth=3;fillColor=#f5f5f5;fontSize=14;align=center;fontColor=#333333;" parent="1" vertex="1">
          <mxGeometry x="2510" y="1600" width="80" height="40" as="geometry" />
        </mxCell>
        <mxCell id="VqiHA8Q5cYp8pTYDiDT9-151" value="业务Leaf" style="rounded=0;whiteSpace=wrap;html=1;strokeColor=#6c8ebf;strokeWidth=3;fillColor=#dae8fc;fontSize=14;align=center;" parent="1" vertex="1">
          <mxGeometry x="2390" y="1720" width="80" height="40" as="geometry" />
        </mxCell>
        <mxCell id="VqiHA8Q5cYp8pTYDiDT9-155" value="Compute&lt;br&gt;CVK-2" style="rounded=0;whiteSpace=wrap;html=1;strokeColor=#6c8ebf;strokeWidth=3;fillColor=#dae8fc;fontSize=14;align=center;" parent="1" vertex="1">
          <mxGeometry x="2400" y="1800" width="60" height="60" as="geometry" />
        </mxCell>
        <mxCell id="VqiHA8Q5cYp8pTYDiDT9-161" value="存储网" style="rounded=0;whiteSpace=wrap;html=1;strokeColor=#d79b00;strokeWidth=3;fillColor=#ffe6cc;fontSize=14;align=center;" parent="1" vertex="1">
          <mxGeometry x="2630" y="1920" width="80" height="40" as="geometry" />
        </mxCell>
        <mxCell id="VqiHA8Q5cYp8pTYDiDT9-163" value="Compute&lt;br&gt;CVK-1" style="rounded=0;whiteSpace=wrap;html=1;strokeColor=#6c8ebf;strokeWidth=3;fillColor=#dae8fc;fontSize=14;align=center;" parent="1" vertex="1">
          <mxGeometry x="2320" y="1800" width="60" height="60" as="geometry" />
        </mxCell>
        <mxCell id="VqiHA8Q5cYp8pTYDiDT9-194" style="edgeStyle=orthogonalEdgeStyle;rounded=0;orthogonalLoop=1;jettySize=auto;html=1;entryX=0.5;entryY=0;entryDx=0;entryDy=0;endArrow=none;endFill=0;strokeWidth=2;" parent="1" source="VqiHA8Q5cYp8pTYDiDT9-165" target="VqiHA8Q5cYp8pTYDiDT9-193" edge="1">
          <mxGeometry relative="1" as="geometry" />
        </mxCell>
        <mxCell id="VqiHA8Q5cYp8pTYDiDT9-165" value="3PAR" style="rounded=0;whiteSpace=wrap;html=1;strokeColor=#666666;strokeWidth=3;fillColor=#f5f5f5;fontSize=14;align=center;fontColor=#333333;" parent="1" vertex="1">
          <mxGeometry x="2640" y="2000" width="60" height="60" as="geometry" />
        </mxCell>
        <mxCell id="VqiHA8Q5cYp8pTYDiDT9-198" style="edgeStyle=orthogonalEdgeStyle;rounded=0;orthogonalLoop=1;jettySize=auto;html=1;endArrow=none;endFill=0;strokeWidth=2;" parent="1" source="VqiHA8Q5cYp8pTYDiDT9-167" target="VqiHA8Q5cYp8pTYDiDT9-193" edge="1">
          <mxGeometry relative="1" as="geometry">
            <Array as="points">
              <mxPoint x="2350" y="2080" />
              <mxPoint x="2670" y="2080" />
            </Array>
          </mxGeometry>
        </mxCell>
        <mxCell id="VqiHA8Q5cYp8pTYDiDT9-167" value="OneStor&lt;br&gt;RBD-1" style="rounded=0;whiteSpace=wrap;html=1;strokeColor=#666666;strokeWidth=3;fillColor=#f5f5f5;fontSize=14;align=center;fontColor=#333333;" parent="1" vertex="1">
          <mxGeometry x="2320" y="2000" width="60" height="60" as="geometry" />
        </mxCell>
        <mxCell id="VqiHA8Q5cYp8pTYDiDT9-197" style="edgeStyle=orthogonalEdgeStyle;rounded=0;orthogonalLoop=1;jettySize=auto;html=1;endArrow=none;endFill=0;strokeWidth=2;" parent="1" source="VqiHA8Q5cYp8pTYDiDT9-169" target="VqiHA8Q5cYp8pTYDiDT9-193" edge="1">
          <mxGeometry relative="1" as="geometry">
            <Array as="points">
              <mxPoint x="2430" y="2080" />
              <mxPoint x="2670" y="2080" />
            </Array>
          </mxGeometry>
        </mxCell>
        <mxCell id="VqiHA8Q5cYp8pTYDiDT9-169" value="OneStor&lt;br&gt;RBD-2" style="rounded=0;whiteSpace=wrap;html=1;strokeColor=#666666;strokeWidth=3;fillColor=#f5f5f5;fontSize=14;align=center;fontColor=#333333;" parent="1" vertex="1">
          <mxGeometry x="2400" y="2000" width="60" height="60" as="geometry" />
        </mxCell>
        <mxCell id="VqiHA8Q5cYp8pTYDiDT9-195" style="edgeStyle=orthogonalEdgeStyle;rounded=0;orthogonalLoop=1;jettySize=auto;html=1;entryX=0.5;entryY=0;entryDx=0;entryDy=0;endArrow=none;endFill=0;strokeWidth=2;" parent="1" source="VqiHA8Q5cYp8pTYDiDT9-171" target="VqiHA8Q5cYp8pTYDiDT9-193" edge="1">
          <mxGeometry relative="1" as="geometry">
            <Array as="points">
              <mxPoint x="2590" y="2080" />
              <mxPoint x="2670" y="2080" />
            </Array>
          </mxGeometry>
        </mxCell>
        <mxCell id="VqiHA8Q5cYp8pTYDiDT9-171" value="OneStor&lt;br&gt;RBD-4" style="rounded=0;whiteSpace=wrap;html=1;strokeColor=#666666;strokeWidth=3;fillColor=#f5f5f5;fontSize=14;align=center;fontColor=#333333;" parent="1" vertex="1">
          <mxGeometry x="2560" y="2000" width="60" height="60" as="geometry" />
        </mxCell>
        <mxCell id="VqiHA8Q5cYp8pTYDiDT9-196" style="edgeStyle=orthogonalEdgeStyle;rounded=0;orthogonalLoop=1;jettySize=auto;html=1;endArrow=none;endFill=0;strokeWidth=2;" parent="1" source="VqiHA8Q5cYp8pTYDiDT9-173" target="VqiHA8Q5cYp8pTYDiDT9-193" edge="1">
          <mxGeometry relative="1" as="geometry">
            <Array as="points">
              <mxPoint x="2510" y="2080" />
              <mxPoint x="2670" y="2080" />
            </Array>
          </mxGeometry>
        </mxCell>
        <mxCell id="VqiHA8Q5cYp8pTYDiDT9-173" value="OneStor&lt;br&gt;RBD-3" style="rounded=0;whiteSpace=wrap;html=1;strokeColor=#666666;strokeWidth=3;fillColor=#f5f5f5;fontSize=14;align=center;fontColor=#333333;" parent="1" vertex="1">
          <mxGeometry x="2480" y="2000" width="60" height="60" as="geometry" />
        </mxCell>
        <mxCell id="VqiHA8Q5cYp8pTYDiDT9-193" value="存储后端" style="rounded=0;whiteSpace=wrap;html=1;strokeColor=#d79b00;strokeWidth=3;fillColor=#ffe6cc;fontSize=14;align=center;" parent="1" vertex="1">
          <mxGeometry x="2630" y="2100" width="80" height="40" as="geometry" />
        </mxCell>
        <mxCell id="VqiHA8Q5cYp8pTYDiDT9-199" value="Border" style="rounded=0;whiteSpace=wrap;html=1;fillColor=#d5e8d4;strokeColor=#82b366;" parent="1" vertex="1">
          <mxGeometry x="1270" y="1865" width="80" height="40" as="geometry" />
        </mxCell>
        <mxCell id="VqiHA8Q5cYp8pTYDiDT9-200" value="vFW" style="rounded=0;whiteSpace=wrap;html=1;fillColor=#FFFFFF;gradientColor=none;" parent="1" vertex="1">
          <mxGeometry x="1310" y="1705" width="80" height="40" as="geometry" />
        </mxCell>
        <mxCell id="VqiHA8Q5cYp8pTYDiDT9-201" value="Spine" style="rounded=0;whiteSpace=wrap;html=1;fillColor=#FFFFFF;gradientColor=none;" parent="1" vertex="1">
          <mxGeometry x="1270" y="1945" width="80" height="40" as="geometry" />
        </mxCell>
        <mxCell id="VqiHA8Q5cYp8pTYDiDT9-202" value="External-VPN" style="rounded=0;whiteSpace=wrap;html=1;fillColor=#f8cecc;strokeColor=#b85450;" parent="1" vertex="1">
          <mxGeometry x="1350" y="1865" width="80" height="40" as="geometry" />
        </mxCell>
        <mxCell id="VqiHA8Q5cYp8pTYDiDT9-204" value="" style="endArrow=classic;html=1;strokeWidth=2;entryX=0.25;entryY=1;entryDx=0;entryDy=0;exitX=0.5;exitY=0;exitDx=0;exitDy=0;fillColor=#d5e8d4;strokeColor=#82b366;endFill=1;" parent="1" source="VqiHA8Q5cYp8pTYDiDT9-199" target="VqiHA8Q5cYp8pTYDiDT9-200" edge="1">
          <mxGeometry width="50" height="50" relative="1" as="geometry">
            <mxPoint x="1300" y="1825" as="sourcePoint" />
            <mxPoint x="1350" y="1775" as="targetPoint" />
          </mxGeometry>
        </mxCell>
        <mxCell id="VqiHA8Q5cYp8pTYDiDT9-205" value="" style="endArrow=none;html=1;strokeWidth=2;entryX=0.75;entryY=1;entryDx=0;entryDy=0;exitX=0.5;exitY=0;exitDx=0;exitDy=0;fillColor=#f8cecc;strokeColor=#b85450;startArrow=classic;startFill=1;" parent="1" source="VqiHA8Q5cYp8pTYDiDT9-202" target="VqiHA8Q5cYp8pTYDiDT9-200" edge="1">
          <mxGeometry width="50" height="50" relative="1" as="geometry">
            <mxPoint x="1320" y="1835" as="sourcePoint" />
            <mxPoint x="1340" y="1755" as="targetPoint" />
          </mxGeometry>
        </mxCell>
        <mxCell id="VqiHA8Q5cYp8pTYDiDT9-206" value="" style="endArrow=classic;html=1;strokeWidth=2;entryX=0.5;entryY=1;entryDx=0;entryDy=0;exitX=0.5;exitY=0;exitDx=0;exitDy=0;endFill=1;" parent="1" source="VqiHA8Q5cYp8pTYDiDT9-201" target="VqiHA8Q5cYp8pTYDiDT9-199" edge="1">
          <mxGeometry width="50" height="50" relative="1" as="geometry">
            <mxPoint x="1320" y="1835" as="sourcePoint" />
            <mxPoint x="1340" y="1755" as="targetPoint" />
          </mxGeometry>
        </mxCell>
        <mxCell id="VqiHA8Q5cYp8pTYDiDT9-207" value="Internet-RT" style="rounded=0;whiteSpace=wrap;html=1;fillColor=#FFFFFF;gradientColor=none;" parent="1" vertex="1">
          <mxGeometry x="1510" y="1865" width="80" height="40" as="geometry" />
        </mxCell>
        <mxCell id="VqiHA8Q5cYp8pTYDiDT9-208" value="" style="endArrow=classic;html=1;strokeWidth=2;entryX=0;entryY=0.5;entryDx=0;entryDy=0;exitX=1;exitY=0.5;exitDx=0;exitDy=0;endFill=1;" parent="1" source="VqiHA8Q5cYp8pTYDiDT9-202" target="VqiHA8Q5cYp8pTYDiDT9-207" edge="1">
          <mxGeometry width="50" height="50" relative="1" as="geometry">
            <mxPoint x="1400" y="1835" as="sourcePoint" />
            <mxPoint x="1380" y="1755" as="targetPoint" />
          </mxGeometry>
        </mxCell>
        <mxCell id="VqiHA8Q5cYp8pTYDiDT9-209" value="安全外网" style="text;html=1;strokeColor=#b85450;fillColor=#f8cecc;align=center;verticalAlign=middle;whiteSpace=wrap;rounded=0;" parent="1" vertex="1">
          <mxGeometry x="1380" y="1785" width="50" height="20" as="geometry" />
        </mxCell>
        <mxCell id="VqiHA8Q5cYp8pTYDiDT9-210" value="OUT-Mgmt" style="rounded=0;whiteSpace=wrap;html=1;fillColor=#e1d5e7;strokeColor=#9673a6;" parent="1" vertex="1">
          <mxGeometry x="1110" y="1825" width="80" height="40" as="geometry" />
        </mxCell>
        <mxCell id="VqiHA8Q5cYp8pTYDiDT9-211" value="" style="endArrow=none;html=1;strokeWidth=2;entryX=0;entryY=0.75;entryDx=0;entryDy=0;exitX=0.75;exitY=0;exitDx=0;exitDy=0;fillColor=#e1d5e7;strokeColor=#9673a6;" parent="1" source="VqiHA8Q5cYp8pTYDiDT9-210" target="VqiHA8Q5cYp8pTYDiDT9-200" edge="1">
          <mxGeometry width="50" height="50" relative="1" as="geometry">
            <mxPoint x="1320" y="1835" as="sourcePoint" />
            <mxPoint x="1340" y="1755" as="targetPoint" />
          </mxGeometry>
        </mxCell>
        <mxCell id="VqiHA8Q5cYp8pTYDiDT9-212" value="虚拟设备管理网" style="text;html=1;strokeColor=#9673a6;fillColor=#e1d5e7;align=center;verticalAlign=middle;whiteSpace=wrap;rounded=0;" parent="1" vertex="1">
          <mxGeometry x="1150" y="1765" width="90" height="20" as="geometry" />
        </mxCell>
        <mxCell id="VqiHA8Q5cYp8pTYDiDT9-213" value="租户承载网" style="text;html=1;strokeColor=#82b366;fillColor=#d5e8d4;align=center;verticalAlign=middle;whiteSpace=wrap;rounded=0;" parent="1" vertex="1">
          <mxGeometry x="1250" y="1785" width="70" height="20" as="geometry" />
        </mxCell>
        <mxCell id="VqiHA8Q5cYp8pTYDiDT9-218" value="0.管理虚拟防火墙，下发VFW配置" style="text;html=1;strokeColor=none;fillColor=none;align=center;verticalAlign=middle;whiteSpace=wrap;rounded=0;" parent="1" vertex="1">
          <mxGeometry x="1050" y="1745" width="190" height="20" as="geometry" />
        </mxCell>
        <mxCell id="VqiHA8Q5cYp8pTYDiDT9-219" value="1、租户流量从Border解vxlan封装后流量通过vlanif点对点发到vFW" style="text;html=1;strokeColor=none;fillColor=none;align=center;verticalAlign=middle;whiteSpace=wrap;rounded=0;" parent="1" vertex="1">
          <mxGeometry x="1195" y="1815" width="185" height="20" as="geometry" />
        </mxCell>
        <mxCell id="VqiHA8Q5cYp8pTYDiDT9-220" value="2、租户流量在VFW做NAT映射后流量通过安全外网走External-VPN通往外网（External-VPN用来在Border上隔离内外网流量）" style="text;html=1;strokeColor=none;fillColor=none;align=center;verticalAlign=middle;whiteSpace=wrap;rounded=0;" parent="1" vertex="1">
          <mxGeometry x="1380" y="1755" width="340" height="20" as="geometry" />
        </mxCell>
        <mxCell id="VqiHA8Q5cYp8pTYDiDT9-224" value="UniStack&lt;br style=&quot;font-size: 12px;&quot;&gt;-Compute" style="rounded=0;whiteSpace=wrap;html=1;strokeColor=#666666;strokeWidth=3;fillColor=#f5f5f5;fontSize=12;align=center;fontColor=#333333;fontFamily=Lucida Console;" parent="1" vertex="1">
          <mxGeometry x="1840" y="2560" width="80" height="80" as="geometry" />
        </mxCell>
        <mxCell id="VqiHA8Q5cYp8pTYDiDT9-225" value="UniStack&lt;br style=&quot;font-size: 12px&quot;&gt;-Network" style="rounded=0;whiteSpace=wrap;html=1;strokeColor=#666666;strokeWidth=3;fillColor=#f5f5f5;fontSize=12;align=center;fontColor=#333333;fontFamily=Lucida Console;" parent="1" vertex="1">
          <mxGeometry x="2080" y="2560" width="80" height="80" as="geometry" />
        </mxCell>
        <mxCell id="VqiHA8Q5cYp8pTYDiDT9-226" value="UniStack&lt;br style=&quot;font-size: 12px;&quot;&gt;-Storage" style="rounded=0;whiteSpace=wrap;html=1;strokeColor=#666666;strokeWidth=3;fillColor=#f5f5f5;fontSize=12;align=center;fontColor=#333333;fontFamily=Lucida Console;" parent="1" vertex="1">
          <mxGeometry x="1960" y="2560" width="80" height="80" as="geometry" />
        </mxCell>
        <mxCell id="VqiHA8Q5cYp8pTYDiDT9-227" value="POD&lt;br style=&quot;font-size: 12px;&quot;&gt;-Compute" style="rounded=0;whiteSpace=wrap;html=1;strokeColor=#b85450;strokeWidth=3;fillColor=#f8cecc;fontSize=12;align=center;fontFamily=Lucida Console;" parent="1" vertex="1">
          <mxGeometry x="1840" y="2660" width="80" height="80" as="geometry" />
        </mxCell>
        <mxCell id="VqiHA8Q5cYp8pTYDiDT9-228" value="POD&lt;br style=&quot;font-size: 12px;&quot;&gt;-Network" style="rounded=0;whiteSpace=wrap;html=1;strokeColor=#b85450;strokeWidth=3;fillColor=#f8cecc;fontSize=12;align=center;fontFamily=Lucida Console;" parent="1" vertex="1">
          <mxGeometry x="2080" y="2660" width="80" height="80" as="geometry" />
        </mxCell>
        <mxCell id="VqiHA8Q5cYp8pTYDiDT9-229" value="UniStack&lt;br style=&quot;font-size: 12px;&quot;&gt;-Manager" style="rounded=0;whiteSpace=wrap;html=1;strokeColor=#666666;strokeWidth=3;fillColor=#f5f5f5;fontSize=12;align=center;fontColor=#333333;fontFamily=Lucida Console;" parent="1" vertex="1">
          <mxGeometry x="1720" y="2560" width="80" height="80" as="geometry" />
        </mxCell>
        <mxCell id="VqiHA8Q5cYp8pTYDiDT9-231" value="POD&lt;br style=&quot;font-size: 12px;&quot;&gt;-Manager" style="rounded=0;whiteSpace=wrap;html=1;strokeColor=#b85450;strokeWidth=3;fillColor=#f8cecc;fontSize=12;align=center;fontFamily=Lucida Console;" parent="1" vertex="1">
          <mxGeometry x="1720" y="2660" width="80" height="80" as="geometry" />
        </mxCell>
        <mxCell id="VqiHA8Q5cYp8pTYDiDT9-232" value="POD&lt;br style=&quot;font-size: 12px;&quot;&gt;-Storage" style="rounded=0;whiteSpace=wrap;html=1;strokeColor=#b85450;strokeWidth=3;fillColor=#f8cecc;fontSize=12;align=center;fontFamily=Lucida Console;" parent="1" vertex="1">
          <mxGeometry x="1960" y="2660" width="80" height="80" as="geometry" />
        </mxCell>
        <mxCell id="VqiHA8Q5cYp8pTYDiDT9-233" value="UniStack&lt;br style=&quot;font-size: 12px;&quot;&gt;-OMC" style="rounded=0;whiteSpace=wrap;html=1;strokeColor=#666666;strokeWidth=3;fillColor=#f5f5f5;fontSize=12;align=center;fontColor=#333333;fontFamily=Lucida Console;" parent="1" vertex="1">
          <mxGeometry x="1720" y="2510" width="80" height="40" as="geometry" />
        </mxCell>
        <mxCell id="VqiHA8Q5cYp8pTYDiDT9-234" value="UniStack&lt;br style=&quot;font-size: 12px;&quot;&gt;-OPC" style="rounded=0;whiteSpace=wrap;html=1;strokeColor=#666666;strokeWidth=3;fillColor=#f5f5f5;fontSize=12;align=center;fontColor=#333333;fontFamily=Lucida Console;" parent="1" vertex="1">
          <mxGeometry x="1720" y="2460" width="80" height="40" as="geometry" />
        </mxCell>
        <mxCell id="VqiHA8Q5cYp8pTYDiDT9-235" value="UniStack&lt;br style=&quot;font-size: 12px;&quot;&gt;-BMS" style="rounded=0;whiteSpace=wrap;html=1;strokeColor=#666666;strokeWidth=3;fillColor=#f5f5f5;fontSize=12;align=center;fontColor=#333333;fontFamily=Lucida Console;" parent="1" vertex="1">
          <mxGeometry x="1840" y="2510" width="80" height="40" as="geometry" />
        </mxCell>
        <mxCell id="VqiHA8Q5cYp8pTYDiDT9-236" value="UniStack&lt;br style=&quot;font-size: 12px;&quot;&gt;-CCE" style="rounded=0;whiteSpace=wrap;html=1;strokeColor=#666666;strokeWidth=3;fillColor=#f5f5f5;fontSize=12;align=center;fontColor=#333333;fontFamily=Lucida Console;" parent="1" vertex="1">
          <mxGeometry x="1840" y="2460" width="80" height="40" as="geometry" />
        </mxCell>
        <mxCell id="VqiHA8Q5cYp8pTYDiDT9-237" value="UniStack&lt;br style=&quot;font-size: 12px;&quot;&gt;-RDS" style="rounded=0;whiteSpace=wrap;html=1;strokeColor=#666666;strokeWidth=3;fillColor=#f5f5f5;fontSize=12;align=center;fontColor=#333333;fontFamily=Lucida Console;" parent="1" vertex="1">
          <mxGeometry x="1840" y="2410" width="80" height="40" as="geometry" />
        </mxCell>
        <mxCell id="VqiHA8Q5cYp8pTYDiDT9-238" value="UniStack&lt;br style=&quot;font-size: 12px;&quot;&gt;-OSS" style="rounded=0;whiteSpace=wrap;html=1;strokeColor=#666666;strokeWidth=3;fillColor=#f5f5f5;fontSize=12;align=center;fontColor=#333333;fontFamily=Lucida Console;" parent="1" vertex="1">
          <mxGeometry x="1960" y="2510" width="80" height="40" as="geometry" />
        </mxCell>
        <mxCell id="VqiHA8Q5cYp8pTYDiDT9-239" value="UniStack&lt;br style=&quot;font-size: 12px;&quot;&gt;-NAS" style="rounded=0;whiteSpace=wrap;html=1;strokeColor=#666666;strokeWidth=3;fillColor=#f5f5f5;fontSize=12;align=center;fontColor=#333333;fontFamily=Lucida Console;" parent="1" vertex="1">
          <mxGeometry x="1960" y="2460" width="80" height="40" as="geometry" />
        </mxCell>
        <mxCell id="VqiHA8Q5cYp8pTYDiDT9-240" value="UniStack&lt;br style=&quot;font-size: 12px;&quot;&gt;-SLB" style="rounded=0;whiteSpace=wrap;html=1;strokeColor=#666666;strokeWidth=3;fillColor=#f5f5f5;fontSize=12;align=center;fontColor=#333333;fontFamily=Lucida Console;" parent="1" vertex="1">
          <mxGeometry x="2080" y="2510" width="80" height="40" as="geometry" />
        </mxCell>
        <mxCell id="VqiHA8Q5cYp8pTYDiDT9-241" value="UniStack&lt;br style=&quot;font-size: 12px;&quot;&gt;-NAT" style="rounded=0;whiteSpace=wrap;html=1;strokeColor=#666666;strokeWidth=3;fillColor=#f5f5f5;fontSize=12;align=center;fontColor=#333333;fontFamily=Lucida Console;" parent="1" vertex="1">
          <mxGeometry x="2080" y="2460" width="80" height="40" as="geometry" />
        </mxCell>
        <mxCell id="VqiHA8Q5cYp8pTYDiDT9-242" value="UniStack&lt;br style=&quot;font-size: 12px;&quot;&gt;-VPN" style="rounded=0;whiteSpace=wrap;html=1;strokeColor=#666666;strokeWidth=3;fillColor=#f5f5f5;fontSize=12;align=center;fontColor=#333333;fontFamily=Lucida Console;" parent="1" vertex="1">
          <mxGeometry x="2080" y="2410" width="80" height="40" as="geometry" />
        </mxCell>
        <mxCell id="VqiHA8Q5cYp8pTYDiDT9-243" value="POD&lt;br style=&quot;font-size: 12px;&quot;&gt;-RDS" style="rounded=0;whiteSpace=wrap;html=1;strokeColor=#666666;strokeWidth=3;fillColor=#f5f5f5;fontSize=12;align=center;fontColor=#333333;fontFamily=Lucida Console;" parent="1" vertex="1">
          <mxGeometry x="1840" y="2750" width="80" height="40" as="geometry" />
        </mxCell>
        <mxCell id="VqiHA8Q5cYp8pTYDiDT9-244" value="POD&lt;br style=&quot;font-size: 12px;&quot;&gt;-CCE" style="rounded=0;whiteSpace=wrap;html=1;strokeColor=#666666;strokeWidth=3;fillColor=#f5f5f5;fontSize=12;align=center;fontColor=#333333;fontFamily=Lucida Console;" parent="1" vertex="1">
          <mxGeometry x="1840" y="2800" width="80" height="40" as="geometry" />
        </mxCell>
        <mxCell id="VqiHA8Q5cYp8pTYDiDT9-245" value="POD&lt;br style=&quot;font-size: 12px;&quot;&gt;-BMS" style="rounded=0;whiteSpace=wrap;html=1;strokeColor=#666666;strokeWidth=3;fillColor=#f5f5f5;fontSize=12;align=center;fontColor=#333333;fontFamily=Lucida Console;" parent="1" vertex="1">
          <mxGeometry x="1840" y="2850" width="80" height="40" as="geometry" />
        </mxCell>
        <mxCell id="VqiHA8Q5cYp8pTYDiDT9-246" value="POD&lt;br style=&quot;font-size: 12px;&quot;&gt;-NAS" style="rounded=0;whiteSpace=wrap;html=1;strokeColor=#666666;strokeWidth=3;fillColor=#f5f5f5;fontSize=12;align=center;fontColor=#333333;fontFamily=Lucida Console;" parent="1" vertex="1">
          <mxGeometry x="1960" y="2750" width="80" height="40" as="geometry" />
        </mxCell>
        <mxCell id="VqiHA8Q5cYp8pTYDiDT9-247" value="POD&lt;br style=&quot;font-size: 12px;&quot;&gt;-OSS" style="rounded=0;whiteSpace=wrap;html=1;strokeColor=#666666;strokeWidth=3;fillColor=#f5f5f5;fontSize=12;align=center;fontColor=#333333;fontFamily=Lucida Console;" parent="1" vertex="1">
          <mxGeometry x="1960" y="2800" width="80" height="40" as="geometry" />
        </mxCell>
        <mxCell id="VqiHA8Q5cYp8pTYDiDT9-248" value="POD&lt;br style=&quot;font-size: 12px;&quot;&gt;-Internet" style="rounded=0;whiteSpace=wrap;html=1;strokeColor=#666666;strokeWidth=3;fillColor=#f5f5f5;fontSize=12;align=center;fontColor=#333333;fontFamily=Lucida Console;" parent="1" vertex="1">
          <mxGeometry x="2080" y="2750" width="80" height="40" as="geometry" />
        </mxCell>
        <mxCell id="VqiHA8Q5cYp8pTYDiDT9-249" value="POD&lt;br style=&quot;font-size: 12px;&quot;&gt;-Intranet" style="rounded=0;whiteSpace=wrap;html=1;strokeColor=#666666;strokeWidth=3;fillColor=#f5f5f5;fontSize=12;align=center;fontColor=#333333;fontFamily=Lucida Console;" parent="1" vertex="1">
          <mxGeometry x="2080" y="2800" width="80" height="40" as="geometry" />
        </mxCell>
        <mxCell id="VqiHA8Q5cYp8pTYDiDT9-250" value="POD&lt;br style=&quot;font-size: 12px;&quot;&gt;-LeaseLine" style="rounded=0;whiteSpace=wrap;html=1;strokeColor=#666666;strokeWidth=3;fillColor=#f5f5f5;fontSize=12;align=center;fontColor=#333333;fontFamily=Lucida Console;" parent="1" vertex="1">
          <mxGeometry x="2080" y="2850" width="80" height="40" as="geometry" />
        </mxCell>
        <mxCell id="VqiHA8Q5cYp8pTYDiDT9-251" value="POD&lt;br style=&quot;font-size: 12px&quot;&gt;-DCI" style="rounded=0;whiteSpace=wrap;html=1;strokeColor=#666666;strokeWidth=3;fillColor=#f5f5f5;fontSize=12;align=center;fontColor=#333333;fontFamily=Lucida Console;" parent="1" vertex="1">
          <mxGeometry x="2080" y="2900" width="80" height="40" as="geometry" />
        </mxCell>
        <mxCell id="VqiHA8Q5cYp8pTYDiDT9-252" value="" style="endArrow=none;dashed=1;html=1;strokeWidth=2;fontFamily=Lucida Console;fontSize=12;fillColor=#f5f5f5;strokeColor=#666666;" parent="1" edge="1">
          <mxGeometry width="50" height="50" relative="1" as="geometry">
            <mxPoint x="1680" y="2650" as="sourcePoint" />
            <mxPoint x="2200" y="2650" as="targetPoint" />
          </mxGeometry>
        </mxCell>
        <mxCell id="VqiHA8Q5cYp8pTYDiDT9-253" value="&lt;div&gt;POD&lt;/div&gt;&lt;div&gt;-Assistant&lt;/div&gt;" style="rounded=0;whiteSpace=wrap;html=1;strokeColor=#666666;strokeWidth=3;fillColor=#f5f5f5;fontSize=12;align=center;fontColor=#333333;fontFamily=Lucida Console;" parent="1" vertex="1">
          <mxGeometry x="1720" y="2750" width="80" height="40" as="geometry" />
        </mxCell>
        <mxCell id="VqiHA8Q5cYp8pTYDiDT9-255" value="UniStack&lt;br style=&quot;font-size: 12px;&quot;&gt;-Manager" style="rounded=0;whiteSpace=wrap;html=1;strokeColor=#9673a6;strokeWidth=3;fillColor=#e1d5e7;fontSize=12;align=center;fontFamily=Lucida Console;" parent="1" vertex="1">
          <mxGeometry x="1720" y="2560" width="80" height="80" as="geometry" />
        </mxCell>
        <mxCell id="VqiHA8Q5cYp8pTYDiDT9-256" value="UniStack&lt;br style=&quot;font-size: 12px;&quot;&gt;-Compute" style="rounded=0;whiteSpace=wrap;html=1;strokeColor=#9673a6;strokeWidth=3;fillColor=#e1d5e7;fontSize=12;align=center;fontFamily=Lucida Console;" parent="1" vertex="1">
          <mxGeometry x="1840" y="2560" width="80" height="80" as="geometry" />
        </mxCell>
        <mxCell id="VqiHA8Q5cYp8pTYDiDT9-257" value="UniStack&lt;br style=&quot;font-size: 12px;&quot;&gt;-Storage" style="rounded=0;whiteSpace=wrap;html=1;strokeColor=#9673a6;strokeWidth=3;fillColor=#e1d5e7;fontSize=12;align=center;fontFamily=Lucida Console;" parent="1" vertex="1">
          <mxGeometry x="1960" y="2560" width="80" height="80" as="geometry" />
        </mxCell>
        <mxCell id="VqiHA8Q5cYp8pTYDiDT9-258" value="UniStack&lt;br style=&quot;font-size: 12px&quot;&gt;-Network" style="rounded=0;whiteSpace=wrap;html=1;strokeColor=#9673a6;strokeWidth=3;fillColor=#e1d5e7;fontSize=12;align=center;fontFamily=Lucida Console;" parent="1" vertex="1">
          <mxGeometry x="2080" y="2560" width="80" height="80" as="geometry" />
        </mxCell>
        <mxCell id="VqiHA8Q5cYp8pTYDiDT9-259" style="edgeStyle=orthogonalEdgeStyle;rounded=0;orthogonalLoop=1;jettySize=auto;html=1;strokeWidth=2;endArrow=none;endFill=0;fillColor=#f5f5f5;strokeColor=#666666;fontFamily=Lucida Console;entryX=0.5;entryY=0;entryDx=0;entryDy=0;" parent="1" source="VqiHA8Q5cYp8pTYDiDT9-261" target="VqiHA8Q5cYp8pTYDiDT9-295" edge="1">
          <mxGeometry relative="1" as="geometry">
            <Array as="points">
              <mxPoint x="2470" y="2500" />
            </Array>
            <mxPoint x="2470" y="2520" as="targetPoint" />
          </mxGeometry>
        </mxCell>
        <mxCell id="VqiHA8Q5cYp8pTYDiDT9-261" value="Spine" style="rounded=0;whiteSpace=wrap;html=1;strokeColor=#666666;strokeWidth=3;fillColor=#f5f5f5;fontSize=14;align=center;fontColor=#333333;fontFamily=Lucida Console;" parent="1" vertex="1">
          <mxGeometry x="2320" y="2480" width="80" height="40" as="geometry" />
        </mxCell>
        <mxCell id="VqiHA8Q5cYp8pTYDiDT9-262" style="edgeStyle=orthogonalEdgeStyle;rounded=0;orthogonalLoop=1;jettySize=auto;html=1;entryX=0.5;entryY=0;entryDx=0;entryDy=0;strokeWidth=2;endArrow=none;endFill=0;fillColor=#f5f5f5;strokeColor=#666666;fontFamily=Lucida Console;" parent="1" target="VqiHA8Q5cYp8pTYDiDT9-270" edge="1">
          <mxGeometry relative="1" as="geometry">
            <mxPoint x="2470" y="2560" as="sourcePoint" />
          </mxGeometry>
        </mxCell>
        <mxCell id="VqiHA8Q5cYp8pTYDiDT9-265" style="edgeStyle=orthogonalEdgeStyle;rounded=0;orthogonalLoop=1;jettySize=auto;html=1;strokeWidth=2;endArrow=none;endFill=0;fillColor=#f5f5f5;strokeColor=#666666;fontFamily=Lucida Console;" parent="1" source="VqiHA8Q5cYp8pTYDiDT9-266" target="VqiHA8Q5cYp8pTYDiDT9-268" edge="1">
          <mxGeometry relative="1" as="geometry" />
        </mxCell>
        <mxCell id="VqiHA8Q5cYp8pTYDiDT9-266" value="Leaf" style="rounded=0;whiteSpace=wrap;html=1;strokeColor=#666666;strokeWidth=3;fontSize=14;align=center;fontColor=#333333;fontFamily=Lucida Console;" parent="1" vertex="1">
          <mxGeometry x="2770" y="2540" width="80" height="20" as="geometry" />
        </mxCell>
        <mxCell id="VqiHA8Q5cYp8pTYDiDT9-268" value="&lt;span&gt;VPC-1&lt;/span&gt;" style="rounded=0;whiteSpace=wrap;html=1;strokeColor=#666666;strokeWidth=3;fontSize=14;align=center;fontColor=#333333;fontFamily=Lucida Console;" parent="1" vertex="1">
          <mxGeometry x="2780" y="2600" width="60" height="60" as="geometry" />
        </mxCell>
        <mxCell id="VqiHA8Q5cYp8pTYDiDT9-270" value="Compute&lt;br&gt;CVK-2" style="rounded=0;whiteSpace=wrap;html=1;strokeColor=#666666;strokeWidth=3;fillColor=#f5f5f5;fontSize=14;align=center;fontColor=#333333;fontFamily=Lucida Console;" parent="1" vertex="1">
          <mxGeometry x="2440" y="2600" width="60" height="60" as="geometry" />
        </mxCell>
        <mxCell id="VqiHA8Q5cYp8pTYDiDT9-272" value="VPC-2" style="rounded=0;whiteSpace=wrap;html=1;strokeColor=#666666;strokeWidth=3;fontSize=14;align=center;fontColor=#333333;fontFamily=Lucida Console;" parent="1" vertex="1">
          <mxGeometry x="2860" y="2600" width="60" height="60" as="geometry" />
        </mxCell>
        <mxCell id="VqiHA8Q5cYp8pTYDiDT9-274" value="VPC-3" style="rounded=0;whiteSpace=wrap;html=1;strokeColor=#666666;strokeWidth=3;fontSize=14;align=center;fontColor=#333333;fontFamily=Lucida Console;" parent="1" vertex="1">
          <mxGeometry x="2940" y="2600" width="60" height="60" as="geometry" />
        </mxCell>
        <mxCell id="VqiHA8Q5cYp8pTYDiDT9-276" value="VPC-4" style="rounded=0;whiteSpace=wrap;html=1;strokeColor=#666666;strokeWidth=3;fontSize=14;align=center;fontColor=#333333;fontFamily=Lucida Console;" parent="1" vertex="1">
          <mxGeometry x="3020" y="2600" width="60" height="60" as="geometry" />
        </mxCell>
        <mxCell id="VqiHA8Q5cYp8pTYDiDT9-295" value="Leaf" style="rounded=0;whiteSpace=wrap;html=1;strokeColor=#666666;strokeWidth=3;fontSize=14;align=center;fontColor=#333333;fontFamily=Lucida Console;" parent="1" vertex="1">
          <mxGeometry x="2430" y="2540" width="80" height="20" as="geometry" />
        </mxCell>
        <mxCell id="VqiHA8Q5cYp8pTYDiDT9-296" value="租管&lt;br&gt;互通" style="rounded=0;whiteSpace=wrap;html=1;strokeColor=#666666;strokeWidth=3;fontSize=14;align=center;fontColor=#333333;fontFamily=Lucida Console;" parent="1" vertex="1">
          <mxGeometry x="2440" y="2600" width="60" height="60" as="geometry" />
        </mxCell>
        <mxCell id="VqiHA8Q5cYp8pTYDiDT9-298" value="SEC" style="rounded=0;whiteSpace=wrap;html=1;strokeColor=#d79b00;strokeWidth=3;fontSize=14;align=center;fontFamily=Lucida Console;fillColor=#ffe6cc;" parent="1" vertex="1">
          <mxGeometry x="2600" y="2600" width="60" height="60" as="geometry" />
        </mxCell>
        <mxCell id="VqiHA8Q5cYp8pTYDiDT9-310" style="edgeStyle=orthogonalEdgeStyle;rounded=0;orthogonalLoop=1;jettySize=auto;html=1;strokeWidth=2;endArrow=none;endFill=0;fillColor=#f5f5f5;strokeColor=#666666;fontFamily=Lucida Console;" parent="1" source="VqiHA8Q5cYp8pTYDiDT9-311" target="VqiHA8Q5cYp8pTYDiDT9-313" edge="1">
          <mxGeometry relative="1" as="geometry" />
        </mxCell>
        <mxCell id="VqiHA8Q5cYp8pTYDiDT9-311" value="Leaf" style="rounded=0;whiteSpace=wrap;html=1;strokeColor=#666666;strokeWidth=3;fontSize=14;align=center;fontColor=#333333;fontFamily=Lucida Console;" parent="1" vertex="1">
          <mxGeometry x="3110" y="2540" width="80" height="20" as="geometry" />
        </mxCell>
        <mxCell id="VqiHA8Q5cYp8pTYDiDT9-312" style="edgeStyle=orthogonalEdgeStyle;rounded=0;orthogonalLoop=1;jettySize=auto;html=1;entryX=0.5;entryY=1;entryDx=0;entryDy=0;strokeWidth=2;endArrow=none;endFill=0;fillColor=#f5f5f5;strokeColor=#666666;exitX=0.5;exitY=1;exitDx=0;exitDy=0;fontFamily=Lucida Console;" parent="1" source="VqiHA8Q5cYp8pTYDiDT9-319" target="VqiHA8Q5cYp8pTYDiDT9-313" edge="1">
          <mxGeometry relative="1" as="geometry">
            <mxPoint x="3150" y="2719.9999999999995" as="targetPoint" />
            <Array as="points">
              <mxPoint x="3390" y="2680" />
              <mxPoint x="3150" y="2680" />
            </Array>
          </mxGeometry>
        </mxCell>
        <mxCell id="VqiHA8Q5cYp8pTYDiDT9-313" value="租存&lt;br&gt;互通" style="rounded=0;whiteSpace=wrap;html=1;strokeColor=#666666;strokeWidth=3;fontSize=14;align=center;fontColor=#333333;fontFamily=Lucida Console;" parent="1" vertex="1">
          <mxGeometry x="3120" y="2600" width="60" height="60" as="geometry" />
        </mxCell>
        <mxCell id="VqiHA8Q5cYp8pTYDiDT9-315" value="NAS-1" style="rounded=0;whiteSpace=wrap;html=1;strokeColor=#666666;strokeWidth=3;fontSize=14;align=center;fontColor=#333333;fontFamily=Lucida Console;" parent="1" vertex="1">
          <mxGeometry x="3200" y="2600" width="60" height="60" as="geometry" />
        </mxCell>
        <mxCell id="VqiHA8Q5cYp8pTYDiDT9-317" value="NAS-2" style="rounded=0;whiteSpace=wrap;html=1;strokeColor=#666666;strokeWidth=3;fontSize=14;align=center;fontColor=#333333;fontFamily=Lucida Console;" parent="1" vertex="1">
          <mxGeometry x="3280" y="2600" width="60" height="60" as="geometry" />
        </mxCell>
        <mxCell id="VqiHA8Q5cYp8pTYDiDT9-319" value="NAS-3" style="rounded=0;whiteSpace=wrap;html=1;strokeColor=#666666;strokeWidth=3;fontSize=14;align=center;fontColor=#333333;fontFamily=Lucida Console;" parent="1" vertex="1">
          <mxGeometry x="3360" y="2600" width="60" height="60" as="geometry" />
        </mxCell>
        <mxCell id="VqiHA8Q5cYp8pTYDiDT9-322" value="Spine" style="rounded=0;whiteSpace=wrap;html=1;strokeColor=#666666;strokeWidth=3;fillColor=#f5f5f5;fontSize=12;align=center;fontColor=#333333;fontFamily=Lucida Console;" parent="1" vertex="1">
          <mxGeometry x="1600" y="3040" width="80" height="40" as="geometry" />
        </mxCell>
        <mxCell id="VqiHA8Q5cYp8pTYDiDT9-323" value="Leaf" style="rounded=0;whiteSpace=wrap;html=1;strokeColor=#666666;strokeWidth=3;fillColor=#f5f5f5;fontSize=12;align=center;fontColor=#333333;fontFamily=Lucida Console;" parent="1" vertex="1">
          <mxGeometry x="1840" y="3080" width="80" height="20" as="geometry" />
        </mxCell>
        <mxCell id="VqiHA8Q5cYp8pTYDiDT9-324" value="Leaf" style="rounded=0;whiteSpace=wrap;html=1;strokeColor=#666666;strokeWidth=3;fillColor=#f5f5f5;fontSize=12;align=center;fontColor=#333333;fontFamily=Lucida Console;" parent="1" vertex="1">
          <mxGeometry x="2080" y="3080" width="80" height="20" as="geometry" />
        </mxCell>
        <mxCell id="VqiHA8Q5cYp8pTYDiDT9-325" value="Leaf" style="rounded=0;whiteSpace=wrap;html=1;strokeColor=#666666;strokeWidth=3;fillColor=#f5f5f5;fontSize=12;align=center;fontColor=#333333;fontFamily=Lucida Console;" parent="1" vertex="1">
          <mxGeometry x="1720" y="3080" width="80" height="20" as="geometry" />
        </mxCell>
        <mxCell id="VqiHA8Q5cYp8pTYDiDT9-326" value="Leaf" style="rounded=0;whiteSpace=wrap;html=1;strokeColor=#666666;strokeWidth=3;fillColor=#f5f5f5;fontSize=12;align=center;fontColor=#333333;fontFamily=Lucida Console;" parent="1" vertex="1">
          <mxGeometry x="1960" y="3080" width="80" height="20" as="geometry" />
        </mxCell>
        <mxCell id="VqiHA8Q5cYp8pTYDiDT9-328" style="edgeStyle=orthogonalEdgeStyle;rounded=0;orthogonalLoop=1;jettySize=auto;html=1;entryX=1;entryY=0.5;entryDx=0;entryDy=0;strokeWidth=2;endArrow=none;endFill=0;fillColor=#f5f5f5;strokeColor=#666666;fontSize=12;fontFamily=Lucida Console;" parent="1" target="VqiHA8Q5cYp8pTYDiDT9-322" edge="1">
          <mxGeometry relative="1" as="geometry">
            <Array as="points">
              <mxPoint x="1760" y="3060" />
            </Array>
            <mxPoint x="1760" y="3080" as="sourcePoint" />
            <mxPoint x="1920" y="3039.9999999999995" as="targetPoint" />
          </mxGeometry>
        </mxCell>
        <mxCell id="VqiHA8Q5cYp8pTYDiDT9-329" style="edgeStyle=orthogonalEdgeStyle;rounded=0;orthogonalLoop=1;jettySize=auto;html=1;strokeWidth=2;endArrow=none;endFill=0;fillColor=#f5f5f5;strokeColor=#666666;exitX=0.5;exitY=0;exitDx=0;exitDy=0;entryX=1;entryY=0.5;entryDx=0;entryDy=0;fontSize=12;fontFamily=Lucida Console;" parent="1" source="VqiHA8Q5cYp8pTYDiDT9-323" target="VqiHA8Q5cYp8pTYDiDT9-322" edge="1">
          <mxGeometry relative="1" as="geometry">
            <Array as="points">
              <mxPoint x="1880" y="3060" />
            </Array>
            <mxPoint x="1770" y="3089.9999999999995" as="sourcePoint" />
            <mxPoint x="1680" y="3060" as="targetPoint" />
          </mxGeometry>
        </mxCell>
        <mxCell id="VqiHA8Q5cYp8pTYDiDT9-330" style="edgeStyle=orthogonalEdgeStyle;rounded=0;orthogonalLoop=1;jettySize=auto;html=1;entryX=1;entryY=0.5;entryDx=0;entryDy=0;strokeWidth=2;endArrow=none;endFill=0;fillColor=#f5f5f5;strokeColor=#666666;exitX=0.5;exitY=0;exitDx=0;exitDy=0;fontSize=12;fontFamily=Lucida Console;" parent="1" source="VqiHA8Q5cYp8pTYDiDT9-326" target="VqiHA8Q5cYp8pTYDiDT9-322" edge="1">
          <mxGeometry relative="1" as="geometry">
            <Array as="points">
              <mxPoint x="2000" y="3060" />
            </Array>
            <mxPoint x="1890" y="3089.9999999999995" as="sourcePoint" />
            <mxPoint x="2210" y="3069.9999999999995" as="targetPoint" />
          </mxGeometry>
        </mxCell>
        <mxCell id="VqiHA8Q5cYp8pTYDiDT9-331" style="edgeStyle=orthogonalEdgeStyle;rounded=0;orthogonalLoop=1;jettySize=auto;html=1;entryX=1;entryY=0.5;entryDx=0;entryDy=0;strokeWidth=2;endArrow=none;endFill=0;fillColor=#f5f5f5;strokeColor=#666666;exitX=0.5;exitY=0;exitDx=0;exitDy=0;fontSize=12;fontFamily=Lucida Console;" parent="1" source="VqiHA8Q5cYp8pTYDiDT9-324" target="VqiHA8Q5cYp8pTYDiDT9-322" edge="1">
          <mxGeometry relative="1" as="geometry">
            <Array as="points">
              <mxPoint x="2120" y="3060" />
            </Array>
            <mxPoint x="2010" y="3089.9999999999995" as="sourcePoint" />
            <mxPoint x="2210" y="3069.9999999999995" as="targetPoint" />
          </mxGeometry>
        </mxCell>
        <mxCell id="VqiHA8Q5cYp8pTYDiDT9-332" value="POD&lt;br style=&quot;font-size: 12px;&quot;&gt;-Compute" style="rounded=0;whiteSpace=wrap;html=1;strokeColor=#666666;strokeWidth=3;fillColor=#f5f5f5;fontSize=12;align=center;fontColor=#333333;fontFamily=Lucida Console;" parent="1" vertex="1">
          <mxGeometry x="1840" y="3100" width="80" height="80" as="geometry" />
        </mxCell>
        <mxCell id="VqiHA8Q5cYp8pTYDiDT9-333" value="POD&lt;br style=&quot;font-size: 12px;&quot;&gt;-Network" style="rounded=0;whiteSpace=wrap;html=1;strokeColor=#666666;strokeWidth=3;fillColor=#f5f5f5;fontSize=12;align=center;fontColor=#333333;fontFamily=Lucida Console;" parent="1" vertex="1">
          <mxGeometry x="2080" y="3100" width="80" height="80" as="geometry" />
        </mxCell>
        <mxCell id="VqiHA8Q5cYp8pTYDiDT9-334" value="POD&lt;br style=&quot;font-size: 12px;&quot;&gt;-Manager" style="rounded=0;whiteSpace=wrap;html=1;strokeColor=#666666;strokeWidth=3;fillColor=#f5f5f5;fontSize=12;align=center;fontColor=#333333;fontFamily=Lucida Console;" parent="1" vertex="1">
          <mxGeometry x="1720" y="3100" width="80" height="80" as="geometry" />
        </mxCell>
        <mxCell id="VqiHA8Q5cYp8pTYDiDT9-335" value="POD&lt;br style=&quot;font-size: 12px;&quot;&gt;-Storage" style="rounded=0;whiteSpace=wrap;html=1;strokeColor=#666666;strokeWidth=3;fillColor=#f5f5f5;fontSize=12;align=center;fontColor=#333333;fontFamily=Lucida Console;" parent="1" vertex="1">
          <mxGeometry x="1960" y="3100" width="80" height="80" as="geometry" />
        </mxCell>
        <mxCell id="VqiHA8Q5cYp8pTYDiDT9-337" value="Border" style="rounded=0;whiteSpace=wrap;html=1;strokeColor=#666666;strokeWidth=3;fillColor=#f5f5f5;fontSize=12;align=center;fontColor=#333333;fontFamily=Lucida Console;" parent="1" vertex="1">
          <mxGeometry x="1720" y="3020" width="80" height="20" as="geometry" />
        </mxCell>
        <mxCell id="VqiHA8Q5cYp8pTYDiDT9-339" value="Border" style="rounded=0;whiteSpace=wrap;html=1;strokeColor=#666666;strokeWidth=3;fillColor=#f5f5f5;fontSize=12;align=center;fontColor=#333333;fontFamily=Lucida Console;" parent="1" vertex="1">
          <mxGeometry x="1840" y="3020" width="80" height="20" as="geometry" />
        </mxCell>
        <mxCell id="VqiHA8Q5cYp8pTYDiDT9-340" value="Border" style="rounded=0;whiteSpace=wrap;html=1;strokeColor=#666666;strokeWidth=3;fillColor=#f5f5f5;fontSize=12;align=center;fontColor=#333333;fontFamily=Lucida Console;" parent="1" vertex="1">
          <mxGeometry x="1960" y="3020" width="80" height="20" as="geometry" />
        </mxCell>
        <mxCell id="VqiHA8Q5cYp8pTYDiDT9-341" value="Border" style="rounded=0;whiteSpace=wrap;html=1;strokeColor=#666666;strokeWidth=3;fillColor=#f5f5f5;fontSize=12;align=center;fontColor=#333333;fontFamily=Lucida Console;" parent="1" vertex="1">
          <mxGeometry x="2080" y="3020" width="80" height="20" as="geometry" />
        </mxCell>
        <mxCell id="VqiHA8Q5cYp8pTYDiDT9-342" value="POD&lt;br style=&quot;font-size: 12px;&quot;&gt;-Internet" style="rounded=0;whiteSpace=wrap;html=1;strokeColor=#666666;strokeWidth=3;fillColor=#f5f5f5;fontSize=12;align=center;fontColor=#333333;fontFamily=Lucida Console;" parent="1" vertex="1">
          <mxGeometry x="1720" y="2980" width="80" height="40" as="geometry" />
        </mxCell>
        <mxCell id="VqiHA8Q5cYp8pTYDiDT9-343" value="POD&lt;br style=&quot;font-size: 12px;&quot;&gt;-Intranet" style="rounded=0;whiteSpace=wrap;html=1;strokeColor=#666666;strokeWidth=3;fillColor=#f5f5f5;fontSize=12;align=center;fontColor=#333333;fontFamily=Lucida Console;" parent="1" vertex="1">
          <mxGeometry x="1840" y="2980" width="80" height="40" as="geometry" />
        </mxCell>
        <mxCell id="VqiHA8Q5cYp8pTYDiDT9-344" value="POD&lt;br style=&quot;font-size: 12px;&quot;&gt;-LeaseLine" style="rounded=0;whiteSpace=wrap;html=1;strokeColor=#666666;strokeWidth=3;fillColor=#f5f5f5;fontSize=12;align=center;fontColor=#333333;fontFamily=Lucida Console;" parent="1" vertex="1">
          <mxGeometry x="1960" y="2980" width="80" height="40" as="geometry" />
        </mxCell>
        <mxCell id="VqiHA8Q5cYp8pTYDiDT9-345" value="POD&lt;br style=&quot;font-size: 12px;&quot;&gt;-DCI" style="rounded=0;whiteSpace=wrap;html=1;strokeColor=#666666;strokeWidth=3;fillColor=#f5f5f5;fontSize=12;align=center;fontColor=#333333;fontFamily=Lucida Console;" parent="1" vertex="1">
          <mxGeometry x="2080" y="2980" width="80" height="40" as="geometry" />
        </mxCell>
        <mxCell id="VqiHA8Q5cYp8pTYDiDT9-346" style="edgeStyle=orthogonalEdgeStyle;rounded=0;orthogonalLoop=1;jettySize=auto;html=1;entryX=1;entryY=0.5;entryDx=0;entryDy=0;strokeWidth=2;endArrow=none;endFill=0;fillColor=#f5f5f5;strokeColor=#666666;exitX=0.5;exitY=1;exitDx=0;exitDy=0;fontSize=12;fontFamily=Lucida Console;" parent="1" source="VqiHA8Q5cYp8pTYDiDT9-341" target="VqiHA8Q5cYp8pTYDiDT9-322" edge="1">
          <mxGeometry relative="1" as="geometry">
            <Array as="points">
              <mxPoint x="2120" y="3060" />
            </Array>
            <mxPoint x="2130" y="3089.9999999999995" as="sourcePoint" />
            <mxPoint x="1690" y="3069.9999999999995" as="targetPoint" />
          </mxGeometry>
        </mxCell>
        <mxCell id="VqiHA8Q5cYp8pTYDiDT9-347" style="edgeStyle=orthogonalEdgeStyle;rounded=0;orthogonalLoop=1;jettySize=auto;html=1;strokeWidth=2;endArrow=none;endFill=0;fillColor=#f5f5f5;strokeColor=#666666;exitX=0.5;exitY=1;exitDx=0;exitDy=0;fontSize=12;fontFamily=Lucida Console;" parent="1" source="VqiHA8Q5cYp8pTYDiDT9-337" edge="1">
          <mxGeometry relative="1" as="geometry">
            <Array as="points">
              <mxPoint x="1760" y="3060" />
            </Array>
            <mxPoint x="1770" y="3089.9999999999995" as="sourcePoint" />
            <mxPoint x="1680" y="3060" as="targetPoint" />
          </mxGeometry>
        </mxCell>
        <mxCell id="VqiHA8Q5cYp8pTYDiDT9-348" style="edgeStyle=orthogonalEdgeStyle;rounded=0;orthogonalLoop=1;jettySize=auto;html=1;strokeWidth=2;endArrow=none;endFill=0;fillColor=#f5f5f5;strokeColor=#666666;exitX=0.5;exitY=1;exitDx=0;exitDy=0;entryX=1;entryY=0.5;entryDx=0;entryDy=0;fontSize=12;fontFamily=Lucida Console;" parent="1" source="VqiHA8Q5cYp8pTYDiDT9-339" target="VqiHA8Q5cYp8pTYDiDT9-322" edge="1">
          <mxGeometry relative="1" as="geometry">
            <Array as="points">
              <mxPoint x="1880" y="3060" />
            </Array>
            <mxPoint x="1770" y="3049.9999999999995" as="sourcePoint" />
            <mxPoint x="1690" y="3069.9999999999995" as="targetPoint" />
          </mxGeometry>
        </mxCell>
        <mxCell id="VqiHA8Q5cYp8pTYDiDT9-349" style="edgeStyle=orthogonalEdgeStyle;rounded=0;orthogonalLoop=1;jettySize=auto;html=1;strokeWidth=2;endArrow=none;endFill=0;fillColor=#f5f5f5;strokeColor=#666666;exitX=0.5;exitY=1;exitDx=0;exitDy=0;entryX=1;entryY=0.5;entryDx=0;entryDy=0;fontSize=12;fontFamily=Lucida Console;" parent="1" source="VqiHA8Q5cYp8pTYDiDT9-340" target="VqiHA8Q5cYp8pTYDiDT9-322" edge="1">
          <mxGeometry relative="1" as="geometry">
            <Array as="points">
              <mxPoint x="2000" y="3060" />
            </Array>
            <mxPoint x="1890" y="3049.9999999999995" as="sourcePoint" />
            <mxPoint x="1690" y="3069.9999999999995" as="targetPoint" />
          </mxGeometry>
        </mxCell>
        <mxCell id="VqiHA8Q5cYp8pTYDiDT9-359" style="edgeStyle=orthogonalEdgeStyle;rounded=0;orthogonalLoop=1;jettySize=auto;html=1;strokeWidth=2;endArrow=none;endFill=0;fillColor=#f5f5f5;strokeColor=#666666;exitX=1;exitY=0.5;exitDx=0;exitDy=0;entryX=0.5;entryY=0;entryDx=0;entryDy=0;fontFamily=Lucida Console;" parent="1" source="VqiHA8Q5cYp8pTYDiDT9-261" target="VqiHA8Q5cYp8pTYDiDT9-266" edge="1">
          <mxGeometry relative="1" as="geometry">
            <Array as="points">
              <mxPoint x="2810" y="2500" />
            </Array>
            <mxPoint x="2410" y="2490" as="sourcePoint" />
            <mxPoint x="2480" y="2530" as="targetPoint" />
          </mxGeometry>
        </mxCell>
        <mxCell id="VqiHA8Q5cYp8pTYDiDT9-360" style="edgeStyle=orthogonalEdgeStyle;rounded=0;orthogonalLoop=1;jettySize=auto;html=1;strokeWidth=2;endArrow=none;endFill=0;fillColor=#f5f5f5;strokeColor=#666666;exitX=1;exitY=0.5;exitDx=0;exitDy=0;entryX=0.5;entryY=0;entryDx=0;entryDy=0;fontFamily=Lucida Console;" parent="1" source="VqiHA8Q5cYp8pTYDiDT9-261" target="VqiHA8Q5cYp8pTYDiDT9-311" edge="1">
          <mxGeometry relative="1" as="geometry">
            <Array as="points">
              <mxPoint x="3150" y="2500" />
            </Array>
            <mxPoint x="2720" y="2480" as="sourcePoint" />
            <mxPoint x="3030" y="2520" as="targetPoint" />
          </mxGeometry>
        </mxCell>
        <mxCell id="VqiHA8Q5cYp8pTYDiDT9-361" value="OSS" style="rounded=0;whiteSpace=wrap;html=1;strokeColor=#d79b00;strokeWidth=3;fontSize=14;align=center;fontFamily=Lucida Console;fillColor=#ffe6cc;" parent="1" vertex="1">
          <mxGeometry x="2520" y="2600" width="60" height="60" as="geometry" />
        </mxCell>
        <mxCell id="VqiHA8Q5cYp8pTYDiDT9-362" value="UCA" style="rounded=0;whiteSpace=wrap;html=1;strokeColor=#666666;strokeWidth=3;fontSize=14;align=center;fontColor=#333333;fontFamily=Lucida Console;" parent="1" vertex="1">
          <mxGeometry x="2680" y="2600" width="60" height="60" as="geometry" />
        </mxCell>
        <mxCell id="VqiHA8Q5cYp8pTYDiDT9-363" style="edgeStyle=orthogonalEdgeStyle;rounded=0;orthogonalLoop=1;jettySize=auto;html=1;entryX=0.5;entryY=1;entryDx=0;entryDy=0;strokeWidth=2;endArrow=none;endFill=0;fillColor=#f5f5f5;strokeColor=#666666;exitX=0.5;exitY=1;exitDx=0;exitDy=0;fontFamily=Lucida Console;" parent="1" edge="1">
          <mxGeometry relative="1" as="geometry">
            <mxPoint x="2810" y="2660" as="targetPoint" />
            <mxPoint x="3050" y="2660" as="sourcePoint" />
            <Array as="points">
              <mxPoint x="3050" y="2680" />
              <mxPoint x="2810" y="2680" />
            </Array>
          </mxGeometry>
        </mxCell>
        <mxCell id="VqiHA8Q5cYp8pTYDiDT9-364" style="edgeStyle=orthogonalEdgeStyle;rounded=0;orthogonalLoop=1;jettySize=auto;html=1;entryX=0.5;entryY=1;entryDx=0;entryDy=0;strokeWidth=2;endArrow=none;endFill=0;fillColor=#f5f5f5;strokeColor=#666666;fontFamily=Lucida Console;" parent="1" target="VqiHA8Q5cYp8pTYDiDT9-272" edge="1">
          <mxGeometry relative="1" as="geometry">
            <mxPoint x="2880" y="2660" as="targetPoint" />
            <mxPoint x="2970" y="2660" as="sourcePoint" />
            <Array as="points">
              <mxPoint x="2970" y="2680" />
              <mxPoint x="2890" y="2680" />
            </Array>
          </mxGeometry>
        </mxCell>
        <mxCell id="VqiHA8Q5cYp8pTYDiDT9-365" style="edgeStyle=orthogonalEdgeStyle;rounded=0;orthogonalLoop=1;jettySize=auto;html=1;entryX=0.5;entryY=1;entryDx=0;entryDy=0;strokeWidth=2;endArrow=none;endFill=0;fillColor=#f5f5f5;strokeColor=#666666;exitX=0.5;exitY=1;exitDx=0;exitDy=0;fontFamily=Lucida Console;" parent="1" source="VqiHA8Q5cYp8pTYDiDT9-317" edge="1">
          <mxGeometry relative="1" as="geometry">
            <mxPoint x="3230" y="2660" as="targetPoint" />
            <mxPoint x="3320" y="2660" as="sourcePoint" />
            <Array as="points">
              <mxPoint x="3310" y="2680" />
              <mxPoint x="3230" y="2680" />
            </Array>
          </mxGeometry>
        </mxCell>
        <mxCell id="VqiHA8Q5cYp8pTYDiDT9-368" value="Stor" style="rounded=0;whiteSpace=wrap;html=1;strokeColor=#666666;strokeWidth=3;fontSize=14;align=center;fontColor=#333333;fontFamily=Lucida Console;" parent="1" vertex="1">
          <mxGeometry x="3060" y="2670" width="80" height="20" as="geometry" />
        </mxCell>
        <mxCell id="VqiHA8Q5cYp8pTYDiDT9-369" value="Mgmt" style="rounded=0;whiteSpace=wrap;html=1;strokeColor=#666666;strokeWidth=3;fontSize=14;align=center;fontColor=#333333;fontFamily=Lucida Console;" parent="1" vertex="1">
          <mxGeometry x="2720" y="2670" width="80" height="20" as="geometry" />
        </mxCell>
        <mxCell id="VqiHA8Q5cYp8pTYDiDT9-373" style="edgeStyle=orthogonalEdgeStyle;rounded=0;orthogonalLoop=1;jettySize=auto;html=1;entryX=0.5;entryY=0;entryDx=0;entryDy=0;strokeWidth=2;endArrow=none;endFill=0;fillColor=#f5f5f5;strokeColor=#666666;exitX=0.5;exitY=0;exitDx=0;exitDy=0;fontFamily=Lucida Console;" parent="1" edge="1">
          <mxGeometry relative="1" as="geometry">
            <mxPoint x="2810" y="2600" as="targetPoint" />
            <mxPoint x="3050" y="2600" as="sourcePoint" />
            <Array as="points">
              <mxPoint x="3050" y="2580" />
              <mxPoint x="2810" y="2580" />
            </Array>
          </mxGeometry>
        </mxCell>
        <mxCell id="VqiHA8Q5cYp8pTYDiDT9-374" style="edgeStyle=orthogonalEdgeStyle;rounded=0;orthogonalLoop=1;jettySize=auto;html=1;entryX=0.5;entryY=0;entryDx=0;entryDy=0;strokeWidth=2;endArrow=none;endFill=0;fillColor=#f5f5f5;strokeColor=#666666;exitX=0.5;exitY=0;exitDx=0;exitDy=0;fontFamily=Lucida Console;" parent="1" edge="1">
          <mxGeometry relative="1" as="geometry">
            <mxPoint x="2890" y="2600" as="targetPoint" />
            <mxPoint x="2970" y="2600" as="sourcePoint" />
            <Array as="points">
              <mxPoint x="2970" y="2580" />
              <mxPoint x="2890" y="2580" />
            </Array>
          </mxGeometry>
        </mxCell>
        <mxCell id="VqiHA8Q5cYp8pTYDiDT9-375" style="edgeStyle=orthogonalEdgeStyle;rounded=0;orthogonalLoop=1;jettySize=auto;html=1;entryX=0.5;entryY=1;entryDx=0;entryDy=0;strokeWidth=2;endArrow=none;endFill=0;fillColor=#f5f5f5;strokeColor=#666666;exitX=0.5;exitY=1;exitDx=0;exitDy=0;fontFamily=Lucida Console;" parent="1" edge="1">
          <mxGeometry relative="1" as="geometry">
            <mxPoint x="2550" y="2660" as="targetPoint" />
            <mxPoint x="2630" y="2660" as="sourcePoint" />
            <Array as="points">
              <mxPoint x="2630" y="2680" />
              <mxPoint x="2550" y="2680" />
            </Array>
          </mxGeometry>
        </mxCell>
        <mxCell id="VqiHA8Q5cYp8pTYDiDT9-376" style="edgeStyle=orthogonalEdgeStyle;rounded=0;orthogonalLoop=1;jettySize=auto;html=1;entryX=0.25;entryY=1;entryDx=0;entryDy=0;strokeWidth=2;endArrow=none;endFill=0;fillColor=#f5f5f5;strokeColor=#666666;exitX=0.25;exitY=1;exitDx=0;exitDy=0;fontFamily=Lucida Console;" parent="1" edge="1">
          <mxGeometry relative="1" as="geometry">
            <mxPoint x="2470" y="2660" as="targetPoint" />
            <mxPoint x="2710" y="2660" as="sourcePoint" />
            <Array as="points">
              <mxPoint x="2710" y="2680" />
              <mxPoint x="2470" y="2680" />
            </Array>
          </mxGeometry>
        </mxCell>
        <mxCell id="VqiHA8Q5cYp8pTYDiDT9-380" style="edgeStyle=orthogonalEdgeStyle;rounded=0;orthogonalLoop=1;jettySize=auto;html=1;entryX=0.5;entryY=0;entryDx=0;entryDy=0;strokeWidth=2;endArrow=none;endFill=0;fillColor=#f5f5f5;strokeColor=#666666;exitX=0.5;exitY=0;exitDx=0;exitDy=0;fontFamily=Lucida Console;" parent="1" edge="1">
          <mxGeometry relative="1" as="geometry">
            <mxPoint x="2550" y="2600" as="targetPoint" />
            <mxPoint x="2630" y="2600" as="sourcePoint" />
            <Array as="points">
              <mxPoint x="2630" y="2580" />
              <mxPoint x="2550" y="2580" />
            </Array>
          </mxGeometry>
        </mxCell>
        <mxCell id="VqiHA8Q5cYp8pTYDiDT9-381" style="edgeStyle=orthogonalEdgeStyle;rounded=0;orthogonalLoop=1;jettySize=auto;html=1;entryX=0.5;entryY=0;entryDx=0;entryDy=0;strokeWidth=2;endArrow=none;endFill=0;fillColor=#f5f5f5;strokeColor=#666666;exitX=0.5;exitY=0;exitDx=0;exitDy=0;fontFamily=Lucida Console;" parent="1" edge="1">
          <mxGeometry relative="1" as="geometry">
            <mxPoint x="2470" y="2600" as="targetPoint" />
            <mxPoint x="2550" y="2600" as="sourcePoint" />
            <Array as="points">
              <mxPoint x="2550" y="2580" />
              <mxPoint x="2470" y="2580" />
            </Array>
          </mxGeometry>
        </mxCell>
        <mxCell id="VqiHA8Q5cYp8pTYDiDT9-382" value="&lt;b&gt;POD-Manager&amp;nbsp;&lt;/b&gt;" style="rounded=0;whiteSpace=wrap;html=1;strokeColor=#666666;strokeWidth=3;fontSize=14;align=right;fontColor=#333333;fontFamily=Lucida Console;fillColor=#f5f5f5;verticalAlign=top;" parent="1" vertex="1">
          <mxGeometry x="2420" y="2810" width="330" height="170" as="geometry" />
        </mxCell>
        <mxCell id="VqiHA8Q5cYp8pTYDiDT9-383" value="&lt;b&gt;POD-Compute&amp;nbsp;&lt;/b&gt;" style="rounded=0;whiteSpace=wrap;html=1;strokeColor=#666666;strokeWidth=3;fontSize=14;align=right;fontColor=#333333;fontFamily=Lucida Console;fillColor=#f5f5f5;verticalAlign=top;" parent="1" vertex="1">
          <mxGeometry x="2760" y="2810" width="330" height="170" as="geometry" />
        </mxCell>
        <mxCell id="VqiHA8Q5cYp8pTYDiDT9-384" value="&lt;b&gt;POD-Storage&amp;nbsp;&lt;/b&gt;" style="rounded=0;whiteSpace=wrap;html=1;strokeColor=#666666;strokeWidth=3;fontSize=14;align=right;fontColor=#333333;fontFamily=Lucida Console;fillColor=#f5f5f5;verticalAlign=top;" parent="1" vertex="1">
          <mxGeometry x="3100" y="2810" width="330" height="170" as="geometry" />
        </mxCell>
        <mxCell id="VqiHA8Q5cYp8pTYDiDT9-385" style="edgeStyle=orthogonalEdgeStyle;rounded=0;orthogonalLoop=1;jettySize=auto;html=1;strokeWidth=2;endArrow=none;endFill=0;fillColor=#f5f5f5;strokeColor=#666666;fontFamily=Lucida Console;entryX=0.5;entryY=0;entryDx=0;entryDy=0;" parent="1" source="VqiHA8Q5cYp8pTYDiDT9-386" target="VqiHA8Q5cYp8pTYDiDT9-395" edge="1">
          <mxGeometry relative="1" as="geometry">
            <Array as="points">
              <mxPoint x="2470" y="2780" />
            </Array>
            <mxPoint x="2470" y="2800" as="targetPoint" />
          </mxGeometry>
        </mxCell>
        <mxCell id="VqiHA8Q5cYp8pTYDiDT9-386" value="Spine" style="rounded=0;whiteSpace=wrap;html=1;strokeColor=#666666;strokeWidth=3;fillColor=#f5f5f5;fontSize=14;align=center;fontColor=#333333;fontFamily=Lucida Console;" parent="1" vertex="1">
          <mxGeometry x="2320" y="2760" width="80" height="40" as="geometry" />
        </mxCell>
        <mxCell id="VqiHA8Q5cYp8pTYDiDT9-387" style="edgeStyle=orthogonalEdgeStyle;rounded=0;orthogonalLoop=1;jettySize=auto;html=1;entryX=0.5;entryY=0;entryDx=0;entryDy=0;strokeWidth=2;endArrow=none;endFill=0;fillColor=#f5f5f5;strokeColor=#666666;fontFamily=Lucida Console;" parent="1" target="VqiHA8Q5cYp8pTYDiDT9-391" edge="1">
          <mxGeometry relative="1" as="geometry">
            <mxPoint x="2470" y="2840" as="sourcePoint" />
          </mxGeometry>
        </mxCell>
        <mxCell id="VqiHA8Q5cYp8pTYDiDT9-388" style="edgeStyle=orthogonalEdgeStyle;rounded=0;orthogonalLoop=1;jettySize=auto;html=1;strokeWidth=2;endArrow=none;endFill=0;fillColor=#f5f5f5;strokeColor=#666666;fontFamily=Lucida Console;" parent="1" source="VqiHA8Q5cYp8pTYDiDT9-389" target="VqiHA8Q5cYp8pTYDiDT9-390" edge="1">
          <mxGeometry relative="1" as="geometry" />
        </mxCell>
        <mxCell id="VqiHA8Q5cYp8pTYDiDT9-389" value="Leaf" style="rounded=0;whiteSpace=wrap;html=1;strokeColor=#666666;strokeWidth=3;fontSize=14;align=center;fontColor=#333333;fontFamily=Lucida Console;" parent="1" vertex="1">
          <mxGeometry x="2770" y="2820" width="80" height="20" as="geometry" />
        </mxCell>
        <mxCell id="VqiHA8Q5cYp8pTYDiDT9-390" value="&lt;span&gt;CVK-1&lt;/span&gt;" style="rounded=0;whiteSpace=wrap;html=1;strokeColor=#666666;strokeWidth=3;fontSize=14;align=center;fontColor=#333333;fontFamily=Lucida Console;" parent="1" vertex="1">
          <mxGeometry x="2780" y="2880" width="60" height="60" as="geometry" />
        </mxCell>
        <mxCell id="VqiHA8Q5cYp8pTYDiDT9-391" value="Compute&lt;br&gt;CVK-2" style="rounded=0;whiteSpace=wrap;html=1;strokeColor=#666666;strokeWidth=3;fillColor=#f5f5f5;fontSize=14;align=center;fontColor=#333333;fontFamily=Lucida Console;" parent="1" vertex="1">
          <mxGeometry x="2440" y="2880" width="60" height="60" as="geometry" />
        </mxCell>
        <mxCell id="VqiHA8Q5cYp8pTYDiDT9-392" value="CVK-2" style="rounded=0;whiteSpace=wrap;html=1;strokeColor=#666666;strokeWidth=3;fontSize=14;align=center;fontColor=#333333;fontFamily=Lucida Console;" parent="1" vertex="1">
          <mxGeometry x="2860" y="2880" width="60" height="60" as="geometry" />
        </mxCell>
        <mxCell id="VqiHA8Q5cYp8pTYDiDT9-393" value="CVK-3" style="rounded=0;whiteSpace=wrap;html=1;strokeColor=#666666;strokeWidth=3;fontSize=14;align=center;fontColor=#333333;fontFamily=Lucida Console;" parent="1" vertex="1">
          <mxGeometry x="2940" y="2880" width="60" height="60" as="geometry" />
        </mxCell>
        <mxCell id="VqiHA8Q5cYp8pTYDiDT9-394" value="CVK-4" style="rounded=0;whiteSpace=wrap;html=1;strokeColor=#666666;strokeWidth=3;fontSize=14;align=center;fontColor=#333333;fontFamily=Lucida Console;" parent="1" vertex="1">
          <mxGeometry x="3020" y="2880" width="60" height="60" as="geometry" />
        </mxCell>
        <mxCell id="VqiHA8Q5cYp8pTYDiDT9-395" value="Leaf" style="rounded=0;whiteSpace=wrap;html=1;strokeColor=#666666;strokeWidth=3;fontSize=14;align=center;fontColor=#333333;fontFamily=Lucida Console;" parent="1" vertex="1">
          <mxGeometry x="2430" y="2820" width="80" height="20" as="geometry" />
        </mxCell>
        <mxCell id="VqiHA8Q5cYp8pTYDiDT9-396" value="租管&lt;br&gt;互通" style="rounded=0;whiteSpace=wrap;html=1;strokeColor=#666666;strokeWidth=3;fontSize=14;align=center;fontColor=#333333;fontFamily=Lucida Console;" parent="1" vertex="1">
          <mxGeometry x="2440" y="2880" width="60" height="60" as="geometry" />
        </mxCell>
        <mxCell id="VqiHA8Q5cYp8pTYDiDT9-397" value="UCA-2" style="rounded=0;whiteSpace=wrap;html=1;strokeWidth=3;fontSize=14;align=center;fontFamily=Lucida Console;strokeColor=#666666;fontColor=#333333;" parent="1" vertex="1">
          <mxGeometry x="2600" y="2880" width="60" height="60" as="geometry" />
        </mxCell>
        <mxCell id="VqiHA8Q5cYp8pTYDiDT9-398" style="edgeStyle=orthogonalEdgeStyle;rounded=0;orthogonalLoop=1;jettySize=auto;html=1;strokeWidth=2;endArrow=none;endFill=0;fillColor=#f5f5f5;strokeColor=#666666;fontFamily=Lucida Console;" parent="1" source="VqiHA8Q5cYp8pTYDiDT9-399" target="VqiHA8Q5cYp8pTYDiDT9-401" edge="1">
          <mxGeometry relative="1" as="geometry" />
        </mxCell>
        <mxCell id="VqiHA8Q5cYp8pTYDiDT9-399" value="Leaf" style="rounded=0;whiteSpace=wrap;html=1;strokeColor=#666666;strokeWidth=3;fontSize=14;align=center;fontColor=#333333;fontFamily=Lucida Console;" parent="1" vertex="1">
          <mxGeometry x="3110" y="2820" width="80" height="20" as="geometry" />
        </mxCell>
        <mxCell id="VqiHA8Q5cYp8pTYDiDT9-400" style="edgeStyle=orthogonalEdgeStyle;rounded=0;orthogonalLoop=1;jettySize=auto;html=1;entryX=0.5;entryY=1;entryDx=0;entryDy=0;strokeWidth=2;endArrow=none;endFill=0;fillColor=#f5f5f5;strokeColor=#666666;exitX=0.5;exitY=1;exitDx=0;exitDy=0;fontFamily=Lucida Console;" parent="1" source="VqiHA8Q5cYp8pTYDiDT9-404" target="VqiHA8Q5cYp8pTYDiDT9-401" edge="1">
          <mxGeometry relative="1" as="geometry">
            <mxPoint x="3150" y="2999.9999999999995" as="targetPoint" />
            <Array as="points">
              <mxPoint x="3390" y="2960" />
              <mxPoint x="3150" y="2960" />
            </Array>
          </mxGeometry>
        </mxCell>
        <mxCell id="VqiHA8Q5cYp8pTYDiDT9-401" value="租存&lt;br&gt;互通" style="rounded=0;whiteSpace=wrap;html=1;strokeColor=#666666;strokeWidth=3;fontSize=14;align=center;fontColor=#333333;fontFamily=Lucida Console;" parent="1" vertex="1">
          <mxGeometry x="3120" y="2880" width="60" height="60" as="geometry" />
        </mxCell>
        <mxCell id="VqiHA8Q5cYp8pTYDiDT9-402" value="NAS-1" style="rounded=0;whiteSpace=wrap;html=1;strokeColor=#666666;strokeWidth=3;fontSize=14;align=center;fontColor=#333333;fontFamily=Lucida Console;" parent="1" vertex="1">
          <mxGeometry x="3200" y="2880" width="60" height="60" as="geometry" />
        </mxCell>
        <mxCell id="VqiHA8Q5cYp8pTYDiDT9-403" value="NAS-2" style="rounded=0;whiteSpace=wrap;html=1;strokeColor=#666666;strokeWidth=3;fontSize=14;align=center;fontColor=#333333;fontFamily=Lucida Console;" parent="1" vertex="1">
          <mxGeometry x="3280" y="2880" width="60" height="60" as="geometry" />
        </mxCell>
        <mxCell id="VqiHA8Q5cYp8pTYDiDT9-404" value="NAS-3" style="rounded=0;whiteSpace=wrap;html=1;strokeColor=#666666;strokeWidth=3;fontSize=14;align=center;fontColor=#333333;fontFamily=Lucida Console;" parent="1" vertex="1">
          <mxGeometry x="3360" y="2880" width="60" height="60" as="geometry" />
        </mxCell>
        <mxCell id="VqiHA8Q5cYp8pTYDiDT9-405" style="edgeStyle=orthogonalEdgeStyle;rounded=0;orthogonalLoop=1;jettySize=auto;html=1;strokeWidth=2;endArrow=none;endFill=0;fillColor=#f5f5f5;strokeColor=#666666;exitX=1;exitY=0.5;exitDx=0;exitDy=0;entryX=0.5;entryY=0;entryDx=0;entryDy=0;fontFamily=Lucida Console;" parent="1" source="VqiHA8Q5cYp8pTYDiDT9-386" target="VqiHA8Q5cYp8pTYDiDT9-389" edge="1">
          <mxGeometry relative="1" as="geometry">
            <Array as="points">
              <mxPoint x="2810" y="2780" />
            </Array>
            <mxPoint x="2410" y="2770" as="sourcePoint" />
            <mxPoint x="2480" y="2810" as="targetPoint" />
          </mxGeometry>
        </mxCell>
        <mxCell id="VqiHA8Q5cYp8pTYDiDT9-406" style="edgeStyle=orthogonalEdgeStyle;rounded=0;orthogonalLoop=1;jettySize=auto;html=1;strokeWidth=2;endArrow=none;endFill=0;fillColor=#f5f5f5;strokeColor=#666666;exitX=1;exitY=0.5;exitDx=0;exitDy=0;entryX=0.5;entryY=0;entryDx=0;entryDy=0;fontFamily=Lucida Console;" parent="1" source="VqiHA8Q5cYp8pTYDiDT9-386" target="VqiHA8Q5cYp8pTYDiDT9-399" edge="1">
          <mxGeometry relative="1" as="geometry">
            <Array as="points">
              <mxPoint x="3150" y="2780" />
            </Array>
            <mxPoint x="2720" y="2760" as="sourcePoint" />
            <mxPoint x="3030" y="2800" as="targetPoint" />
          </mxGeometry>
        </mxCell>
        <mxCell id="VqiHA8Q5cYp8pTYDiDT9-407" value="UCA-1" style="rounded=0;whiteSpace=wrap;html=1;strokeWidth=3;fontSize=14;align=center;fontFamily=Lucida Console;strokeColor=#666666;fontColor=#333333;" parent="1" vertex="1">
          <mxGeometry x="2520" y="2880" width="60" height="60" as="geometry" />
        </mxCell>
        <mxCell id="VqiHA8Q5cYp8pTYDiDT9-408" value="UCA-3" style="rounded=0;whiteSpace=wrap;html=1;strokeColor=#666666;strokeWidth=3;fontSize=14;align=center;fontColor=#333333;fontFamily=Lucida Console;" parent="1" vertex="1">
          <mxGeometry x="2680" y="2880" width="60" height="60" as="geometry" />
        </mxCell>
        <mxCell id="VqiHA8Q5cYp8pTYDiDT9-409" style="edgeStyle=orthogonalEdgeStyle;rounded=0;orthogonalLoop=1;jettySize=auto;html=1;entryX=0.5;entryY=1;entryDx=0;entryDy=0;strokeWidth=2;endArrow=none;endFill=0;fillColor=#f5f5f5;strokeColor=#666666;exitX=0.5;exitY=1;exitDx=0;exitDy=0;fontFamily=Lucida Console;" parent="1" edge="1">
          <mxGeometry relative="1" as="geometry">
            <mxPoint x="2810" y="2940" as="targetPoint" />
            <mxPoint x="3050" y="2940" as="sourcePoint" />
            <Array as="points">
              <mxPoint x="3050" y="2960" />
              <mxPoint x="2810" y="2960" />
            </Array>
          </mxGeometry>
        </mxCell>
        <mxCell id="VqiHA8Q5cYp8pTYDiDT9-410" style="edgeStyle=orthogonalEdgeStyle;rounded=0;orthogonalLoop=1;jettySize=auto;html=1;entryX=0.5;entryY=1;entryDx=0;entryDy=0;strokeWidth=2;endArrow=none;endFill=0;fillColor=#f5f5f5;strokeColor=#666666;fontFamily=Lucida Console;" parent="1" target="VqiHA8Q5cYp8pTYDiDT9-392" edge="1">
          <mxGeometry relative="1" as="geometry">
            <mxPoint x="2880" y="2940" as="targetPoint" />
            <mxPoint x="2970" y="2940" as="sourcePoint" />
            <Array as="points">
              <mxPoint x="2970" y="2960" />
              <mxPoint x="2890" y="2960" />
            </Array>
          </mxGeometry>
        </mxCell>
        <mxCell id="VqiHA8Q5cYp8pTYDiDT9-411" style="edgeStyle=orthogonalEdgeStyle;rounded=0;orthogonalLoop=1;jettySize=auto;html=1;entryX=0.5;entryY=1;entryDx=0;entryDy=0;strokeWidth=2;endArrow=none;endFill=0;fillColor=#f5f5f5;strokeColor=#666666;exitX=0.5;exitY=1;exitDx=0;exitDy=0;fontFamily=Lucida Console;" parent="1" source="VqiHA8Q5cYp8pTYDiDT9-403" edge="1">
          <mxGeometry relative="1" as="geometry">
            <mxPoint x="3230" y="2940" as="targetPoint" />
            <mxPoint x="3320" y="2940" as="sourcePoint" />
            <Array as="points">
              <mxPoint x="3310" y="2960" />
              <mxPoint x="3230" y="2960" />
            </Array>
          </mxGeometry>
        </mxCell>
        <mxCell id="VqiHA8Q5cYp8pTYDiDT9-412" value="Stor" style="rounded=0;whiteSpace=wrap;html=1;strokeColor=#666666;strokeWidth=3;fontSize=14;align=center;fontColor=#333333;fontFamily=Lucida Console;" parent="1" vertex="1">
          <mxGeometry x="3060" y="2950" width="80" height="20" as="geometry" />
        </mxCell>
        <mxCell id="VqiHA8Q5cYp8pTYDiDT9-413" value="Mgmt" style="rounded=0;whiteSpace=wrap;html=1;strokeColor=#666666;strokeWidth=3;fontSize=14;align=center;fontColor=#333333;fontFamily=Lucida Console;" parent="1" vertex="1">
          <mxGeometry x="2720" y="2950" width="80" height="20" as="geometry" />
        </mxCell>
        <mxCell id="VqiHA8Q5cYp8pTYDiDT9-414" style="edgeStyle=orthogonalEdgeStyle;rounded=0;orthogonalLoop=1;jettySize=auto;html=1;entryX=0.5;entryY=0;entryDx=0;entryDy=0;strokeWidth=2;endArrow=none;endFill=0;fillColor=#f5f5f5;strokeColor=#666666;exitX=0.5;exitY=0;exitDx=0;exitDy=0;fontFamily=Lucida Console;" parent="1" edge="1">
          <mxGeometry relative="1" as="geometry">
            <mxPoint x="2810" y="2880" as="targetPoint" />
            <mxPoint x="3050" y="2880" as="sourcePoint" />
            <Array as="points">
              <mxPoint x="3050" y="2860" />
              <mxPoint x="2810" y="2860" />
            </Array>
          </mxGeometry>
        </mxCell>
        <mxCell id="VqiHA8Q5cYp8pTYDiDT9-415" style="edgeStyle=orthogonalEdgeStyle;rounded=0;orthogonalLoop=1;jettySize=auto;html=1;entryX=0.5;entryY=0;entryDx=0;entryDy=0;strokeWidth=2;endArrow=none;endFill=0;fillColor=#f5f5f5;strokeColor=#666666;exitX=0.5;exitY=0;exitDx=0;exitDy=0;fontFamily=Lucida Console;" parent="1" edge="1">
          <mxGeometry relative="1" as="geometry">
            <mxPoint x="2890" y="2880" as="targetPoint" />
            <mxPoint x="2970" y="2880" as="sourcePoint" />
            <Array as="points">
              <mxPoint x="2970" y="2860" />
              <mxPoint x="2890" y="2860" />
            </Array>
          </mxGeometry>
        </mxCell>
        <mxCell id="VqiHA8Q5cYp8pTYDiDT9-416" style="edgeStyle=orthogonalEdgeStyle;rounded=0;orthogonalLoop=1;jettySize=auto;html=1;entryX=0.5;entryY=1;entryDx=0;entryDy=0;strokeWidth=2;endArrow=none;endFill=0;fillColor=#f5f5f5;strokeColor=#666666;exitX=0.5;exitY=1;exitDx=0;exitDy=0;fontFamily=Lucida Console;" parent="1" edge="1">
          <mxGeometry relative="1" as="geometry">
            <mxPoint x="2550" y="2940" as="targetPoint" />
            <mxPoint x="2630" y="2940" as="sourcePoint" />
            <Array as="points">
              <mxPoint x="2630" y="2960" />
              <mxPoint x="2550" y="2960" />
            </Array>
          </mxGeometry>
        </mxCell>
        <mxCell id="VqiHA8Q5cYp8pTYDiDT9-417" style="edgeStyle=orthogonalEdgeStyle;rounded=0;orthogonalLoop=1;jettySize=auto;html=1;entryX=0.25;entryY=1;entryDx=0;entryDy=0;strokeWidth=2;endArrow=none;endFill=0;fillColor=#f5f5f5;strokeColor=#666666;exitX=0.25;exitY=1;exitDx=0;exitDy=0;fontFamily=Lucida Console;" parent="1" edge="1">
          <mxGeometry relative="1" as="geometry">
            <mxPoint x="2470" y="2940" as="targetPoint" />
            <mxPoint x="2710" y="2940" as="sourcePoint" />
            <Array as="points">
              <mxPoint x="2710" y="2960" />
              <mxPoint x="2470" y="2960" />
            </Array>
          </mxGeometry>
        </mxCell>
        <mxCell id="VqiHA8Q5cYp8pTYDiDT9-418" style="edgeStyle=orthogonalEdgeStyle;rounded=0;orthogonalLoop=1;jettySize=auto;html=1;entryX=0.5;entryY=0;entryDx=0;entryDy=0;strokeWidth=2;endArrow=none;endFill=0;fillColor=#f5f5f5;strokeColor=#666666;exitX=0.5;exitY=0;exitDx=0;exitDy=0;fontFamily=Lucida Console;" parent="1" edge="1">
          <mxGeometry relative="1" as="geometry">
            <mxPoint x="2550" y="2880" as="targetPoint" />
            <mxPoint x="2630" y="2880" as="sourcePoint" />
            <Array as="points">
              <mxPoint x="2630" y="2860" />
              <mxPoint x="2550" y="2860" />
            </Array>
          </mxGeometry>
        </mxCell>
        <mxCell id="VqiHA8Q5cYp8pTYDiDT9-419" style="edgeStyle=orthogonalEdgeStyle;rounded=0;orthogonalLoop=1;jettySize=auto;html=1;entryX=0.5;entryY=0;entryDx=0;entryDy=0;strokeWidth=2;endArrow=none;endFill=0;fillColor=#f5f5f5;strokeColor=#666666;exitX=0.5;exitY=0;exitDx=0;exitDy=0;fontFamily=Lucida Console;" parent="1" edge="1">
          <mxGeometry relative="1" as="geometry">
            <mxPoint x="2470" y="2880" as="targetPoint" />
            <mxPoint x="2550" y="2880" as="sourcePoint" />
            <Array as="points">
              <mxPoint x="2550" y="2860" />
              <mxPoint x="2470" y="2860" />
            </Array>
          </mxGeometry>
        </mxCell>
        <mxCell id="VqiHA8Q5cYp8pTYDiDT9-420" value="YFB-TJ" style="rounded=0;whiteSpace=wrap;html=1;strokeColor=#666666;strokeWidth=3;fontSize=12;align=center;fontFamily=Lucida Console;fontStyle=1;fillColor=#f5f5f5;fontColor=#333333;" parent="1" vertex="1">
          <mxGeometry x="770" y="2840" width="80" height="40" as="geometry" />
        </mxCell>
        <mxCell id="VqiHA8Q5cYp8pTYDiDT9-422" value="AZ-1" style="rounded=0;whiteSpace=wrap;html=1;strokeColor=#666666;strokeWidth=3;fontSize=12;align=center;fontFamily=Lucida Console;fontStyle=1;fillColor=#f5f5f5;fontColor=#333333;" parent="1" vertex="1">
          <mxGeometry x="530" y="2920" width="80" height="80" as="geometry" />
        </mxCell>
        <mxCell id="VqiHA8Q5cYp8pTYDiDT9-423" value="AZ-0" style="rounded=0;whiteSpace=wrap;html=1;strokeColor=#666666;strokeWidth=3;fontSize=12;align=center;fontFamily=Lucida Console;fontStyle=1;fillColor=#f5f5f5;fontColor=#333333;" parent="1" vertex="1">
          <mxGeometry x="410" y="2920" width="80" height="80" as="geometry" />
        </mxCell>
        <mxCell id="VqiHA8Q5cYp8pTYDiDT9-424" value="AZ-2" style="rounded=0;whiteSpace=wrap;html=1;strokeColor=#666666;strokeWidth=3;fontSize=12;align=center;fontFamily=Lucida Console;fontStyle=1;fillColor=#f5f5f5;fontColor=#333333;" parent="1" vertex="1">
          <mxGeometry x="650" y="2920" width="80" height="80" as="geometry" />
        </mxCell>
        <mxCell id="VqiHA8Q5cYp8pTYDiDT9-425" value="&lt;br&gt;DCI-CORE" style="ellipse;whiteSpace=wrap;html=1;fontFamily=Lucida Console;fontSize=12;align=center;strokeWidth=3;verticalAlign=top;fontStyle=1;strokeColor=#666666;fontColor=#333333;fillColor=#f5f5f5;" parent="1" vertex="1">
          <mxGeometry x="850" y="2720" width="280" height="160" as="geometry" />
        </mxCell>
        <mxCell id="VqiHA8Q5cYp8pTYDiDT9-426" value="&lt;br&gt;INTERNET" style="ellipse;whiteSpace=wrap;html=1;fontFamily=Lucida Console;fontSize=12;align=center;strokeColor=#666666;strokeWidth=3;verticalAlign=top;fontStyle=1;fontColor=#333333;fillColor=#f5f5f5;" parent="1" vertex="1">
          <mxGeometry x="930" y="2760" width="120" height="80" as="geometry" />
        </mxCell>
        <mxCell id="VqiHA8Q5cYp8pTYDiDT9-427" value="7#-POP" style="rounded=0;whiteSpace=wrap;html=1;strokeWidth=3;fontSize=12;align=center;fontFamily=Lucida Console;strokeColor=#666666;fontColor=#333333;fontStyle=1;fillColor=#f5f5f5;" parent="1" vertex="1">
          <mxGeometry x="770" y="2780" width="80" height="40" as="geometry" />
        </mxCell>
        <mxCell id="VqiHA8Q5cYp8pTYDiDT9-428" value="AZ-2" style="rounded=0;whiteSpace=wrap;html=1;strokeColor=#666666;strokeWidth=3;fontSize=12;align=center;fontFamily=Lucida Console;fontStyle=1;fillColor=#f5f5f5;fontColor=#333333;" parent="1" vertex="1">
          <mxGeometry x="770" y="2920" width="80" height="80" as="geometry" />
        </mxCell>
        <mxCell id="VqiHA8Q5cYp8pTYDiDT9-429" value="DEV-TJ" style="rounded=0;whiteSpace=wrap;html=1;strokeColor=#666666;strokeWidth=3;fontSize=12;align=center;fontFamily=Lucida Console;fontStyle=1;fillColor=#f5f5f5;fontColor=#333333;" parent="1" vertex="1">
          <mxGeometry x="650" y="2840" width="80" height="40" as="geometry" />
        </mxCell>
        <mxCell id="VqiHA8Q5cYp8pTYDiDT9-430" value="YFB-CD" style="rounded=0;whiteSpace=wrap;html=1;strokeColor=#666666;strokeWidth=3;fontSize=12;align=center;fontFamily=Lucida Console;fontStyle=1;fillColor=#f5f5f5;fontColor=#333333;" parent="1" vertex="1">
          <mxGeometry x="950" y="2880" width="80" height="40" as="geometry" />
        </mxCell>
        <mxCell id="VqiHA8Q5cYp8pTYDiDT9-431" value="AZ-0" style="rounded=0;whiteSpace=wrap;html=1;strokeColor=#666666;strokeWidth=3;fontSize=12;align=center;fontFamily=Lucida Console;fontStyle=1;fillColor=#f5f5f5;fontColor=#333333;" parent="1" vertex="1">
          <mxGeometry x="950" y="2920" width="80" height="80" as="geometry" />
        </mxCell>
        <mxCell id="VqiHA8Q5cYp8pTYDiDT9-432" value="4#-POP" style="rounded=0;whiteSpace=wrap;html=1;strokeWidth=3;fontSize=12;align=center;fontFamily=Lucida Console;strokeColor=#666666;fontColor=#333333;fontStyle=1;fillColor=#f5f5f5;" parent="1" vertex="1">
          <mxGeometry x="1130" y="2780" width="80" height="40" as="geometry" />
        </mxCell>
        <mxCell id="VqiHA8Q5cYp8pTYDiDT9-433" value="YFB-TJ" style="rounded=0;whiteSpace=wrap;html=1;strokeColor=#666666;strokeWidth=3;fontSize=12;align=center;fontFamily=Lucida Console;fontStyle=1;fillColor=#f5f5f5;fontColor=#333333;" parent="1" vertex="1">
          <mxGeometry x="1130" y="2840" width="80" height="40" as="geometry" />
        </mxCell>
        <mxCell id="VqiHA8Q5cYp8pTYDiDT9-434" value="AZ-1" style="rounded=0;whiteSpace=wrap;html=1;strokeColor=#666666;strokeWidth=3;fillColor=#f5f5f5;fontSize=12;align=center;fontColor=#333333;fontFamily=Lucida Console;fontStyle=1" parent="1" vertex="1">
          <mxGeometry x="1250" y="2920" width="80" height="80" as="geometry" />
        </mxCell>
        <mxCell id="VqiHA8Q5cYp8pTYDiDT9-435" value="AZ-0" style="rounded=0;whiteSpace=wrap;html=1;strokeColor=#666666;strokeWidth=3;fillColor=#f5f5f5;fontSize=12;align=center;fontColor=#333333;fontFamily=Lucida Console;fontStyle=1" parent="1" vertex="1">
          <mxGeometry x="1130" y="2920" width="80" height="80" as="geometry" />
        </mxCell>
        <mxCell id="VqiHA8Q5cYp8pTYDiDT9-436" value="YFB-SEC" style="rounded=0;whiteSpace=wrap;html=1;strokeColor=#666666;strokeWidth=3;fontSize=12;align=center;fontFamily=Lucida Console;fontColor=#333333;fontStyle=1;fillColor=#f5f5f5;" parent="1" vertex="1">
          <mxGeometry x="1130" y="3040" width="80" height="80" as="geometry" />
        </mxCell>
        <mxCell id="VqiHA8Q5cYp8pTYDiDT9-437" value="AZ-0" style="rounded=0;whiteSpace=wrap;html=1;strokeColor=#666666;strokeWidth=3;fontSize=12;align=center;fontFamily=Lucida Console;fontStyle=1;fillColor=#f5f5f5;fontColor=#333333;" parent="1" vertex="1">
          <mxGeometry x="1130" y="2920" width="80" height="80" as="geometry" />
        </mxCell>
        <mxCell id="VqiHA8Q5cYp8pTYDiDT9-438" value="AZ-1" style="rounded=0;whiteSpace=wrap;html=1;strokeColor=#666666;strokeWidth=3;fontSize=12;align=center;fontFamily=Lucida Console;fontStyle=1;fillColor=#f5f5f5;fontColor=#333333;" parent="1" vertex="1">
          <mxGeometry x="1250" y="2920" width="80" height="80" as="geometry" />
        </mxCell>
        <mxCell id="VqiHA8Q5cYp8pTYDiDT9-439" value="UniStack&lt;br&gt;-Storage" style="rounded=0;whiteSpace=wrap;html=1;strokeColor=#666666;strokeWidth=3;fontSize=12;align=center;fontColor=#333333;fontFamily=Lucida Console;fontStyle=1;fillColor=#f5f5f5;" parent="1" vertex="1">
          <mxGeometry x="1370" y="3040" width="80" height="80" as="geometry" />
        </mxCell>
        <mxCell id="VqiHA8Q5cYp8pTYDiDT9-440" value="UniStack&lt;br&gt;-Network" style="rounded=0;whiteSpace=wrap;html=1;strokeColor=#666666;strokeWidth=3;fontSize=12;align=center;fontColor=#333333;fontFamily=Lucida Console;fontStyle=1;fillColor=#f5f5f5;" parent="1" vertex="1">
          <mxGeometry x="1370" y="2920" width="80" height="80" as="geometry" />
        </mxCell>
        <mxCell id="VqiHA8Q5cYp8pTYDiDT9-441" value="UniStack&lt;br&gt;-Compute" style="rounded=0;whiteSpace=wrap;html=1;strokeColor=#666666;strokeWidth=3;fontSize=12;align=center;fontColor=#333333;fontFamily=Lucida Console;fontStyle=1;fillColor=#f5f5f5;" parent="1" vertex="1">
          <mxGeometry x="1370" y="2800" width="80" height="80" as="geometry" />
        </mxCell>
        <mxCell id="VqiHA8Q5cYp8pTYDiDT9-442" value="YFB-DMZ" style="rounded=0;whiteSpace=wrap;html=1;strokeColor=#666666;strokeWidth=3;fontSize=12;align=center;fontFamily=Lucida Console;fontColor=#333333;fontStyle=1;fillColor=#f5f5f5;" parent="1" vertex="1">
          <mxGeometry x="1250" y="3040" width="80" height="80" as="geometry" />
        </mxCell>
        <mxCell id="VqiHA8Q5cYp8pTYDiDT9-443" style="edgeStyle=orthogonalEdgeStyle;rounded=0;orthogonalLoop=1;jettySize=auto;html=1;strokeWidth=2;endArrow=none;endFill=0;fillColor=#f5f5f5;strokeColor=#666666;exitX=0.5;exitY=1;exitDx=0;exitDy=0;fontSize=12;fontFamily=Lucida Console;entryX=0.5;entryY=0;entryDx=0;entryDy=0;fontStyle=1" parent="1" target="VqiHA8Q5cYp8pTYDiDT9-422" edge="1">
          <mxGeometry relative="1" as="geometry">
            <Array as="points">
              <mxPoint x="690" y="2900" />
              <mxPoint x="570" y="2900" />
            </Array>
            <mxPoint x="690" y="2880" as="sourcePoint" />
            <mxPoint x="610" y="2900" as="targetPoint" />
          </mxGeometry>
        </mxCell>
        <mxCell id="VqiHA8Q5cYp8pTYDiDT9-444" style="edgeStyle=orthogonalEdgeStyle;rounded=0;orthogonalLoop=1;jettySize=auto;html=1;strokeWidth=2;endArrow=none;endFill=0;fillColor=#f5f5f5;strokeColor=#666666;exitX=0.5;exitY=1;exitDx=0;exitDy=0;fontSize=12;fontFamily=Lucida Console;" parent="1" edge="1">
          <mxGeometry relative="1" as="geometry">
            <Array as="points">
              <mxPoint x="440" y="3220" />
            </Array>
            <mxPoint x="440" y="3200" as="sourcePoint" />
            <mxPoint x="360" y="3220" as="targetPoint" />
          </mxGeometry>
        </mxCell>
        <mxCell id="VqiHA8Q5cYp8pTYDiDT9-445" style="edgeStyle=orthogonalEdgeStyle;rounded=0;orthogonalLoop=1;jettySize=auto;html=1;strokeWidth=2;endArrow=none;endFill=0;fillColor=#f5f5f5;strokeColor=#666666;exitX=0.5;exitY=1;exitDx=0;exitDy=0;fontSize=12;fontFamily=Lucida Console;entryX=0.5;entryY=0;entryDx=0;entryDy=0;fontStyle=1" parent="1" target="VqiHA8Q5cYp8pTYDiDT9-423" edge="1">
          <mxGeometry relative="1" as="geometry">
            <Array as="points">
              <mxPoint x="690" y="2900" />
              <mxPoint x="450" y="2900" />
            </Array>
            <mxPoint x="690" y="2880" as="sourcePoint" />
            <mxPoint x="610" y="2900" as="targetPoint" />
          </mxGeometry>
        </mxCell>
        <mxCell id="VqiHA8Q5cYp8pTYDiDT9-446" style="edgeStyle=orthogonalEdgeStyle;rounded=0;orthogonalLoop=1;jettySize=auto;html=1;strokeWidth=2;endArrow=none;endFill=0;fillColor=#f5f5f5;strokeColor=#666666;exitX=0.5;exitY=1;exitDx=0;exitDy=0;fontSize=12;fontFamily=Lucida Console;entryX=0.5;entryY=0;entryDx=0;entryDy=0;fontStyle=1" parent="1" target="VqiHA8Q5cYp8pTYDiDT9-424" edge="1">
          <mxGeometry relative="1" as="geometry">
            <Array as="points" />
            <mxPoint x="690" y="2880" as="sourcePoint" />
            <mxPoint x="610" y="2900" as="targetPoint" />
          </mxGeometry>
        </mxCell>
        <mxCell id="VqiHA8Q5cYp8pTYDiDT9-447" style="edgeStyle=orthogonalEdgeStyle;rounded=0;orthogonalLoop=1;jettySize=auto;html=1;strokeWidth=2;endArrow=none;endFill=0;fillColor=#f5f5f5;strokeColor=#666666;exitX=0.5;exitY=1;exitDx=0;exitDy=0;fontSize=12;fontFamily=Lucida Console;entryX=0.5;entryY=0;entryDx=0;entryDy=0;fontStyle=1" parent="1" target="VqiHA8Q5cYp8pTYDiDT9-428" edge="1">
          <mxGeometry relative="1" as="geometry">
            <Array as="points" />
            <mxPoint x="810" y="2880" as="sourcePoint" />
            <mxPoint x="730" y="2900" as="targetPoint" />
          </mxGeometry>
        </mxCell>
        <mxCell id="VqiHA8Q5cYp8pTYDiDT9-448" style="edgeStyle=orthogonalEdgeStyle;rounded=0;orthogonalLoop=1;jettySize=auto;html=1;strokeWidth=2;endArrow=none;endFill=0;fillColor=#f5f5f5;strokeColor=#666666;exitX=0.5;exitY=1;exitDx=0;exitDy=0;fontSize=12;fontFamily=Lucida Console;entryX=0.5;entryY=0;entryDx=0;entryDy=0;fontStyle=1" parent="1" target="VqiHA8Q5cYp8pTYDiDT9-431" edge="1">
          <mxGeometry relative="1" as="geometry">
            <Array as="points" />
            <mxPoint x="990" y="2920" as="sourcePoint" />
            <mxPoint x="910" y="2940" as="targetPoint" />
          </mxGeometry>
        </mxCell>
        <mxCell id="VqiHA8Q5cYp8pTYDiDT9-449" style="edgeStyle=orthogonalEdgeStyle;rounded=0;orthogonalLoop=1;jettySize=auto;html=1;strokeWidth=2;endArrow=none;endFill=0;fillColor=#f5f5f5;strokeColor=#666666;exitX=0.5;exitY=1;exitDx=0;exitDy=0;fontSize=12;fontFamily=Lucida Console;entryX=0.5;entryY=0;entryDx=0;entryDy=0;fontStyle=1" parent="1" target="VqiHA8Q5cYp8pTYDiDT9-437" edge="1">
          <mxGeometry relative="1" as="geometry">
            <Array as="points" />
            <mxPoint x="1170" y="2880" as="sourcePoint" />
            <mxPoint x="1090" y="2900" as="targetPoint" />
          </mxGeometry>
        </mxCell>
        <mxCell id="VqiHA8Q5cYp8pTYDiDT9-450" style="edgeStyle=orthogonalEdgeStyle;rounded=0;orthogonalLoop=1;jettySize=auto;html=1;strokeWidth=2;endArrow=none;endFill=0;fillColor=#f5f5f5;strokeColor=#666666;exitX=0.5;exitY=1;exitDx=0;exitDy=0;fontSize=12;fontFamily=Lucida Console;entryX=0.5;entryY=0;entryDx=0;entryDy=0;fontStyle=1" parent="1" target="VqiHA8Q5cYp8pTYDiDT9-438" edge="1">
          <mxGeometry relative="1" as="geometry">
            <Array as="points">
              <mxPoint x="1170" y="2900" />
              <mxPoint x="1290" y="2900" />
            </Array>
            <mxPoint x="1170" y="2880" as="sourcePoint" />
            <mxPoint x="1090" y="2900" as="targetPoint" />
          </mxGeometry>
        </mxCell>
        <mxCell id="VqiHA8Q5cYp8pTYDiDT9-471" value="天津研发机房#7" style="text;html=1;fillColor=#f5f5f5;align=center;verticalAlign=middle;whiteSpace=wrap;rounded=0;dashed=1;fontFamily=Lucida Console;fontSize=16;fontStyle=1;strokeColor=#666666;fontColor=#333333;" parent="1" vertex="1">
          <mxGeometry x="575" y="3040" width="120" height="20" as="geometry" />
        </mxCell>
        <mxCell id="VqiHA8Q5cYp8pTYDiDT9-473" value="天津研发机房#4" style="text;html=1;fillColor=#f5f5f5;align=center;verticalAlign=middle;whiteSpace=wrap;rounded=0;dashed=1;fontFamily=Lucida Console;fontSize=16;fontStyle=1;strokeColor=#666666;fontColor=#333333;" parent="1" vertex="1">
          <mxGeometry x="1225" y="3160" width="120" height="20" as="geometry" />
        </mxCell>
        <mxCell id="VqiHA8Q5cYp8pTYDiDT9-474" value="成都研发机房" style="text;html=1;fillColor=#f5f5f5;align=center;verticalAlign=middle;whiteSpace=wrap;rounded=0;dashed=1;fontFamily=Lucida Console;fontSize=16;fontStyle=1;strokeColor=#666666;fontColor=#333333;" parent="1" vertex="1">
          <mxGeometry x="940" y="3040" width="100" height="20" as="geometry" />
        </mxCell>
        <mxCell id="VqiHA8Q5cYp8pTYDiDT9-481" value="成都集成测试环境" style="text;html=1;fillColor=#f5f5f5;align=center;verticalAlign=middle;whiteSpace=wrap;rounded=0;dashed=1;fontFamily=Lucida Console;fontSize=16;fontStyle=1;strokeColor=#666666;fontColor=#333333;" parent="1" vertex="1">
          <mxGeometry x="567.5" y="2620" width="135" height="20" as="geometry" />
        </mxCell>
        <mxCell id="VqiHA8Q5cYp8pTYDiDT9-482" value="成都开发环境" style="text;html=1;fillColor=#f5f5f5;align=center;verticalAlign=middle;whiteSpace=wrap;rounded=0;dashed=1;fontFamily=Lucida Console;fontSize=16;fontStyle=1;strokeColor=#666666;fontColor=#333333;" parent="1" vertex="1">
          <mxGeometry x="940" y="2620" width="100" height="20" as="geometry" />
        </mxCell>
        <mxCell id="VqiHA8Q5cYp8pTYDiDT9-483" value="郑州开发环境" style="text;html=1;fillColor=#f5f5f5;align=center;verticalAlign=middle;whiteSpace=wrap;rounded=0;dashed=1;fontFamily=Lucida Console;fontSize=16;fontStyle=1;strokeColor=#666666;fontColor=#333333;" parent="1" vertex="1">
          <mxGeometry x="1260" y="2620" width="100" height="20" as="geometry" />
        </mxCell>
        <mxCell id="VqiHA8Q5cYp8pTYDiDT9-486" value="YFB-TJ" style="rounded=0;whiteSpace=wrap;html=1;strokeColor=#666666;strokeWidth=3;fontSize=12;align=center;fontFamily=Lucida Console;fontStyle=1;fillColor=#f5f5f5;fontColor=#333333;" parent="1" vertex="1">
          <mxGeometry x="770" y="2840" width="80" height="40" as="geometry" />
        </mxCell>
        <mxCell id="VqiHA8Q5cYp8pTYDiDT9-487" value="AZ-2" style="rounded=0;whiteSpace=wrap;html=1;strokeColor=#666666;strokeWidth=3;fontSize=12;align=center;fontFamily=Lucida Console;fontStyle=1;fillColor=#f5f5f5;fontColor=#333333;" parent="1" vertex="1">
          <mxGeometry x="770" y="2920" width="80" height="80" as="geometry" />
        </mxCell>
        <mxCell id="VqiHA8Q5cYp8pTYDiDT9-488" value="AZ-0" style="rounded=0;whiteSpace=wrap;html=1;strokeColor=#666666;strokeWidth=3;fontSize=12;align=center;fontFamily=Lucida Console;fontStyle=1;fillColor=#f5f5f5;fontColor=#333333;" parent="1" vertex="1">
          <mxGeometry x="950" y="2920" width="80" height="80" as="geometry" />
        </mxCell>
        <mxCell id="VqiHA8Q5cYp8pTYDiDT9-489" value="YFB-CD" style="rounded=0;whiteSpace=wrap;html=1;strokeColor=#666666;strokeWidth=3;fontSize=12;align=center;fontFamily=Lucida Console;fontStyle=1;fillColor=#f5f5f5;fontColor=#333333;" parent="1" vertex="1">
          <mxGeometry x="950" y="2880" width="80" height="40" as="geometry" />
        </mxCell>
      </root>
    </mxGraphModel>
  </diagram>
</mxfile>
